<?xml version="1.0" encoding="utf-8"?>
<!-- Generator: Adobe Illustrator 15.0.2, SVG Export Plug-In . SVG Version: 6.00 Build 0)  -->
<!DOCTYPE svg PUBLIC "-//W3C//DTD SVG 1.1//EN" "http://www.w3.org/Graphics/SVG/1.1/DTD/svg11.dtd">
<svg version="1.1" id="Ebene_1" xmlns="http://www.w3.org/2000/svg" xmlns:xlink="http://www.w3.org/1999/xlink" x="0px" y="0px"
	 width="415.19px" height="293.671px" viewBox="0 0 415.19 293.671" enable-background="new 0 0 415.19 293.671"
	 xml:space="preserve">
<g>
	<g>
		<path fill-rule="evenodd" clip-rule="evenodd" d="M56.142,46.159c1.688-0.35,1.646,1.033,2.51,1.508
			c-0.217,1.121-0.887,1.789-2.008,2.008C56.483,48.495,55.851,47.79,56.142,46.159z"/>
		<path fill-rule="evenodd" clip-rule="evenodd" d="M74.716,48.671c0.502,0,1.004,0,1.506,0c0,0.838,0,1.676,0,2.512
			C75.185,50.882,74.319,50.405,74.716,48.671z"/>
		<path fill-rule="evenodd" clip-rule="evenodd" d="M79.735,52.187c4.387,0.299,3.209,6.166,6.525,7.535
			c-0.127,2.473-0.143,4.834,1.004,6.031c-1.547-0.377-0.611,1.73-2.51,1.002C83.987,60.993,80.794,57.659,79.735,52.187z"/>
		<path fill-rule="evenodd" clip-rule="evenodd" d="M83.751,52.187c0.668,0,1.338,0,2.008,0c0.266,2.918,2.766,3.598,2.51,7.033
			c-0.668,0-1.338,0-2.008,0C86.396,55.905,84.854,54.263,83.751,52.187z"/>
		<path fill-rule="evenodd" clip-rule="evenodd" d="M88.771,52.187c0.67,0,1.34,0,2.008,0c1.26,7.113,5.771,10.969,6.527,18.588
			c-3.875,0.023-1.822-5.881-5.021-6.529C92.817,58.522,88.837,57.312,88.771,52.187z"/>
		<path fill-rule="evenodd" clip-rule="evenodd" d="M59.655,67.257c0.428-0.092,0.473,0.197,0.502,0.504
			c1.652,1.359,4.824,1.201,5.02,4.02c1.898,0.109,4.527-0.512,4.52,1.508c-5.34-0.02-9.123-1.59-11.045-5.025
			C59.505,68.448,59.599,67.872,59.655,67.257z"/>
		<path fill-rule="evenodd" clip-rule="evenodd" d="M51.624,69.771c0.836,0,1.672,0,2.51,0c0.279,3.07,5.18,1.514,5.521,4.521
			c-1.172,0-2.342,0-3.514,0C56.729,70.688,51.487,72.921,51.624,69.771z"/>
		<path fill-rule="evenodd" clip-rule="evenodd" d="M133.95,69.771c0.891,0.781,1.934,1.412,1.504,3.518
			c-1.209-0.465-2.045-1.301-2.508-2.514C133.8,70.96,133.894,70.384,133.95,69.771z"/>
		<path fill-rule="evenodd" clip-rule="evenodd" d="M114.372,72.282c1.719,0.291,1.568,2.449,3.012,3.014
			c1.426,0.086,0.98-1.699,3.012-1.004c-0.107,3.121,2.01,4.016,1.508,7.535c-0.838,0-1.676,0-2.512,0
			c0.617-2.629-0.818-3.199-1.004-5.023c-1.988-0.65-1.025,1.652-3.012,1.004C114.368,76.64,114.165,74.665,114.372,72.282z"/>
		<path fill-rule="evenodd" clip-rule="evenodd" d="M138.97,75.296c0.502,0,1.004,0,1.506,0c0,0.838,0,1.676,0,2.512
			C140.001,76.944,138.62,76.985,138.97,75.296z"/>
		<path fill-rule="evenodd" clip-rule="evenodd" d="M63.673,75.798c4.033,2.662,8.855,4.533,12.549,7.535
			c-2.973,3.184-4.729-3.213-8.535-2.51C67.476,78.019,63.417,79.067,63.673,75.798z"/>
		<path fill-rule="evenodd" clip-rule="evenodd" d="M56.644,77.808c0.959,0.211,2.16,0.182,2.008,1.508
			C57.339,79.456,56.14,79.485,56.644,77.808z"/>
		<path fill-rule="evenodd" clip-rule="evenodd" fill="#FFFFFF" d="M376.911,81.827c1.307,4.195-2.555,11.811-6.023,14.568
			c-1.471-0.033-1.477-1.535-2.508-2.01c-3.275,1.078-6.75,1.955-10.543,2.512C363.247,90.927,371.175,87.472,376.911,81.827z"/>
		<path fill-rule="evenodd" clip-rule="evenodd" d="M349.302,90.87c1.578-0.098,2.414-0.936,2.512-2.512
			c1.414-0.26,4.242,0.895,3.512-1.508c0.838,0,1.676,0,2.512,0c-1.059,1.955-1.328,4.699-3.012,6.027
			c-1.852-1.803-2.787-0.359-4.52,0.502C349.741,92.776,348.874,92.472,349.302,90.87z"/>
		<path fill-rule="evenodd" clip-rule="evenodd" d="M73.21,90.87c2.803-0.129,5.387-0.035,5.521,2.51
			C76.444,92.991,73.886,92.87,73.21,90.87z"/>
		<path fill-rule="evenodd" clip-rule="evenodd" fill="#FFFFFF" d="M344.282,92.878c-0.178,1.998-1.701,2.652-1.504,5.023
			c-0.672,0-1.34,0-2.008,0C340.565,94.853,342.476,93.915,344.282,92.878z"/>
		<path fill-rule="evenodd" clip-rule="evenodd" d="M59.655,99.409c0.67,0,1.338,0,2.008,0c8.494,4.562,15.84,10.27,26.605,12.559
			c0.779,4.914,10.098,1.281,11.045,6.027c-15.771-2.805-26.176-10.98-39.156-16.578C60.22,100.517,59.542,100.358,59.655,99.409z"
			/>
		<path fill-rule="evenodd" clip-rule="evenodd" d="M281.032,102.925c1.09-0.084,0.227,1.783,0.504,2.512
			c-1.898-0.727-0.965,1.381-2.512,1.006C278.11,103.687,281.116,104.851,281.032,102.925z"/>
		<path fill-rule="evenodd" clip-rule="evenodd" d="M345.79,114.479c0-0.838,0-1.674,0-2.512c2.977,0.301,4.473-0.883,7.527-0.502
			c1.287-0.557,0.988-2.697,1.006-4.521c4.008,0.152,6.311-4.059,10.541-2.01c-1.107,2.576-4.777,2.588-8.031,3.016
			c-1.01,1.865,0.508,3.156-0.504,5.021C352.122,112.78,350.749,115.425,345.79,114.479z"/>
		<path fill-rule="evenodd" clip-rule="evenodd" fill="#FFFFFF" d="M275.009,114.479c0.504,0,1.004,0,1.504,0
			c-0.211,0.961-0.18,2.162-1.504,2.01C275.009,115.819,275.009,115.149,275.009,114.479z"/>
		<path fill-rule="evenodd" clip-rule="evenodd" d="M356.833,114.479c-1.539,3.818-7.109,3.604-11.545,4.521
			C346.284,114.642,351.769,114.771,356.833,114.479z"/>
		<path fill-rule="evenodd" clip-rule="evenodd" d="M358.841,117.995c-0.543,2.137-2.689,2.67-5.523,2.512
			c-4.865,2.332-9.953,4.438-16.562,5.025c0-0.838,0-1.676,0-2.512C344.954,122.288,351.075,117.579,358.841,117.995z"/>
		<path fill-rule="evenodd" clip-rule="evenodd" fill="#FFFFFF" d="M168.587,120.005c1.543-0.768,1.543,3.281,0,2.514
			C168.587,121.679,168.587,120.843,168.587,120.005z"/>
		<path fill-rule="evenodd" clip-rule="evenodd" d="M357.837,122.519c0,0.836,0,1.674,0,2.512
			c-4.086,0.598-6.379,2.994-11.043,3.012C348.372,124.101,353.478,123.681,357.837,122.519z"/>
		<path fill-rule="evenodd" clip-rule="evenodd" fill="#FFFFFF" d="M168.587,126.536c0.502,0,1.004,0,1.506,0
			c-0.273,0.73,0.586,2.596-0.502,2.512C167.903,129.563,168.81,127.487,168.587,126.536z"/>
		<path fill-rule="evenodd" clip-rule="evenodd" fill="#FFFFFF" d="M246.897,127.54c1.688,0.99,2.83,2.525,2.51,5.527
			c-1.891,0.385-2.398-0.613-4.016-0.502C244.845,129.841,246.101,128.921,246.897,127.54z"/>
		<path fill-rule="evenodd" clip-rule="evenodd" fill="#FFFFFF" d="M246.396,134.073c0.523,1.422,0.523,2.092,0,3.516
			c-2.027,0.352-2.316-1.031-3.516-1.508C243.206,134.563,244.261,133.778,246.396,134.073z"/>
		<path fill-rule="evenodd" clip-rule="evenodd" d="M232.841,141.608c1.91-0.404,0.639,2.373,1.004,3.516c-0.67,0-1.338,0-2.006,0
			C231.231,143.011,232.647,142.921,232.841,141.608z"/>
		<path fill-rule="evenodd" clip-rule="evenodd" d="M127.927,155.171c-11.973-2.086-25.223-2.893-33.633-8.541
			c3.199,1.266,8.82,0.58,14.055,2.514c0.971,0.357,1.014,1.746,2.008,2.008C116.337,152.731,124.819,150.606,127.927,155.171z"/>
		<path fill-rule="evenodd" clip-rule="evenodd" fill="#FFFFFF" d="M334.243,146.63c-0.369,1.975-3.031,1.654-5.02,2.01
			C330.188,147.261,332.017,146.745,334.243,146.63z"/>
		<path fill-rule="evenodd" clip-rule="evenodd" fill="#FFFFFF" d="M225.312,151.151c-0.572,2.273-2.365,3.326-3.514,5.023
			C221.901,153.433,222.181,150.864,225.312,151.151z"/>
		<path fill-rule="evenodd" clip-rule="evenodd" d="M131.44,154.165c3.33,0.184,6.494,0.533,8.533,2.01c-2.844,0-5.689,0-8.533,0
			C131.44,155.507,131.44,154.835,131.44,154.165z"/>
		<path fill-rule="evenodd" clip-rule="evenodd" fill="#FFFFFF" d="M312.157,165.718c-0.104,1.324-4.627,2.723-5.023,0.504
			C308.456,165.702,310.216,165.622,312.157,165.718z"/>
		<path fill-rule="evenodd" clip-rule="evenodd" fill="#FFFFFF" d="M301.11,174.259c-0.035,1.807-2.094,1.588-4.016,1.51
			C297.253,174.083,299.372,174.358,301.11,174.259z"/>
		<path fill-rule="evenodd" clip-rule="evenodd" fill="#FFFFFF" d="M298.099,177.776c0.309,1.98-2.756,0.59-4.016,1.006
			C293.573,178.882,297.349,176.415,298.099,177.776z"/>
		<path fill-rule="evenodd" clip-rule="evenodd" fill="#FFFFFF" d="M180.134,178.782c0.332,0,0.668,0,1.002,0
			c5.531,5.26,7.549,16.521,3.012,24.615C181.663,196.339,182.187,186.271,180.134,178.782z"/>
		<path fill-rule="evenodd" clip-rule="evenodd" d="M241.876,209.425c10.352,0.273,12.984,0.082,18.074,1.004
			c6.414-2.285,17.023-0.375,25.098-1.004c-0.047,3.469-7.207-0.18-8.031,2.512c-2.234,0.277-5.797-0.777-6.527,1.006
			c-1.965-0.018-5.404-2.307-8.533,0c-3.814-0.916-10.631-1.16-18.07-1.006c1.979,3.713,11.99-0.613,13.553,3.516
			c1.188-2.123,5-0.621,6.527,0c-4.418,1.109-7.504,0.453-10.039,1.508c-6.713-2.871-15.543,0.758-21.086-3.012
			c1.5-3.689,5.016-0.818,8.535-1.006C242.497,212.726,241.577,210.468,241.876,209.425z"/>
		<path fill-rule="evenodd" clip-rule="evenodd" fill="#FFFFFF" d="M197.702,218.468c1.363-0.359-0.359,2.367,1.004,2.01
			c-4.188,5.857-9.346,10.74-16.064,14.064c-0.193,2.318,0.312,5.336-1.506,6.031c0.42-3.115-0.633-7.391,0-9.045
			C186.282,228.69,192.694,223.085,197.702,218.468z"/>
		<path fill-rule="evenodd" clip-rule="evenodd" fill="#FFFFFF" d="M186.157,258.153c-0.51,3.51-0.703,7.334-2.51,9.545
			c-3.432-1.555,1.775-6.5-1.006-7.535C182.966,258.646,184.022,257.86,186.157,258.153z"/>
		<path fill-rule="evenodd" clip-rule="evenodd" d="M61.663,46.159c-1.195-1.096,1.025,0.25,2.01,0
			c-0.744,2.25,1.469,1.543,1.002,3.516c-1.42,0.082-1.168-1.508-2.51-1.506C62.124,47.374,62.407,46.253,61.663,46.159z"/>
		<path fill-rule="evenodd" clip-rule="evenodd" fill="#FFFFFF" d="M67.185,95.39c1.719,1.453,3.914,0.391,6.025,1.508
			c0.527,0.279,0.814,1.766,1.506,2.01c1.908,0.67,3.949-0.17,6.023,0.502c0.742,0.24,0.779,1.703,1.506,2.008
			c1.523,0.645,3.797,0.068,5.521,0.504c2.816,0.711,5.537,2.938,8.031,3.516c9.574,2.227,22.043-2.326,25.1,6.531
			c4.885,0.639,4.867,6.182,9.539,7.033c0.188,3.42,6.002,3.58,5.018,6.531c-14.945,0.375-27.23-0.736-39.154-5.025
			c-10.02-3.602-18.002-10.492-28.111-11.555c0.16,4.195,3.406,5.301,7.531,5.527c3.076,4.289,10.629,4.102,14.055,8.039
			c6.436,0.785,10.729,3.297,17.57,5.021c8.613,2.172,18.176,1.979,26.104,1.508c1.963-0.115,3.643-0.9,5.521-0.502
			c6.516,1.385,8.186,9.613,13.051,12.559c-16.789,2.334-35.426,2.863-51.201-1.004c-0.377-1.549,1.729-0.613,1.002-2.512
			c3.611-0.266,4.932,1.762,9.037,1.004c-2.488-4.363-8.318-2.447-13.051-3.518c-4.104-0.926-7.715-4.229-12.049-3.516
			c-1.078-2.605-4.229-3.135-7.529-3.518c-0.004,2.516,2.643,2.379,5.02,2.514c3.619,3.074,8.895,4.494,15.059,5.021
			c0.1,1.744,2.639,1.047,2.512,3.016c-1.072-0.234-0.957,0.719-1.006,1.508c-5.176-1.852-10.5-3.557-15.059-6.027
			c-1.553-0.047-1.496,1.516-1.506,3.012c3.314,1.875,8.061,2.314,9.035,6.531c4.764,2.098,11.617,2.105,15.561,5.023
			c5.844-1.223,14.996,2.67,24.098,1.508c-2.336-2.186-7.031-2.008-11.045-2.512c7.146-3.416,23.719,1.355,31.627-3.518
			c7.137,4.916,11.32,12.783,17.568,18.588c-9.006,0.473-19.688,1.967-26.104,2.008c-13.713-2.467-30.836-1.166-40.66-8.539
			c12.41,1.146,24.668,5.121,37.146,4.523c-11.785-4.006-25.721-2.32-37.146-8.039c-2.414-0.74-2.096,1.252-4.016,1.004
			c-9.826-6.242-16.826-15.312-24.598-23.609c-0.457-2.893-2.346-4.354-4.518-5.527c-0.463-2.551-2.42-3.609-3.014-6.027
			c-0.367-0.469-0.912-0.762-1.506-1.006c-4.945-8.869-8.801-18.104-13.053-28.131c-5.982-14.125-6.35-30.492-13.051-43.203
			C52.091,57.581,68.2,65.405,79.735,77.808c-1.172,0-2.344,0-3.514,0c2.312,2.605,6.244,1.197,9.035,3.016
			c1.625,1.057,1.988,3.316,3.514,4.52c1.025,0.811,2.828,1.143,4.016,2.01c6.08,4.443,13.805,10.598,19.076,15.572
			c-4.311-1.934-10.105-0.568-15.061-1.508c-2.004-0.379-3.898-1.297-7.529-2.008c-9.445-1.852-18.742-9.15-28.111-8.539
			c-0.391,2.398,1.049,2.969,3.012,3.012c0.359,1.367-2.367-0.357-2.008,1.006c-0.461,2.135,1.203,2.146,3.012,2.01
			c0.57,1.773,1.9,2.785,4.52,2.512c8.852,6.713,20.18,10.949,32.125,14.568c0.605-0.566,0.91-1.434,2.512-1.006
			c-3.537-2.654-9.367-3.016-14.559-4.02C82.956,103.722,72.192,102.437,67.185,95.39z M46.101,54.7
			c-3.895,4.656,4.037,4.127,5.021,7.033c-1.057,0.449-2.996,0.016-2.51,2.008c3.15,0.363,4.398,2.631,7.529,3.014
			c-2.395-2.125-1.654-7.385-6.023-7.535c-0.621-1.623,1.625-0.383,1.004-2.008c-1.303-0.203-1.449-1.564-2.008-2.512
			C48.11,54.7,47.106,54.7,46.101,54.7z M58.651,68.263c1.922,3.436,5.705,5.006,11.045,5.025c0.008-2.02-2.621-1.398-4.52-1.508
			c-0.195-2.818-3.367-2.66-5.02-4.02c-0.029-0.307-0.074-0.596-0.502-0.504C59.599,67.872,59.505,68.448,58.651,68.263z
			 M56.142,74.292c1.172,0,2.342,0,3.514,0c-0.342-3.008-5.242-1.451-5.521-4.521c-0.838,0-1.674,0-2.51,0
			C51.487,72.921,56.729,70.688,56.142,74.292z M67.687,80.823c3.807-0.703,5.562,5.693,8.535,2.51
			c-3.693-3.002-8.516-4.873-12.549-7.535C63.417,79.067,67.476,78.019,67.687,80.823z M58.651,79.315
			c0.152-1.326-1.049-1.297-2.008-1.508C56.14,79.485,57.339,79.456,58.651,79.315z M76.222,88.358
			c0.414-1.42-0.709-1.301-0.502-2.514c-7.236,0.877-8.355-4.363-13.555-5.525C64.257,85.595,71.478,85.737,76.222,88.358z
			 M69.696,90.366c-2.398-2.34-7.066-7.598-11.045-5.023C62.335,87.015,65.903,88.804,69.696,90.366z M78.731,93.38
			c-0.135-2.545-2.719-2.639-5.521-2.51C73.886,92.87,76.444,92.991,78.731,93.38z M60.157,101.417
			c12.98,5.598,23.385,13.773,39.156,16.578c-0.947-4.746-10.266-1.113-11.045-6.027c-10.766-2.289-18.111-7.996-26.605-12.559
			c-0.67,0-1.338,0-2.008,0C59.542,100.358,60.22,100.517,60.157,101.417z M78.731,123.522c5.707,1.32,8.33,5.73,15.562,5.525
			c-0.023,0.691,0.234,1.104,0.5,1.508c5.27-0.865,10.131,3.852,13.555,1.506c-7.787-3.426-18.834-3.59-24.598-9.041
			c-2.291,0.283-3.127-0.891-5.521-0.502c-1.574-3.281-4.326-5.387-9.539-5.025C69.896,121.646,76.681,120.216,78.731,123.522z
			 M110.356,151.151c-0.994-0.262-1.037-1.65-2.008-2.008c-5.234-1.934-10.855-1.248-14.055-2.514
			c8.41,5.648,21.66,6.455,33.633,8.541C124.819,150.606,116.337,152.731,110.356,151.151z M131.44,156.175c2.844,0,5.689,0,8.533,0
			c-2.039-1.477-5.203-1.826-8.533-2.01C131.44,154.835,131.44,155.507,131.44,156.175z"/>
		<path fill-rule="evenodd" clip-rule="evenodd" d="M49.114,54.7c0.559,0.947,0.705,2.309,2.008,2.512
			c0.621,1.625-1.625,0.385-1.004,2.008c4.369,0.15,3.629,5.41,6.023,7.535c-3.131-0.383-4.379-2.65-7.529-3.014
			c-0.486-1.992,1.453-1.559,2.51-2.008c-0.984-2.906-8.916-2.377-5.021-7.033C47.106,54.7,48.11,54.7,49.114,54.7z"/>
		<path fill-rule="evenodd" clip-rule="evenodd" d="M62.165,80.319c5.199,1.162,6.318,6.402,13.555,5.525
			c-0.207,1.213,0.916,1.094,0.502,2.514C71.478,85.737,64.257,85.595,62.165,80.319z"/>
		<path fill-rule="evenodd" clip-rule="evenodd" fill="#FFFFFF" d="M363.358,83.835c1.932-1.082,4.768-1.258,7.529-1.506
			c-2.223,2.295-5.484,3.553-7.529,6.029C362.204,87.972,365.188,84.897,363.358,83.835z"/>
		<path fill-rule="evenodd" clip-rule="evenodd" fill="#FFFFFF" d="M349.302,88.358c-4.148,0.355-6.004,1.488-9.035-0.504
			c-0.988,1.857-2.527,3.164-3.512,5.023c-1.979,0.805-0.176-2.17-1.508-2.008c-1.422,1.254-3.926,1.43-3.516,4.52
			c-1.865,0.027-1.984-1.695-4.516-1.004c2.146-1.844-1.812-4.299,1.004-6.027c-2.945-2.258-3.488,2.184-5.021,3.014
			c-0.646,1.988,1.652,1.025,1.006,3.014c-0.854-0.186-0.947,0.393-1.006,1.004c-1.922-1.406-0.76,0.123-3.514,0
			c0.227,3.123,1.23,5.467,3.514,6.531c0.256,2.035-3.014,0.852-3.012,0c-1.553,0.287-1.893,1.789-3.012,2.512
			c0.514,3.184,6.807,3.523,6.527-0.502c2.959,2.789-5.178,6.637-4.518,12.057c-0.086,1.088,1.777,0.227,2.508,0.502
			c3.82-4.803,5.057-10.979,8.535-15.072c-0.219-1.119-0.889-1.789-2.008-2.008c2.613-1.066,3.533-3.832,6.023-5.023
			c0.053,1.727,0.258,3.607-1.004,4.02c1.982,2.111,2.637-1.352,3.516-2.01c1.572,0.77,1.645,3.041,3.512,3.518
			c-0.615,5.242-5.059,6.658-5.02,12.557c-5.832,2.871-9.436,7.973-15.562,10.551c0.336-1.143,1.299-4.213-0.5-4.521
			c-3.488,0.191-2.402,4.965-3.012,8.037c-7.098,5.123-14.232,10.207-20.584,16.076c0.186-16.562,11.553-26.285,17.068-39.184
			c-0.094-0.408-0.504-0.502-0.5-1.006c-6.648,2.729-7.393,11.359-12.551,15.572c-4.105,8.617-7.625,17.826-9.537,28.635
			c-6.527,4.689-12.998,9.432-19.078,14.568c-0.561-3.98,2.318-9.562,4.018-14.568c1.738-5.119,3.109-10.598,6.023-14.064
			c1.361-4.832,2.688-9.703,6.025-12.561c-0.439-4.295,4.373-5.994,2.508-10.047c2.873-0.809,4.24-3.127,6.527-4.521
			c-0.506,1.512,1.119,0.891,2.006,1.006c0,0.836,0,1.674,0,2.51c1.855-0.988,3.162-2.529,5.023-3.516
			c0.271,0.73-0.59,2.598,0.5,2.514c5.434-5.445,10.848-10.912,14.559-18.086c-2.309-1.785-3.836,1.504-4.52,3.014
			c-2.961-2.041-4.621,1.525-8.533,0c-0.527,1.314-1.92,1.766-2.006,3.518c0.363,1.123,2.861,0.242,2.508-1.006
			c1.561,1.594-1.328,3-2.008,4.02c-1.33-0.848-4.762,0.41-5.021-1.508c-0.854,1.938-4.166,1.031-4.014-1.004
			c-3.055,0.293-1.178,5.521-4.016,6.027c-1.533,0.027-1.205-1.809-3.012-1.508c-0.469,0.537-1.852,0.158-1.508,1.508
			c-0.773,2.115,2.598,0.082,2.512,1.508c-0.182,1.828-2.021,1.996-2.512,3.518c-1.76-1.836-4.527-0.721-5.02,1.506
			c-2.293,0.254-2.846-0.871-4.52,0c-3.891,5.197-8.859,11.83-10.039,18.084c5.105-1.584,3.275-12.236,11.045-9.545
			c1.873,0.535,0.795-1.883,2.51-1.506c0.656,2.482,3.062-1.035,4.52-1.004c-7.047,13.041-11.887,28.293-18.074,42.197
			c0.393,3.238-0.744,4.945-0.5,8.035c-8.168,4.219-13.896,10.879-21.586,15.574c1.203-14.934,6.098-25.582,11.043-36.672
			c2.496-5.598,6.926-11.26,6.023-17.582c-6.395,4.484-6.611,15.154-12.047,20.598c-3.939,11.465-7.43,23.375-9.037,37.172
			c-1.324-0.152-1.295,1.051-1.506,2.012c-6.615,1.584-8.457,7.945-14.559,10.047c2.945-17.988,7.773-34.086,13.557-49.23
			c1.623-0.621,0.385,1.625,2.006,1.004c1.955-2.232,2.605-5.766,4.018-8.539c4.172,0.992,3.857-2.5,8.029-1.508
			c3.326-4.375,3.725-11.68,9.539-13.562c-0.301,1.305,0.203,1.807,1.508,1.506c3.754-5.115,8.299-9.443,9.535-17.08
			c-1.492,1.184-2.688,2.67-5.52,2.512c-0.488,2.693-3.164,3.199-4.016,5.525c-0.773-0.564-1.238-1.443-2.008-2.008
			c-0.961,1.885-3.059,2.635-4.016,4.52c-1.898,0.729-0.965-1.379-2.512-1.004c-1.926,1.924-3.223,4.477-5.02,6.531
			c-1.584,0.244-1.771-0.904-3.516-0.502c-2.422,5.947-7.145,9.594-8.029,17.08c0.111,0.723,1.498,0.174,1.506,1.002
			c0.402,1.744-0.75,1.934-0.504,3.518c-1.734,0.408-2.117-0.938-3.012,0c-8.449,14.82-12.016,34.529-15.559,54.254
			c-7.164,4.723-13.027,10.746-19.58,16.076c8.588-10.664,10.287-32.574,15.562-48.227c3.293-0.053,3.424-3.27,7.529-2.512
			c2.355-6.852,5.855-12.559,8.033-19.592c-0.67-0.963-2.229,0.578-3.516-0.502c-0.457-6.816,4.91-9.311,8.033-13.562
			c0.531-0.725,0.088-1.809,0.5-2.512c0.965-1.641,3.168-1.971,4.52-3.518c1.033-1.184,1.102-3.934,3.512-4.018
			c0.93-0.078,0.311-1.701,1.004-2.012c20.969-12.004,40.473-25.473,64.254-34.662c2.82-0.193,6.062,0.037,7.533-1.506
			c14.307-0.586,31.008,1.225,43.674-1.006c-4.152,11.42-12.725,18.412-22.09,24.617c0.764-6.27,5.824-8.238,6.527-14.57
			C348.067,92.815,349.583,91.483,349.302,88.358z M350.306,93.38c1.732-0.861,2.668-2.305,4.52-0.502
			c1.684-1.328,1.953-4.072,3.012-6.027c-0.836,0-1.674,0-2.512,0c0.73,2.402-2.098,1.248-3.512,1.508
			c-0.098,1.576-0.934,2.414-2.512,2.512C348.874,92.472,349.741,92.776,350.306,93.38z M279.024,106.442
			c1.547,0.375,0.613-1.732,2.512-1.006c-0.277-0.729,0.586-2.596-0.504-2.512C281.116,104.851,278.11,103.687,279.024,106.442z
			 M231.839,145.124c0.668,0,1.336,0,2.006,0c-0.365-1.143,0.906-3.92-1.004-3.516C232.647,142.921,231.231,143.011,231.839,145.124
			z"/>
		<path fill-rule="evenodd" clip-rule="evenodd" d="M34.054,36.112c0,0.168,0,0.336,0,0.502
			c28.381,4.391,54.768,2.787,76.805,10.551c19.289,6.795,41.229,19.818,51.705,36.168c8.625,13.461,16.309,27.754,17.066,49.734
			c0.168,4.816,0.074,10.23,0,15.572c-0.066,4.77-2.146,10.082-1.506,14.568c0.945,6.604,7.842,10.482,10.041,17.08
			c1.811-15.285,3.941-31.789,6.023-47.723c0.619-4.736-0.098-10.738,3.514-14.066c2.189,0.488,3.615,1.74,5.521,2.512
			c-2.598,31.896-7.924,65.412-12.047,97.457c1.578,1.945,4.539-3.062,6.525-4.02c7.5-9.41,10.154-27.848,14.057-41.695
			c6.52-23.137,17.254-41.105,33.129-55.762c9.404-4.738,19.375-11.725,30.121-17.582c10.461-5.703,20.887-12.375,31.125-16.578
			c16.059-6.596,45.645-0.094,64.254-4.02c5.133-1.082,8.301-4.43,13.551-4.02c0,1.844,0,3.686,0,5.527c-0.166,0-0.332,0-0.5,0
			c-0.996,3.947-3.16,8.031-5.021,11.555c-1.729,3.281-4.846,6.07-5.52,9.041c-0.494,2.172,0.234,4.182,0,6.029
			c-0.199,1.561-1.16,2.932-1.506,4.521c-2.508,11.479-6.461,20.678-11.547,31.146c-1.912,3.932-5.238,7.236-7.531,11.553
			c-2.129,4.014-3.125,8.697-5.02,12.559c-7.312,14.932-17.965,26.799-31.625,36.17c-17.445,11.971-39.289,22.096-68.771,21.1
			c-6.08-0.205-13.314-1.172-20.08-2.01c-5.994-0.742-13.633-2.965-19.578-1.506c-5.664,1.389-10.184,12.092-13.553,18.084
			c-1.232,2.191-2.422,4.805-3.014,7.031c-1.98,7.486-0.508,18.707-2.006,25.121c-3.012,0-6.025,0-9.037,0
			c-1.309-5.301-8.186-9.98-8.533-15.574c-0.279-4.512,4.35-11.482,5.521-17.582c2.803-14.57,2.779-34.094,0.504-48.73
			c-0.656-4.209-1.273-11.488-3.516-14.568c-4.875-6.697-27.637-4.072-40.66-5.021c-26.297-1.916-39.889-11.559-53.211-26.125
			c-13.635-14.9-25.062-33.352-32.629-53.75C41.69,74.765,41.747,52.907,30.54,43.146c0.324-2.188-0.654-5.68,0.502-7.033
			C32.046,36.112,33.05,36.112,34.054,36.112z M175.112,132.565c0.607-15.146-5.262-25.465-10.541-35.166
			c-5.596-10.281-8.121-15.215-15.059-22.104c-6.805-6.754-15.902-11.229-25.102-16.076c-16.234-8.555-27.77-12.525-49.695-13.562
			c-11.424-0.541-23.646-3.26-33.635-2.512c2.121,1.061,3.262,3.1,5.521,4.02c-0.152-1.326,1.051-1.297,2.01-1.508
			c0.611,2.232,1.258,4.434,3.012,5.525c2.373,0.367,1.633-2.383,3.514-2.512c0.688,2.494,2.387,3.973,2.51,7.033
			c7.072,4.143,12.461,9.969,19.576,14.066c-1.949-8.432-6.551-14.209-9.035-22.104c5.133-2.207,4.52,5.465,7.531,7.033
			c1.627,5.703,6.094,11.078,4.016,17.582c7.389,5.33,12.936,12.506,22.086,16.076c-0.203,1.209,0.918,1.09,0.504,2.512
			c5.496,1.195,6.844,6.547,12.047,8.037c-0.73-4.215-2.363-8.152-3.514-12.057c-2.592-8.805-5.957-17.174-11.045-23.611
			c0.285,4.439,0.217,3.381,1.006,6.531c-1.42,0.414-1.301-0.709-2.512-0.502c0.404-6.938-5.375-10.357-4.518-16.076
			c1.859,0.986,2.293,3.398,3.516,5.023c1.945-0.562,2.578-2.441,4.014-3.516c0.412,1.264,2.291,1.057,4.018,1.004
			c2.359,5.676,4.885,11.186,6.525,17.584c-0.729,0.273-2.594-0.588-2.51,0.502c4.477,8.254,8.186,19.926,9.035,30.141
			c5.395,3.811,9.088,9.324,15.061,12.559c-0.924-14.314-3.875-26.6-8.031-37.678c0.848-0.992,2.205-1.477,2.51-3.014
			c-2.082-4.951-4.344-9.719-7.029-14.064c3.98,0.238,4.016,4.039,8.031,3.014c2.564,8.82,5.162,17.609,8.535,25.619
			c-4.65,0.469-2.51-5.861-5.521-7.033c1.141,11.252,5.234,23.898,5.02,38.18c5.811,3.061,8.27,9.473,15.059,11.555
			c-0.926-13.979-4.803-24.998-7.027-37.678c-1.547-0.375-0.611,1.732-2.51,1.006c-2.301-6.574-5.814-14.609-6.525-21.1
			c3.59,3.773,2.938,11.797,7.027,15.07c1.5-5.418-4.322-8.645-1.506-12.057c2.117-0.779-0.109,2.789,2.008,2.01
			c0.773-0.566,1.236-1.441,2.008-2.01c-0.74,2.248,1.471,1.543,1.006,3.518c-1.975,0.465-1.268-1.748-3.516-1.004
			c-0.047,2.223,0.637,3.715,2.008,4.52c0.537,1.297,0.348-2.271,2.51-1.004c0.27,17.848,8.938,33.408,7.529,54.756
			c7.488,5.736,12.379,14.072,18.574,21.1C175.118,150.204,174.771,141.081,175.112,132.565z M89.774,108.952
			c5.191,1.004,11.021,1.365,14.559,4.02c-1.602-0.428-1.906,0.439-2.512,1.006c-11.945-3.619-23.273-7.855-32.125-14.568
			c-2.619,0.273-3.949-0.738-4.52-2.512c-1.809,0.137-3.473,0.125-3.012-2.01c-0.359-1.363,2.367,0.361,2.008-1.006
			c-1.963-0.043-3.402-0.613-3.012-3.012c9.369-0.611,18.666,6.688,28.111,8.539c3.631,0.711,5.525,1.629,7.529,2.008
			c4.955,0.939,10.75-0.426,15.061,1.508c-5.271-4.975-12.996-11.129-19.076-15.572c-1.188-0.867-2.99-1.199-4.016-2.01
			c-1.525-1.203-1.889-3.463-3.514-4.52c-2.791-1.818-6.723-0.41-9.035-3.016c1.17,0,2.342,0,3.514,0
			C68.2,65.405,52.091,57.581,39.575,46.159c6.701,12.711,7.068,29.078,13.051,43.203c4.252,10.027,8.107,19.262,13.053,28.131
			c0.594,0.244,1.139,0.537,1.506,1.006c0.594,2.418,2.551,3.477,3.014,6.027c2.172,1.174,4.061,2.635,4.518,5.527
			c7.771,8.297,14.771,17.367,24.598,23.609c1.92,0.248,1.602-1.744,4.016-1.004c11.426,5.719,25.361,4.033,37.146,8.039
			c-12.479,0.598-24.736-3.377-37.146-4.523c9.824,7.373,26.947,6.072,40.66,8.539c6.416-0.041,17.098-1.535,26.104-2.008
			c-6.248-5.805-10.432-13.672-17.568-18.588c-7.908,4.873-24.48,0.102-31.627,3.518c4.014,0.504,8.709,0.326,11.045,2.512
			c-9.102,1.162-18.254-2.73-24.098-1.508c-3.943-2.918-10.797-2.926-15.561-5.023c-0.975-4.217-5.721-4.656-9.035-6.531
			c0.01-1.496-0.047-3.059,1.506-3.012c4.559,2.471,9.883,4.176,15.059,6.027c0.049-0.789-0.066-1.742,1.006-1.508
			c0.127-1.969-2.412-1.271-2.512-3.016c-6.164-0.527-11.439-1.947-15.059-5.021c-2.377-0.135-5.023,0.002-5.02-2.514
			c3.301,0.383,6.451,0.912,7.529,3.518c4.334-0.713,7.945,2.59,12.049,3.516c4.732,1.07,10.562-0.846,13.051,3.518
			c-4.105,0.758-5.426-1.27-9.037-1.004c0.727,1.898-1.379,0.963-1.002,2.512c15.775,3.867,34.412,3.338,51.201,1.004
			c-4.865-2.945-6.535-11.174-13.051-12.559c-1.879-0.398-3.559,0.387-5.521,0.502c-7.928,0.471-17.49,0.664-26.104-1.508
			c-6.842-1.725-11.135-4.236-17.57-5.021c-3.426-3.938-10.979-3.75-14.055-8.039c-4.125-0.227-7.371-1.332-7.531-5.527
			c10.109,1.062,18.092,7.953,28.111,11.555c11.924,4.289,24.209,5.4,39.154,5.025c0.984-2.951-4.83-3.111-5.018-6.531
			c-4.672-0.852-4.654-6.395-9.539-7.033c-3.057-8.857-15.525-4.305-25.1-6.531c-2.494-0.578-5.215-2.805-8.031-3.516
			c-1.725-0.436-3.998,0.141-5.521-0.504c-0.727-0.305-0.764-1.768-1.506-2.008c-2.074-0.672-4.115,0.168-6.023-0.502
			c-0.691-0.244-0.979-1.73-1.506-2.01c-2.111-1.117-4.307-0.055-6.025-1.508C72.192,102.437,82.956,103.722,89.774,108.952z
			 M357.837,96.897c3.793-0.557,7.268-1.434,10.543-2.512c1.031,0.475,1.037,1.977,2.508,2.01c3.469-2.758,7.33-10.373,6.023-14.568
			C371.175,87.472,363.247,90.927,357.837,96.897z M363.358,88.358c2.045-2.477,5.307-3.734,7.529-6.029
			c-2.762,0.248-5.598,0.424-7.529,1.506C365.188,84.897,362.204,87.972,363.358,88.358z M345.79,93.38
			c-0.703,6.332-5.764,8.301-6.527,14.57c9.365-6.205,17.938-13.197,22.09-24.617c-12.666,2.23-29.367,0.42-43.674,1.006
			c-1.471,1.543-4.713,1.312-7.533,1.506c-23.781,9.189-43.285,22.658-64.254,34.662c-0.693,0.311-0.074,1.934-1.004,2.012
			c-2.41,0.084-2.479,2.834-3.512,4.018c-1.352,1.547-3.555,1.877-4.52,3.518c-0.412,0.703,0.031,1.787-0.5,2.512
			c-3.123,4.252-8.49,6.746-8.033,13.562c1.287,1.08,2.846-0.461,3.516,0.502c-2.178,7.033-5.678,12.74-8.033,19.592
			c-4.105-0.758-4.236,2.459-7.529,2.512c-5.275,15.652-6.975,37.562-15.562,48.227c6.553-5.33,12.416-11.354,19.58-16.076
			c3.543-19.725,7.109-39.434,15.559-54.254c0.895-0.938,1.277,0.408,3.012,0c-0.246-1.584,0.906-1.773,0.504-3.518
			c-0.008-0.828-1.395-0.279-1.506-1.002c0.885-7.486,5.607-11.133,8.029-17.08c1.744-0.402,1.932,0.746,3.516,0.502
			c1.797-2.055,3.094-4.607,5.02-6.531c1.547-0.375,0.613,1.732,2.512,1.004c0.957-1.885,3.055-2.635,4.016-4.52
			c0.77,0.564,1.234,1.443,2.008,2.008c0.852-2.326,3.527-2.832,4.016-5.525c2.832,0.158,4.027-1.328,5.52-2.512
			c-1.236,7.637-5.781,11.965-9.535,17.08c-1.305,0.301-1.809-0.201-1.508-1.506c-5.814,1.883-6.213,9.188-9.539,13.562
			c-4.172-0.992-3.857,2.5-8.029,1.508c-1.412,2.773-2.062,6.307-4.018,8.539c-1.621,0.621-0.383-1.625-2.006-1.004
			c-5.783,15.145-10.611,31.242-13.557,49.23c6.102-2.102,7.943-8.463,14.559-10.047c0.211-0.961,0.182-2.164,1.506-2.012
			c1.607-13.797,5.098-25.707,9.037-37.172c5.436-5.443,5.652-16.113,12.047-20.598c0.902,6.322-3.527,11.984-6.023,17.582
			c-4.945,11.09-9.84,21.738-11.043,36.672c7.689-4.695,13.418-11.355,21.586-15.574c-0.244-3.09,0.893-4.797,0.5-8.035
			c6.188-13.904,11.027-29.156,18.074-42.197c-1.457-0.031-3.863,3.486-4.52,1.004c-1.715-0.377-0.637,2.041-2.51,1.506
			c-7.77-2.691-5.939,7.961-11.045,9.545c1.18-6.254,6.148-12.887,10.039-18.084c1.674-0.871,2.227,0.254,4.52,0
			c0.492-2.227,3.26-3.342,5.02-1.506c0.49-1.521,2.33-1.689,2.512-3.518c0.086-1.426-3.285,0.607-2.512-1.508
			c-0.344-1.35,1.039-0.971,1.508-1.508c1.807-0.301,1.479,1.535,3.012,1.508c2.838-0.506,0.961-5.734,4.016-6.027
			c-0.152,2.035,3.16,2.941,4.014,1.004c0.26,1.918,3.691,0.66,5.021,1.508c0.68-1.02,3.568-2.426,2.008-4.02
			c0.354,1.248-2.145,2.129-2.508,1.006c0.086-1.752,1.479-2.203,2.006-3.518c3.912,1.525,5.572-2.041,8.533,0
			c0.684-1.51,2.211-4.799,4.52-3.014c-3.711,7.174-9.125,12.641-14.559,18.086c-1.09,0.084-0.229-1.783-0.5-2.514
			c-1.861,0.986-3.168,2.527-5.023,3.516c0-0.836,0-1.674,0-2.51c-0.887-0.115-2.512,0.506-2.006-1.006
			c-2.287,1.395-3.654,3.713-6.527,4.521c1.865,4.053-2.947,5.752-2.508,10.047c-3.338,2.857-4.664,7.729-6.025,12.561
			c-2.914,3.467-4.285,8.945-6.023,14.064c-1.699,5.006-4.578,10.588-4.018,14.568c6.08-5.137,12.551-9.879,19.078-14.568
			c1.912-10.809,5.432-20.018,9.537-28.635c5.158-4.213,5.902-12.844,12.551-15.572c-0.004,0.504,0.406,0.598,0.5,1.006
			c-5.516,12.898-16.883,22.621-17.068,39.184c6.352-5.869,13.486-10.953,20.584-16.076c0.609-3.072-0.477-7.846,3.012-8.037
			c1.799,0.309,0.836,3.379,0.5,4.521c6.127-2.578,9.73-7.68,15.562-10.551c-0.039-5.898,4.404-7.314,5.02-12.557
			c-1.867-0.477-1.939-2.748-3.512-3.518c-0.879,0.658-1.533,4.121-3.516,2.01c1.262-0.412,1.057-2.293,1.004-4.02
			c-2.49,1.191-3.41,3.957-6.023,5.023c1.119,0.219,1.789,0.889,2.008,2.008c-3.479,4.094-4.715,10.27-8.535,15.072
			c-0.73-0.275-2.594,0.586-2.508-0.502c-0.66-5.42,7.477-9.268,4.518-12.057c0.279,4.025-6.014,3.686-6.527,0.502
			c1.119-0.723,1.459-2.225,3.012-2.512c-0.002,0.852,3.268,2.035,3.012,0c-2.283-1.064-3.287-3.408-3.514-6.531
			c2.754,0.123,1.592-1.406,3.514,0c0.059-0.611,0.152-1.189,1.006-1.004c0.646-1.988-1.652-1.025-1.006-3.014
			c1.533-0.83,2.076-5.271,5.021-3.014c-2.816,1.729,1.143,4.184-1.004,6.027c2.531-0.691,2.65,1.031,4.516,1.004
			c-0.41-3.09,2.094-3.266,3.516-4.52c1.332-0.162-0.471,2.812,1.508,2.008c0.984-1.859,2.523-3.166,3.512-5.023
			c3.031,1.992,4.887,0.859,9.035,0.504C349.583,91.483,348.067,92.815,345.79,93.38z M340.771,97.901c0.668,0,1.336,0,2.008,0
			c-0.197-2.371,1.326-3.025,1.504-5.023C342.476,93.915,340.565,94.853,340.771,97.901z M206.737,215.954
			c0.256,1.24,1.664-0.27,3.516-0.502c3.549-0.445,9.053,0.467,11.041,0c0.971-2.715,5.414-1.949,9.039-2.008
			c0.814,1.645-0.113,1.922,0,4.02c12.008,1.504,23.652,2.582,34.635,1.004c14.389-2.07,24.082-6.504,34.639-12.055
			c23.84-12.547,41.955-30.584,49.695-57.27c8.902-11.02,15.357-24.488,18.074-41.695c0.309-1.363,2.098-1.252,2.006-3.016
			c-0.615-3.246-0.385-4.865,0.504-7.535c-5.158,1.033-10.361,2.023-14.057,4.52c-0.791-0.045-0.393-1.279-1.506-1.004
			c-5.174,3.863-9.549,8.529-14.557,12.559c1.727-0.389,2.395,0.281,2.006,2.012c-0.961,1.4-4.559,2.211-6.525,1.004
			c-6.215,5.336-13.242,9.855-19.578,15.07c9.182-0.27,18.949-5.039,27.109-3.016c-5.061,5.49-16.688,4.402-24.098,7.535
			c-2.582-1.387-5.582,0.641-9.035,0c-7.656,6.406-16.283,11.84-23.594,18.588c10.344,0.303,18.75-1.328,27.609-2.512
			c0.197-1.531-1.32-2.557,0.502-3.014c0.67,0,1.338,0,2.01,0c0.027,1.98,2.141,3.691,3.512,1.508
			c-0.992-1.182-2.346-2.006-2.51-4.02c0.986,0.15,0.996-0.678,1.506-1.004c1.143,0.363,0.148,2.863,2.01,2.512
			c0.668-1.676,4.693,0.008,5.018-2.01c-0.406-1.436-2.441-1.238-3.512-2.01c-1.752-7.055,10.992-3.654,14.559-7.033
			c-0.586-3.432,1.879-3.811,5.018-3.516c0.115,0.889-0.504,2.516,1.006,2.008c1.477-0.383,4.293-2.033,6.023-0.502
			c-0.199,2.816-4.836,1.191-6.023,3.016c-0.555,2.561,4.566-0.553,4.016,2.008c-4.551,2.449-7.586,2.764-12.551,3.016
			c-0.223-0.951,0.684-3.027-1.004-2.512c-0.211,2.414-0.184-0.6-1.508,0c0.783,1.785-1.703,0.303-1.504,1.508
			c0.383,0.789,1.594,0.75,1.504,2.008c-0.871,0.465-2.691-0.016-2.508,1.508c3.145-0.371,5.436-1.594,9.035-1.508
			c0.27,1.777-0.811,2.201-1.504,3.014c3.412,0.309,7.785-5,10.039-1.004c-8.539,6.799-23.02,7.201-36.145,9.545
			c-8.918,1.592-18.758,3.379-29.113,2.01c-5.316,4.729-11.559,8.529-16.568,13.562c12.709,0.307,19.758,1.42,31.125,0.504
			c1.01-4.182,4.564-5.812,8.029-7.535c1.287,2.307,3.262-1.451,5.023,1.002c0.484-0.85,1.385-1.289,3.012-1.002
			c0.465-1.975-1.746-1.268-1.006-3.518c1.178-0.16,1.885-0.795,3.516-0.502c0.271-0.729-0.588-2.598,0.502-2.512
			c5.379-3.158,14.367-2.703,20.078-5.527c-0.781,1.787,1.707,0.305,1.508,1.508c-1.99,0.189-1.018,3.336-2.012,4.521
			c-7.004,2.699-15.166,1.189-21.582,4.52c-0.158,2.002,2.914,0.766,3.512,2.012c-0.471,1.203-2.051,1.297-3.012,2.008
			c4.316-0.703,10.17,0.133,13.555-1.508c0.074,1.248-0.258,2.086-1.006,2.514c-1.986,0.646-1.021-1.654-3.012-1.006
			c0.189,1.531-1.822,0.854-2.006,2.012c-8.945-0.41-17.928,1.818-23.594,3.014c12.398,0.135,23.93-1.537,33.633-4.02
			c2.08-0.533,5.773-3.213,7.027,0c-4.361,4.676-14.789,3.283-19.578,7.535c-0.967-0.201-0.043-2.299-2.008-1.506
			c-2.207,3.559-9.84,1.506-12.047,5.021c5.492-1.154,11.414-1.664,14.559-1.506c0.932,2.273-1.805,0.873-2.01,2.01
			c2.186,0.322,5.674-0.656,7.029,0.502c-2.059,1.83-6.309,3.234-8.535,2.008c-9.346,3.691-18.977,4.445-28.611,5.025
			c1.893-3.467,8.252-2.459,13.049-3.014c0.73-1.785,4.295-0.73,6.527-1.006c1.938-2.584,8.812-0.223,10.039-3.516
			c-8.967,0.252-19.852,3.891-28.109,1.506c0.838-1.172,4.32,0.309,4.014-2.01c-2.174-0.369-3.107,1.137-4.014-0.502
			c-0.65-1.988,1.652-1.023,1.002-3.014c-11.182,0.025-19.482,0.158-28.611-1.506c-6.051,5.5-13.16,9.938-19.078,15.57
			c14.98-0.248,31.025,0.572,44.176-1.504c11.832,1.375,27.336-4.742,39.656-4.523c-3.016,4.574-10.793,4.537-17.066,5.527
			c-7.785,1.225-16.551,2.289-23.09,3.516c5.561,1.148,13.518-1.711,19.074-0.504c-3.836,2.359-11.598,0.785-15.061,3.52
			c4.443,1.016,9.9-2.043,12.551,0.5c-7.627,2.25-20.322,2.102-28.111,2.514c-0.043-2.389,3.227-1.459,4.016-3.014
			c1.209-0.303-1.496-0.777-0.502-2.516c0.834-0.059,4.547,0.277,3.012-0.5c-14.783-0.398-28.557,1.188-42.668,0
			c-4.348,3.188-8.777,6.287-12.551,10.047c16.252,3.285,40.709,4.75,58.23,3.014c1.943-0.193,5.287,0.041,6.023-2.51
			c-10.195,0.648-19.889,0.758-29.615,1.504c-0.008-0.66-0.879-0.459-1.006-1.004c4.146-5.262,13.854,0.355,20.58-3.016
			c7.539,3.256,18.453-3.883,26.105-0.5c-4.486,1.371-10.416,1.297-13.555,4.02c2.354,0.324,6.012-0.656,7.531,0.5
			c-1.656,2.695-7.68,1.023-9.537,3.52c-23.291,1.641-49.734,2.059-68.271-3.016C216.579,208.056,211.954,212.304,206.737,215.954z
			 M275.009,116.489c1.324,0.152,1.293-1.049,1.504-2.01c-0.5,0-1,0-1.504,0C275.009,115.149,275.009,115.819,275.009,116.489z
			 M245.392,132.565c1.617-0.111,2.125,0.887,4.016,0.502c0.32-3.002-0.822-4.537-2.51-5.527
			C246.101,128.921,244.845,129.841,245.392,132.565z M242.88,136.081c1.199,0.477,1.488,1.859,3.516,1.508
			c0.523-1.424,0.523-2.094,0-3.516C244.261,133.778,243.206,134.563,242.88,136.081z M329.224,148.64
			c1.988-0.355,4.65-0.035,5.02-2.01C332.017,146.745,330.188,147.261,329.224,148.64z M221.798,156.175
			c1.148-1.697,2.941-2.75,3.514-5.023C222.181,150.864,221.901,153.433,221.798,156.175z M218.282,164.714
			c0.279-1.898,2.379-1.973,2.012-4.52C218.989,160.753,217.575,163.808,218.282,164.714z M307.134,166.222
			c0.396,2.219,4.92,0.82,5.023-0.504C310.216,165.622,308.456,165.702,307.134,166.222z M297.095,175.769
			c1.922,0.078,3.98,0.297,4.016-1.51C299.372,174.358,297.253,174.083,297.095,175.769z M294.083,178.782
			c1.26-0.416,4.324,0.975,4.016-1.006C297.349,176.415,293.573,178.882,294.083,178.782z M184.147,203.397
			c4.537-8.094,2.52-19.355-3.012-24.615c-0.334,0-0.67,0-1.002,0C182.187,186.271,181.663,196.339,184.147,203.397z
			 M181.136,231.528c-0.633,1.654,0.42,5.93,0,9.045c1.818-0.695,1.312-3.713,1.506-6.031c6.719-3.324,11.877-8.207,16.064-14.064
			c-1.363,0.357,0.359-2.369-1.004-2.01C192.694,223.085,186.282,228.69,181.136,231.528z M182.642,260.163
			c2.781,1.035-2.426,5.98,1.006,7.535c1.807-2.211,2-6.035,2.51-9.545C184.022,257.86,182.966,258.646,182.642,260.163z"/>
		<path fill-rule="evenodd" clip-rule="evenodd" d="M58.651,85.343c3.979-2.574,8.646,2.684,11.045,5.023
			C65.903,88.804,62.335,87.015,58.651,85.343z"/>
		<path fill-rule="evenodd" clip-rule="evenodd" fill="#FFFFFF" d="M221.798,204.401c18.537,5.074,44.98,4.656,68.271,3.016
			c1.857-2.496,7.881-0.824,9.537-3.52c-1.52-1.156-5.178-0.176-7.531-0.5c3.139-2.723,9.068-2.648,13.555-4.02
			c-7.652-3.383-18.566,3.756-26.105,0.5c-6.727,3.371-16.434-2.246-20.58,3.016c0.127,0.545,0.998,0.344,1.006,1.004
			c9.727-0.746,19.42-0.855,29.615-1.504c-0.736,2.551-4.08,2.316-6.023,2.51c-17.521,1.736-41.979,0.271-58.23-3.014
			c3.773-3.76,8.203-6.859,12.551-10.047c14.111,1.188,27.885-0.398,42.668,0c1.535,0.777-2.178,0.441-3.012,0.5
			c-0.994,1.738,1.711,2.213,0.502,2.516c-0.789,1.555-4.059,0.625-4.016,3.014c7.789-0.412,20.484-0.264,28.111-2.514
			c-2.65-2.543-8.107,0.516-12.551-0.5c3.463-2.734,11.225-1.16,15.061-3.52c-5.557-1.207-13.514,1.652-19.074,0.504
			c6.539-1.227,15.305-2.291,23.09-3.516c6.273-0.99,14.051-0.953,17.066-5.527c-12.32-0.219-27.824,5.898-39.656,4.523
			c-13.15,2.076-29.195,1.256-44.176,1.504c5.918-5.633,13.027-10.07,19.078-15.57c9.129,1.664,17.43,1.531,28.611,1.506
			c0.65,1.99-1.652,1.025-1.002,3.014c0.906,1.639,1.84,0.133,4.014,0.502c0.307,2.318-3.176,0.838-4.014,2.01
			c8.258,2.385,19.143-1.254,28.109-1.506c-1.227,3.293-8.102,0.932-10.039,3.516c-2.232,0.275-5.797-0.779-6.527,1.006
			c-4.797,0.555-11.156-0.453-13.049,3.014c9.635-0.58,19.266-1.334,28.611-5.025c2.227,1.227,6.477-0.178,8.535-2.008
			c-1.355-1.158-4.844-0.18-7.029-0.502c0.205-1.137,2.941,0.264,2.01-2.01c-3.145-0.158-9.066,0.352-14.559,1.506
			c2.207-3.516,9.84-1.463,12.047-5.021c1.965-0.793,1.041,1.305,2.008,1.506c4.789-4.252,15.217-2.859,19.578-7.535
			c-1.254-3.213-4.947-0.533-7.027,0c-9.703,2.482-21.234,4.154-33.633,4.02c5.666-1.195,14.648-3.424,23.594-3.014
			c0.184-1.158,2.195-0.48,2.006-2.012c1.99-0.648,1.025,1.652,3.012,1.006c0.748-0.428,1.08-1.266,1.006-2.514
			c-3.385,1.641-9.238,0.805-13.555,1.508c0.961-0.711,2.541-0.805,3.012-2.008c-0.598-1.246-3.67-0.01-3.512-2.012
			c6.416-3.33,14.578-1.82,21.582-4.52c0.994-1.186,0.021-4.332,2.012-4.521c0.199-1.203-2.289,0.279-1.508-1.508
			c-5.711,2.824-14.699,2.369-20.078,5.527c-1.09-0.086-0.23,1.783-0.502,2.512c-1.631-0.293-2.338,0.342-3.516,0.502
			c-0.74,2.25,1.471,1.543,1.006,3.518c-1.627-0.287-2.527,0.152-3.012,1.002c-1.762-2.453-3.736,1.305-5.023-1.002
			c-3.465,1.723-7.02,3.354-8.029,7.535c-11.367,0.916-18.416-0.197-31.125-0.504c5.01-5.033,11.252-8.834,16.568-13.562
			c10.355,1.369,20.195-0.418,29.113-2.01c13.125-2.344,27.605-2.746,36.145-9.545c-2.254-3.996-6.627,1.312-10.039,1.004
			c0.693-0.812,1.773-1.236,1.504-3.014c-3.6-0.086-5.891,1.137-9.035,1.508c-0.184-1.523,1.637-1.043,2.508-1.508
			c0.09-1.258-1.121-1.219-1.504-2.008c-0.199-1.205,2.287,0.277,1.504-1.508c1.324-0.6,1.297,2.414,1.508,0
			c1.688-0.516,0.781,1.561,1.004,2.512c4.965-0.252,8-0.566,12.551-3.016c0.551-2.561-4.57,0.553-4.016-2.008
			c1.188-1.824,5.824-0.199,6.023-3.016c-1.73-1.531-4.547,0.119-6.023,0.502c-1.51,0.508-0.891-1.119-1.006-2.008
			c-3.139-0.295-5.604,0.084-5.018,3.516c-3.566,3.379-16.311-0.021-14.559,7.033c1.07,0.771,3.105,0.574,3.512,2.01
			c-0.324,2.018-4.35,0.334-5.018,2.01c-1.861,0.352-0.867-2.148-2.01-2.512c-0.51,0.326-0.52,1.154-1.506,1.004
			c0.164,2.014,1.518,2.838,2.51,4.02c-1.371,2.184-3.484,0.473-3.512-1.508c-0.672,0-1.34,0-2.01,0
			c-1.822,0.457-0.305,1.482-0.502,3.014c-8.859,1.184-17.266,2.814-27.609,2.512c7.311-6.748,15.938-12.182,23.594-18.588
			c3.453,0.641,6.453-1.387,9.035,0c7.41-3.133,19.037-2.045,24.098-7.535c-8.16-2.023-17.928,2.746-27.109,3.016
			c6.336-5.215,13.363-9.734,19.578-15.07c1.967,1.207,5.564,0.396,6.525-1.004c0.389-1.73-0.279-2.4-2.006-2.012
			c5.008-4.029,9.383-8.695,14.557-12.559c1.113-0.275,0.715,0.959,1.506,1.004c3.695-2.496,8.898-3.486,14.057-4.52
			c-0.889,2.67-1.119,4.289-0.504,7.535c0.092,1.764-1.697,1.652-2.006,3.016c-2.717,17.207-9.172,30.676-18.074,41.695
			c-7.74,26.686-25.855,44.723-49.695,57.27c-10.557,5.551-20.25,9.984-34.639,12.055c-10.982,1.578-22.627,0.5-34.635-1.004
			c-0.113-2.098,0.814-2.375,0-4.02c-3.625,0.059-8.068-0.707-9.039,2.008c-1.988,0.467-7.492-0.445-11.041,0
			c-1.852,0.232-3.26,1.742-3.516,0.502C211.954,212.304,216.579,208.056,221.798,204.401z M345.288,119.001
			c4.436-0.918,10.006-0.703,11.545-4.521C351.769,114.771,346.284,114.642,345.288,119.001z M336.755,123.021
			c0,0.836,0,1.674,0,2.512c6.609-0.588,11.697-2.693,16.562-5.025c2.834,0.158,4.98-0.375,5.523-2.512
			C351.075,117.579,344.954,122.288,336.755,123.021z M356.329,112.972c1.012-1.865-0.506-3.156,0.504-5.021
			c3.254-0.428,6.924-0.439,8.031-3.016c-4.23-2.049-6.533,2.162-10.541,2.01c-0.018,1.824,0.281,3.965-1.006,4.521
			c-3.055-0.381-4.551,0.803-7.527,0.502c0,0.838,0,1.674,0,2.512C350.749,115.425,352.122,112.78,356.329,112.972z
			 M346.794,128.042c4.664-0.018,6.957-2.414,11.043-3.012c0-0.838,0-1.676,0-2.512
			C353.478,123.681,348.372,124.101,346.794,128.042z M241.376,212.942c-3.52,0.188-7.035-2.684-8.535,1.006
			c5.543,3.77,14.373,0.141,21.086,3.012c2.535-1.055,5.621-0.398,10.039-1.508c-1.527-0.621-5.34-2.123-6.527,0
			c-1.562-4.129-11.574,0.197-13.553-3.516c7.439-0.154,14.256,0.09,18.07,1.006c3.129-2.307,6.568-0.018,8.533,0
			c0.73-1.783,4.293-0.729,6.527-1.006c0.824-2.691,7.984,0.957,8.031-2.512c-8.074,0.629-18.684-1.281-25.098,1.004
			c-5.09-0.922-7.723-0.73-18.074-1.004C241.577,210.468,242.497,212.726,241.376,212.942z"/>
		<path fill-rule="evenodd" clip-rule="evenodd" d="M68.69,117.493c5.213-0.361,7.965,1.744,9.539,5.025
			c2.395-0.389,3.23,0.785,5.521,0.502c5.764,5.451,16.811,5.615,24.598,9.041c-3.424,2.346-8.285-2.371-13.555-1.506
			c-0.266-0.404-0.523-0.816-0.5-1.508c-7.232,0.205-9.855-4.205-15.562-5.525C76.681,120.216,69.896,121.646,68.69,117.493z"/>
		<path fill-rule="evenodd" clip-rule="evenodd" fill="#FFFFFF" d="M220.294,160.194c0.367,2.547-1.732,2.621-2.012,4.52
			C217.575,163.808,218.989,160.753,220.294,160.194z"/>
		<path fill-rule="evenodd" clip-rule="evenodd" d="M108.349,56.71c2.352,0.16,4.52,0.5,6.023,1.506
			c-0.74,2.918,1.004,3.35,1.506,5.023c1.898-1.74,1.971-0.041,4.518,0c-0.42,5.275,4.059,5.65,3.514,11.053
			c-4.418-1.105-3.6-7.449-6.525-10.047c-1.803,1.836,1.277,3.049,1.004,5.023c-0.502,0-1.004,0-1.506,0
			c-1.445-1.066-2.475-2.549-5.02-2.514C111.255,62.843,108.382,61.198,108.349,56.71z"/>
		<path fill-rule="evenodd" clip-rule="evenodd" fill="#FFFFFF" d="M173.606,160.194c-6.195-7.027-11.086-15.363-18.574-21.1
			c1.408-21.348-7.26-36.908-7.529-54.756c-2.162-1.268-1.973,2.301-2.51,1.004c-1.371-0.805-2.055-2.297-2.008-4.52
			c2.248-0.744,1.541,1.469,3.516,1.004c0.465-1.975-1.746-1.27-1.006-3.518c-0.771,0.568-1.234,1.443-2.008,2.01
			c-2.117,0.779,0.109-2.789-2.008-2.01c-2.816,3.412,3.006,6.639,1.506,12.057c-4.09-3.273-3.438-11.297-7.027-15.07
			c0.711,6.49,4.225,14.525,6.525,21.1c1.898,0.727,0.963-1.381,2.51-1.006c2.225,12.68,6.102,23.699,7.027,37.678
			c-6.789-2.082-9.248-8.494-15.059-11.555c0.215-14.281-3.879-26.928-5.02-38.18c3.012,1.172,0.871,7.502,5.521,7.033
			c-3.373-8.01-5.971-16.799-8.535-25.619c-4.016,1.025-4.051-2.775-8.031-3.014c2.686,4.346,4.947,9.113,7.029,14.064
			c-0.305,1.537-1.662,2.021-2.51,3.014c4.156,11.078,7.107,23.363,8.031,37.678c-5.973-3.234-9.666-8.748-15.061-12.559
			c-0.85-10.215-4.559-21.887-9.035-30.141c-0.084-1.09,1.781-0.229,2.51-0.502c-1.641-6.398-4.166-11.908-6.525-17.584
			c-1.727,0.053-3.605,0.26-4.018-1.004c-1.436,1.074-2.068,2.953-4.014,3.516c-1.223-1.625-1.656-4.037-3.516-5.023
			c-0.857,5.719,4.922,9.139,4.518,16.076c1.211-0.207,1.092,0.916,2.512,0.502c-0.789-3.15-0.721-2.092-1.006-6.531
			c5.088,6.438,8.453,14.807,11.045,23.611c1.15,3.904,2.783,7.842,3.514,12.057c-5.203-1.49-6.551-6.842-12.047-8.037
			c0.414-1.422-0.707-1.303-0.504-2.512c-9.15-3.57-14.697-10.746-22.086-16.076c2.078-6.504-2.389-11.879-4.016-17.582
			c-3.012-1.568-2.398-9.24-7.531-7.033c2.484,7.895,7.086,13.672,9.035,22.104c-7.115-4.098-12.504-9.924-19.576-14.066
			c-0.123-3.061-1.822-4.539-2.51-7.033c-1.881,0.129-1.141,2.879-3.514,2.512c-1.754-1.092-2.4-3.293-3.012-5.525
			c-0.959,0.211-2.162,0.182-2.01,1.508c-2.26-0.92-3.4-2.959-5.521-4.02c9.988-0.748,22.211,1.971,33.635,2.512
			c21.926,1.037,33.461,5.008,49.695,13.562c9.199,4.848,18.297,9.322,25.102,16.076c6.938,6.889,9.463,11.822,15.059,22.104
			c5.279,9.701,11.148,20.02,10.541,35.166C174.771,141.081,175.118,150.204,173.606,160.194z M62.165,48.169
			c1.342-0.002,1.09,1.588,2.51,1.506c0.467-1.973-1.746-1.266-1.002-3.516c-0.984,0.25-3.205-1.096-2.01,0
			C62.407,46.253,62.124,47.374,62.165,48.169z M56.644,49.675c1.121-0.219,1.791-0.887,2.008-2.008
			c-0.863-0.475-0.822-1.857-2.51-1.508C55.851,47.79,56.483,48.495,56.644,49.675z M76.222,51.183c0-0.836,0-1.674,0-2.512
			c-0.502,0-1.004,0-1.506,0C74.319,50.405,75.185,50.882,76.222,51.183z M84.755,66.755c1.898,0.729,0.963-1.379,2.51-1.002
			c-1.146-1.197-1.131-3.559-1.004-6.031c-3.316-1.369-2.139-7.236-6.525-7.535C80.794,57.659,83.987,60.993,84.755,66.755z
			 M86.261,59.22c0.67,0,1.34,0,2.008,0c0.256-3.436-2.244-4.115-2.51-7.033c-0.67,0-1.34,0-2.008,0
			C84.854,54.263,86.396,55.905,86.261,59.22z M92.284,64.245c3.199,0.648,1.146,6.553,5.021,6.529
			c-0.756-7.619-5.268-11.475-6.527-18.588c-0.668,0-1.338,0-2.008,0C88.837,57.312,92.817,58.522,92.284,64.245z M111.862,66.755
			c2.545-0.035,3.574,1.447,5.02,2.514c0.502,0,1.004,0,1.506,0c0.273-1.975-2.807-3.188-1.004-5.023
			c2.926,2.598,2.107,8.941,6.525,10.047c0.545-5.402-3.934-5.777-3.514-11.053c-2.547-0.041-2.619-1.74-4.518,0
			c-0.502-1.674-2.246-2.105-1.506-5.023c-1.504-1.006-3.672-1.346-6.023-1.506C108.382,61.198,111.255,62.843,111.862,66.755z
			 M132.946,70.774c0.463,1.213,1.299,2.049,2.508,2.514c0.43-2.105-0.613-2.736-1.504-3.518
			C133.894,70.384,133.8,70.96,132.946,70.774z M115.376,77.808c1.986,0.648,1.023-1.654,3.012-1.004
			c0.186,1.824,1.621,2.395,1.004,5.023c0.836,0,1.674,0,2.512,0c0.502-3.52-1.615-4.414-1.508-7.535
			c-2.031-0.695-1.586,1.09-3.012,1.004c-1.443-0.564-1.293-2.723-3.012-3.014C114.165,74.665,114.368,76.64,115.376,77.808z
			 M140.476,77.808c0-0.836,0-1.674,0-2.512c-0.502,0-1.004,0-1.506,0C138.62,76.985,140.001,76.944,140.476,77.808z
			 M151.519,92.878c1.311,0.195,2.756,0.258,3.514,1.004c0,1.006,0,2.012,0,3.016c-0.836,0-1.672,0-2.508,0
			c0.42,3.766,1.012,7.359,1.504,11.053c4.189,0.664,4.541,5.17,5.021,9.543c1.623,0.621,0.383-1.625,2.008-1.004
			c0.531,3.318,2.08,5.619,1.506,10.047c0.918,0.756,2.479,0.869,3.514,1.506c0.137,1.707-0.389,4.074,0.502,5.025
			c3.049-0.967,2.812,0.268,5.02,1.006c1.844-3.541-0.266-10.418-0.502-15.072c-2.307,0.299-3.842-0.172-4.518-1.508
			c1.35-4.979-2.977-7.543-0.502-10.549c-2.244-0.936,0.113-6.477-3.014-6.531c-0.113,1.098-3.355,1.611-4.014,0.502
			c1.631-0.545,0.826-3.525,1.002-5.525c-1.17,0-2.342,0-3.514,0c0.27-1.943-0.895-2.451-0.5-4.52
			c-2.303-0.043-3.221-1.469-5.523-1.508C150.05,91.335,152.261,90.63,151.519,92.878z"/>
		<path fill-rule="evenodd" clip-rule="evenodd" d="M150.515,89.362c2.303,0.039,3.221,1.465,5.523,1.508
			c-0.395,2.068,0.77,2.576,0.5,4.52c1.172,0,2.344,0,3.514,0c-0.176,2,0.629,4.98-1.002,5.525c0.658,1.109,3.9,0.596,4.014-0.502
			c3.127,0.055,0.77,5.596,3.014,6.531c-2.475,3.006,1.852,5.57,0.502,10.549c0.676,1.336,2.211,1.807,4.518,1.508
			c0.236,4.654,2.346,11.531,0.502,15.072c-2.207-0.738-1.971-1.973-5.02-1.006c-0.891-0.951-0.365-3.318-0.502-5.025
			c-1.035-0.637-2.596-0.75-3.514-1.506c0.574-4.428-0.975-6.729-1.506-10.047c-1.625-0.621-0.385,1.625-2.008,1.004
			c-0.48-4.373-0.832-8.879-5.021-9.543c-0.492-3.693-1.084-7.287-1.504-11.053c0.836,0,1.672,0,2.508,0c0-1.004,0-2.01,0-3.016
			c-0.758-0.746-2.203-0.809-3.514-1.004C152.261,90.63,150.05,91.335,150.515,89.362z M168.587,122.519
			c1.543,0.768,1.543-3.281,0-2.514C168.587,120.843,168.587,121.679,168.587,122.519z M169.591,129.048
			c1.088,0.084,0.229-1.781,0.502-2.512c-0.502,0-1.004,0-1.506,0C168.81,127.487,167.903,129.563,169.591,129.048z"/>
	</g>
</g>
</svg>
