<?xml version="1.0" encoding="UTF-8" standalone="no"?>
<!-- Created with Inkscape (http://www.inkscape.org/) -->

<svg
   xmlns:dc="http://purl.org/dc/elements/1.1/"
   xmlns:cc="http://creativecommons.org/ns#"
   xmlns:rdf="http://www.w3.org/1999/02/22-rdf-syntax-ns#"
   xmlns:svg="http://www.w3.org/2000/svg"
   xmlns="http://www.w3.org/2000/svg"
   xmlns:sodipodi="http://sodipodi.sourceforge.net/DTD/sodipodi-0.dtd"
   xmlns:inkscape="http://www.inkscape.org/namespaces/inkscape"
   id="svg2"
   version="1.1"
   inkscape:version="0.48.5 r10040"
   width="449"
   height="547"
   sodipodi:docname="Jug.png">
  <metadata
     id="metadata8">
    <rdf:RDF>
      <cc:Work
         rdf:about="">
        <dc:format>image/svg+xml</dc:format>
        <dc:type
           rdf:resource="http://purl.org/dc/dcmitype/StillImage" />
        <dc:title></dc:title>
      </cc:Work>
    </rdf:RDF>
  </metadata>
  <defs
     id="defs6" />
  <sodipodi:namedview
     pagecolor="#ffffff"
     bordercolor="#666666"
     borderopacity="1"
     objecttolerance="10"
     gridtolerance="10"
     guidetolerance="10"
     inkscape:pageopacity="0"
     inkscape:pageshadow="2"
     inkscape:window-width="1280"
     inkscape:window-height="734"
     id="namedview4"
     showgrid="false"
     inkscape:zoom="0.86457381"
     inkscape:cx="224.5"
     inkscape:cy="273.5"
     inkscape:window-x="0"
     inkscape:window-y="27"
     inkscape:window-maximized="1"
     inkscape:current-layer="svg2" />
  <path
     style="fill:#161616"
     d="m 232.93983,490.265 c -3.575,-0.43198 -11.225,-1.28771 -17,-1.90161 -9.25704,-0.98406 -16.32182,-2.46809 -35.5,-7.45714 -9.92451,-2.58179 -22.84081,-10.92369 -26.21456,-16.9305 -2.52352,-4.49301 -0.47874,-12.96224 3.81842,-15.81545 1.74429,-1.15816 2.38135,-2.90768 3.03457,-8.3336 0.63421,-5.26805 1.41315,-7.47972 3.34418,-9.49528 1.38457,-1.44517 2.48771,-3.50296 2.45144,-4.57287 -0.0363,-1.0699 -2.05277,-5.77028 -4.48112,-10.44528 -7.0216,-13.51781 -22.45293,-45.1136 -22.45293,-45.97259 0,-0.43038 -0.6673,-1.33633 -1.48288,-2.0132 -0.81559,-0.67688 -1.90573,-2.64448 -2.42254,-4.37245 -0.51682,-1.72797 -2.1403,-6.29176 -3.60775,-10.14176 -1.46745,-3.85 -3.04359,-8.125 -3.50255,-9.5 -0.45895,-1.375 -1.80704,-4.975 -2.99576,-8 -1.18872,-3.025 -2.50124,-6.85697 -2.91671,-8.51548 -1.40589,-5.61214 -4.30071,-10.50666 -7.24151,-12.24383 -2.87079,-1.69582 -5.8303,-6.21755 -5.8303,-8.9079 0,-1.4993 -0.3641,-2.34515 -4.41248,-10.25075 -3.09885,-6.05138 -5.529829,-9.79758 -12.058219,-18.58204 -2.45248,-3.3 -5.87351,-8.475 -7.6023,-11.5 -1.72879,-3.025 -4.82503,-7.525 -6.88053,-10 -6.41514,-7.72438 -15.1836,-21.20005 -18.54561,-28.50153 -1.77315,-3.85085 -4.31496,-8.6093 -5.64847,-10.57433 -1.3335,-1.96504 -5.17205,-9.16435 -8.53009,-15.99847 -5.58843,-11.37329 -6.96266,-15.57222 -10.44866,-31.92567 -1.57495,-7.3884 -2.2598,-30.40993 -0.97599,-32.80874 0.5543,-1.03572 1.48796,-5.74698 2.07479,-10.46947 0.9162,-7.37297 2.03007,-10.60965 7.88217,-22.90407 3.74835,-7.874736 7.59235,-14.958446 8.54223,-15.741566 0.94988,-0.78312 3.28498,-3.77098 5.18913,-6.63969 3.89235,-5.864081 14.13988,-13.185749 25.91403,-18.515106 9.08906,-4.113996 24.938639,-7.921349 32.975689,-7.921349 6.14247,0 22.67105,3.454279 29.23448,6.109662 2.75869,1.11609 3.71279,1.059066 6.78393,-0.405457 1.96556,-0.937313 4.28472,-1.704205 5.15367,-1.704205 0.86896,0 3.21619,-0.88927 5.21608,-1.976156 6.96173,-3.783525 25.53302,-9.763421 34.60229,-11.141834 3.86862,-0.58798 7.46136,-1.47697 7.98386,-1.975532 1.29581,-1.236446 98.86132,-1.194889 100.1,0.04264 0.5225,0.522013 7.475,2.560737 15.45,4.530498 7.975,1.969761 16.975,4.204148 20,4.965304 3.025,0.761157 10.675,1.680779 17,2.043606 21.40316,1.227769 31.15288,3.767672 37.72819,9.828579 3.84969,3.548525 4.27181,4.396168 4.27181,8.578125 0,6.402542 -3.29281,10.882515 -13.32835,18.133685 -4.49441,3.24742 -9.37273,6.82348 -10.84073,7.946788 -2.88989,2.211338 -13.83092,22.627788 -13.83092,25.809098 0,1.07001 -0.79987,3.01866 -1.77748,4.33033 -0.97762,1.31167 -2.30011,3.95986 -2.93887,5.88486 -1.51304,4.55973 -3.68966,30.24621 -2.84737,33.60213 0.35817,1.42706 3.66903,5.84197 7.35747,9.81089 3.68844,3.96893 8.50625,9.61658 10.70625,12.55034 2.2,2.93377 5.95649,7.47863 8.34777,10.0997 2.39127,2.62107 5.46854,7.16664 6.83838,10.10126 3.7689,8.07416 9.8226,27.38568 11.26306,35.92955 1.79506,10.64715 0.9429,40.89053 -1.43438,50.90613 -6.99528,29.47148 -7.00438,29.50531 -11.30707,42 -1.60988,4.675 -3.52018,10.525 -4.2451,13 -0.72492,2.475 -1.90032,5.19634 -2.61201,6.04743 -0.71169,0.85109 -2.03001,4.00109 -2.92961,7 -0.8996,2.99891 -4.51235,11.63032 -8.02834,19.1809 -3.51598,7.55058 -6.3927,14.35239 -6.3927,15.11514 0,0.76275 -0.87102,2.49413 -1.93559,3.84752 -1.06458,1.35339 -3.07513,5.0374 -4.4679,8.1867 -1.39277,3.14931 -4.61742,8.46774 -7.16588,11.81875 -2.54847,3.35102 -5.35996,8.05264 -6.24777,10.44806 -1.51443,4.08616 -1.50187,4.54546 0.20337,7.4322 1.01543,1.71898 1.60971,4.16418 1.34659,5.54061 -0.56407,2.95076 1.13674,8.15774 4.79093,14.66725 3.74771,6.6761 2.95109,10.2944 -3.44556,15.64998 -2.67066,2.236 -5.36262,4.06546 -5.98212,4.06546 -0.6195,0 -3.48205,1.32182 -6.36122,2.93737 -3.97466,2.23026 -8.30939,3.43392 -18.00658,5 -11.13913,1.79897 -16.8275,2.04583 -44.5,1.9312 -17.45055,-0.0723 -34.65327,-0.48486 -38.22827,-0.91684 z m 75.45,-9.0025 c 0.5225,-0.52208 3.75844,-0.94923 7.19098,-0.94923 3.43254,0 6.48157,-0.38928 6.77562,-0.86506 0.29405,-0.47578 2.34738,-1.1082 4.56295,-1.40537 3.71297,-0.49801 14.05836,-6.36386 15.58756,-8.83816 0.36037,-0.58308 -0.85731,-2.3539 -2.70595,-3.93514 -3.34802,-2.86375 -7.60444,-3.78511 -9.41116,-2.03718 -0.5225,0.5055 -3.875,1.1408 -7.45,1.41178 -3.575,0.27097 -7.85,0.73261 -9.5,1.02586 -19.65376,3.49297 -29.22269,3.96893 -54.57521,2.71459 -37.82546,-1.87146 -41.33817,-2.13208 -42.37479,-3.14398 -0.5225,-0.51004 -3.53344,-0.92734 -6.69098,-0.92734 -3.15754,0 -5.98244,-0.39069 -6.27756,-0.86819 -0.29511,-0.47751 -2.90917,-1.17565 -5.80902,-1.55144 -2.89984,-0.37578 -7.07244,-1.51995 -9.27244,-2.5426 -5.00058,-2.32447 -19.84178,-5.50433 -21.93721,-4.70024 -2.56535,0.98442 -1.81129,5.26012 1.51413,8.58555 1.69231,1.6923 3.82981,3.09123 4.75,3.10872 0.9202,0.0175 2.54659,0.6925 3.61421,1.5 1.06762,0.80751 3.17856,1.4682 4.69098,1.4682 1.51242,0 3.00192,0.40784 3.30999,0.90632 0.30807,0.49847 2.78699,1.21258 5.50871,1.58691 2.72171,0.37434 5.47631,1.31649 6.12133,2.09369 0.64501,0.77719 2.60265,1.41308 4.3503,1.41308 1.74766,0 3.65346,0.4759 4.23511,1.05755 0.58165,0.58165 3.60985,1.32097 6.72932,1.64293 3.11947,0.32196 5.91013,0.97106 6.20146,1.44245 0.29134,0.47139 5.81315,0.85707 12.27069,0.85707 6.45754,0 12.16848,0.423 12.69098,0.94 1.3921,1.37746 7.91305,1.59383 37.95,1.25923 15.26086,-0.17001 27.41304,-0.71348 27.95,-1.25 z m -5.45,-21.54462 c 14.10764,-2.0829 26.51462,-5.04047 29.58545,-7.05256 1.95047,-1.27799 2.45079,-2.35035 2.21678,-4.75128 l -0.30223,-3.10077 -7.90474,0.32833 c -4.3476,0.18059 -8.8476,0.91942 -10,1.64184 -3.17132,1.98807 -48.78661,3.86582 -73.09526,3.00896 -11,-0.38774 -23.825,-1.34277 -28.5,-2.12229 -4.675,-0.77952 -11.14184,-1.87228 -14.37077,-2.42836 -3.22892,-0.55608 -7.53388,-1.85951 -9.56659,-2.89652 -5.25778,-2.68232 -15.09739,-6.03196 -17.71896,-6.03196 -3.97496,0 -4.03888,1.52624 -0.37694,9 0.40423,0.825 2.26458,1.63372 4.13411,1.79715 1.86953,0.16344 4.74915,0.90511 6.39915,1.64816 1.65,0.74305 5.7,1.92118 9,2.61807 3.3,0.69688 6.49464,1.64149 7.09919,2.09912 2.6418,1.99979 30.34388,5.99544 46.90081,6.76481 26.58775,1.23549 45.79527,1.05779 56.5,-0.5227 z m -1,-18.46066 c 4.675,-0.51749 13.6304,-2.18438 19.90088,-3.70421 12.71628,-3.08215 14.7084,-4.57476 15.69972,-11.76319 0.61568,-4.46449 3.32078,-11.47655 4.42741,-11.47655 0.39834,0 2.41738,-3.2625 4.48675,-7.25 2.06938,-3.9875 4.33313,-7.925 5.03057,-8.75 0.69743,-0.825 2.69889,-4.875 4.44769,-9 3.24258,-7.64846 6.01364,-13.513 9.40954,-19.91389 2.34427,-4.41868 5.15785,-11.67205 7.59744,-19.58611 1.01726,-3.3 2.82229,-8.475 4.01117,-11.5 1.18889,-3.025 2.54169,-7.03497 3.00623,-8.91105 0.46455,-1.87608 1.77567,-4.67036 2.91361,-6.20951 1.13795,-1.53915 2.06899,-3.28251 2.06899,-3.87413 0,-0.59162 0.72461,-2.18157 1.61024,-3.53321 2.835,-4.32677 -0.45983,-11.4721 -5.28998,-11.4721 -1.671,0 -2.67084,0.81088 -3.39082,2.75 -0.56159,1.5125 -2.82667,6.2441 -5.03351,10.51467 -2.20685,4.27057 -4.70999,10.12057 -5.56255,13 -1.14751,3.8756 -2.74998,6.33915 -6.16995,9.48533 -5.03012,4.62743 -6.26437,5.03823 -8.18486,2.72418 -1.01012,-1.21713 -1.03112,-3.89772 -0.10379,-13.25 0.63938,-6.4483 1.80014,-13.74918 2.57946,-16.22418 4.99747,-15.87118 5.48881,-19.32804 3.19336,-22.46725 -1.23566,-1.68987 -2.37937,-1.79133 -13.25,-1.17539 -11.97133,0.6783 -25.30602,2.12686 -48.3976,5.25745 -14.42615,1.9558 -67.98884,2.33042 -83.5,0.58401 -10.62989,-1.19683 -38.58575,-7.00319 -39.95,-8.29751 -1.42976,-1.35648 -4.15326,-1.08428 -5.51017,0.5507 -1.59554,1.92251 -0.37186,5.54799 1.87257,5.54799 2.47975,0 4.85828,2.94264 5.25394,6.5 0.27008,2.42835 0.85767,3.06029 3.08366,3.31642 1.5125,0.17403 2.75,0.93164 2.75,1.68358 0,0.75194 -1.2375,1.50955 -2.75,1.68358 -2.61152,0.30049 -2.7653,0.61244 -3.05373,6.19477 -0.24699,4.78017 0.0717,6.27794 1.70567,8.01727 1.25065,1.33125 2.12055,3.82862 2.30374,6.61366 0.28948,4.40116 0.23807,4.4831 -3.12619,4.98273 -1.88128,0.27939 -3.59806,1.04584 -3.81507,1.70321 -0.46685,1.41417 7.1301,5.30478 10.35831,5.30478 4.3815,0 7.37727,1.80515 7.37727,4.44531 0,1.58267 1.04091,3.2644 2.847,4.59969 2.15967,1.59672 2.73231,2.70487 2.37193,4.59007 -0.36182,1.89274 0.0157,2.61354 1.58382,3.0236 1.1324,0.29613 2.30946,1.19136 2.6157,1.98941 0.45429,1.18385 -0.49954,1.39584 -5.18083,1.15145 -5.48963,-0.28658 -5.73762,-0.41598 -5.73762,-2.99374 0,-3.43301 -1.63047,-5.06551 -4.63466,-4.64045 -1.75484,0.24828 -2.37451,0.97992 -2.40086,2.83466 -0.0352,2.47866 -0.10687,2.49851 -8.3946,2.32504 -8.94116,-0.18714 -10.44144,-0.99645 -9.4166,-5.07972 0.31353,-1.24921 -0.0309,-2.99545 -0.76549,-3.88053 -0.73455,-0.88508 -1.43841,-3.69173 -1.56412,-6.23701 -0.46062,-9.32577 -2.02322,-14.41477 -4.74707,-15.46001 -0.86713,-0.33275 -1.5766,-1.69269 -1.5766,-3.02208 0,-1.32939 -0.67223,-3.70601 -1.49384,-5.28138 -0.82161,-1.57537 -1.49661,-3.88292 -1.5,-5.12788 -0.003,-1.24496 -0.52718,-3.09785 -1.16398,-4.11753 -0.70339,-1.12631 -0.82998,-2.59281 -0.32253,-3.73643 1.56051,-3.51688 1.2805,-9.78498 -0.53083,-11.88247 -1.03132,-1.19425 -1.97743,-4.54013 -2.3484,-8.30503 -0.56256,-5.7093 -0.40402,-6.51243 1.67794,-8.5 1.26457,-1.20724 3.14881,-2.67891 4.18721,-3.27039 1.79923,-1.02485 1.80955,-1.24073 0.21955,-4.59142 -1.18642,-2.50019 -1.5032,-4.93415 -1.09649,-8.42458 0.51037,-4.37992 0.29191,-5.16968 -2.02833,-7.33289 -2.25356,-2.10105 -2.6003,-3.24114 -2.6003,-8.55 0,-3.36913 0.52093,-6.64662 1.15762,-7.28331 0.87682,-0.87682 0.84026,-1.54001 -0.15074,-2.73409 -1.01766,-1.22621 -1.05268,-2.12434 -0.15762,-4.04238 2.511,-5.38081 3.01773,-7.18913 3.59475,-12.82818 0.32992,-3.22424 1.26498,-6.81187 2.07792,-7.9725 0.81294,-1.16063 1.47807,-3.08001 1.47807,-4.26529 0,-1.18528 0.675,-2.71525 1.5,-3.39994 0.90328,-0.74966 1.5,-2.93763 1.5,-5.5 0,-2.69299 0.59153,-4.74604 1.61129,-5.59236 2.49336,-2.06931 12.95518,-15.1938 13.6831,-17.16565 0.57498,-1.55753 1.59528,-1.68527 8.9471,-1.12017 6.97191,0.53591 8.5143,0.37736 9.65076,-0.99199 1.82432,-2.19817 0.26829,-3.96555 -4.83839,-5.49555 -2.18344,-0.65417 -4.25516,-1.65097 -4.60382,-2.21511 -1.32017,-2.13609 -11.61631,-5.91534 -14.3069,-5.25142 -7.19129,1.77449 -20.601,14.93404 -26.83281,26.33225 -1.95459,3.575 -5.01381,8.975 -6.79828,12 -1.78447,3.025 -3.49796,6.625 -3.80776,8 -0.3098,1.375 -1.73196,5.80411 -3.16037,9.84246 -3.7616,10.63474 -5.77529,25.35612 -3.88644,28.41235 1.03365,1.67249 3.92381,24.25564 5.34249,41.74519 0.71552,8.82101 0.6853,15.99087 -0.10269,24.36081 -0.73507,7.80791 -0.78312,12.59178 -0.1406,14 0.53682,1.17655 1.45444,4.16419 2.03917,6.63919 1.10416,4.67364 2.5198,8.42673 4.14914,11 0.52237,0.825 2.12,4.65 3.55028,8.5 6.04161,16.26263 12.81066,31.87907 15.38773,35.5 0.97861,1.375 5.05208,9.475 9.05216,18 4.17115,8.8896 8.40132,16.47903 9.91885,17.79563 3.72312,3.23013 11.07624,8.20437 12.12803,8.20437 0.48497,0 1.84306,1.35 3.01796,3 2.71367,3.811 7.57352,4.21926 8.92787,0.75 1.49786,-3.83688 7.33129,-8.50864 12.85298,-10.29344 4.51404,-1.45909 7.78118,-1.61272 22.5,-1.05799 9.47053,0.35692 20.81915,1.02611 25.21915,1.48708 4.4,0.46097 14.075,1.39287 21.5,2.07089 7.425,0.67802 14.28139,1.64017 15.23643,2.13811 2.63503,1.37387 5.76357,1.08311 5.76357,-0.53563 0,-0.79254 -0.50191,-1.75119 -1.11536,-2.13032 -0.67134,-0.41491 -0.92333,-2.3931 -0.63298,-4.96905 0.54754,-4.85778 6.28168,-12.33675 13.36445,-17.43108 3.59297,-2.58426 4.18372,-3.56032 4.64802,-7.67958 0.4628,-4.10592 1.16229,-5.26996 5.38389,-8.95941 6.22151,-5.43726 11.98779,-8.32224 18.07477,-9.04315 3.72847,-0.44159 5.14964,-0.20507 6.17234,1.02721 1.60051,1.9285 0.81204,4.46627 -1.62245,5.22204 -0.97497,0.30267 -2.55407,0.96747 -3.50911,1.47732 -0.95504,0.50985 -2.67491,0.927 -3.82193,0.927 -2.98196,0 -10.73773,4.78218 -11.46329,7.06822 -0.76405,2.4073 0.23144,5.70788 2.65921,8.81664 2.83411,3.62908 2.4092,9.90022 -0.9282,13.69927 -1.49015,1.69627 -3.49686,3.36965 -4.45936,3.71861 -2.321,0.84151 -2.21614,3.23112 0.25,5.69726 2.46657,2.46657 2.57879,6.17218 0.25,8.25577 -2.73856,2.45022 -12.83674,3.94381 -23.25,3.43882 -13.35988,-0.64788 -30.25146,-2.65839 -31.57692,-3.75843 -1.6875,-1.4005 -25.28487,-1.47437 -26.67573,-0.0835 -0.63104,0.63104 -1.80237,1.14735 -2.60296,1.14735 -2.80068,0 -8.27732,5.05853 -7.95156,7.3445 0.27127,1.9036 1.12522,2.22582 7.30717,2.75723 9.38059,0.80637 51.86579,0.0194 62.5,-1.15778 z m -96,-28.44395 c 0,-0.825 0.675,-1.5 1.5,-1.5 0.825,0 1.5,0.675 1.5,1.5 0,0.825 -0.675,1.5 -1.5,1.5 -0.825,0 -1.5,-0.675 -1.5,-1.5 z m -16,-1.5 c 0,-0.55 1.09844,-1 2.44098,-1 1.34254,0 2.7191,0.45 3.05902,1 0.36058,0.58342 -0.65628,1 -2.44098,1 -1.68246,0 -3.05902,-0.45 -3.05902,-1 z m 4.04984,-7.74722 c -9.02261,-0.36317 -11.04984,-1.2209 -11.04984,-4.67522 0,-1.19766 -0.55865,-2.73621 -1.24145,-3.41901 -0.6828,-0.6828 -1.4703,-3.8103 -1.75,-6.95 -0.50208,-5.6359 -0.55295,-5.71491 -3.9972,-6.20855 -2.48006,-0.35545 -3.59226,-1.07821 -3.84706,-2.5 -0.19713,-1.1 -0.76474,-2.4275 -1.26135,-2.95 -0.49662,-0.5225 -0.90294,-3.56 -0.90294,-6.75 l 0,-5.8 3.94098,0 c 2.16754,0 4.19478,0.41065 4.50498,0.91257 0.3102,0.50191 5.97129,1.2353 12.58019,1.62975 6.60891,0.39445 12.29639,1.17054 12.63884,1.72465 0.34246,0.5541 -0.44877,1.81563 -1.75828,2.8034 l -2.38093,1.79594 2.15703,2.31685 c 1.18637,1.27426 2.30557,3.66684 2.48711,5.31684 0.3097,2.81481 0.6233,3.01881 5.08008,3.30479 4.92277,0.31588 5.47947,0.96367 3.69444,4.29903 -0.60995,1.13969 -0.77423,3.84842 -0.38915,6.41632 0.54511,3.63505 1.22029,4.72028 3.7092,5.96192 1.67353,0.83487 4.77365,1.51794 6.88915,1.51794 2.1155,0 3.84636,0.45 3.84636,1 0,0.9631 -12.85339,1.0617 -32.95016,0.25278 z m 3.0483,-20.87103 c 1.16136,-1.39936 0.94122,-1.93973 -1.62756,-3.99503 -3.71484,-2.97227 -13.11736,-3.47078 -14.16111,-0.7508 -1.44912,3.77635 1.26799,5.09208 12.81809,6.20698 0.89515,0.0864 2.23191,-0.57111 2.97058,-1.46115 z m 25.51025,57.19639 c 1.00295,-2.61364 -1.47208,-5.57814 -4.65714,-5.57814 -1.63811,0 -3.84711,-0.54253 -4.90888,-1.20561 -1.5927,-0.99466 -2.29672,-0.87418 -4.02345,0.68849 -3.07487,2.78272 -2.1086,4.76403 2.98578,6.12226 6.24265,1.66438 9.95828,1.65492 10.60369,-0.027 z m -45.35839,-93.97019 c 2.28229,-1.7325 2.20914,-2.84012 -0.29068,-4.40128 -2.52967,-1.57981 -3.95932,-0.79059 -3.95932,2.18568 0,3.71406 1.34936,4.4175 4.25,2.2156 z m -7.75,-22.12165 c 0,-2.51433 -0.39294,-2.9863 -2.4863,-2.9863 -2.84912,0 -3.89136,2.73755 -1.93824,5.09093 2.0087,2.42033 4.42454,1.27118 4.42454,-2.10463 z m -46.07301,-27.97304 c -0.0768,-8.82147 -1.14628,-11.51326 -4.57419,-11.51326 -1.08923,0 -2.29333,-1.02848 -2.81717,-2.40629 -0.50318,-1.32345 -2.51704,-4.00845 -4.47525,-5.96666 -1.95821,-1.95821 -3.56038,-3.8887 -3.56038,-4.28997 0,-0.40127 -1.19184,-2.44942 -2.64855,-4.55144 -3.14739,-4.54168 -2.72249,-5.47949 1.40845,-3.10866 2.52397,1.44857 3.47429,1.53735 5.68314,0.53092 2.50737,-1.14243 2.6361,-1.54573 2.35467,-7.37693 -0.27594,-5.71744 -0.52257,-6.2937 -3.37327,-7.88193 -1.69156,-0.94243 -4.61655,-2.0406 -6.49999,-2.44038 -3.75544,-0.79713 -6.839159,-3.86504 -10.060269,-10.00866 -1.15346,-2.2 -2.65559,-4.675 -3.33807,-5.5 -0.68248,-0.825 -4.27317,-8.025 -7.97932,-16 -3.70615,-7.975 -7.52035,-16.075 -8.47599,-18 -2.30127,-4.63556 -3.38724,-8.42844 -8.01694,-28 -5.60065,-23.67619 -6.57154,-31.41801 -5.11941,-40.82205 2.3018,-14.90658 6.2015,-23.88305 14.15747,-32.588136 2.85979,-3.12906 6.46962,-6.34594 8.02184,-7.14863 1.55223,-0.80269 3.87955,-2.5997 5.17183,-3.99336 1.92258,-2.07342 4.32172,-2.88956 13.201409,-4.49087 5.96851,-1.07632 13.68317,-1.956945 17.14369,-1.956945 5.56441,0 21.29469,2.912905 25.36931,4.697845 2.43336,1.06597 9.39691,1.0865 10.75,0.0317 2.18453,-1.70294 1.4591,-7.327589 -1.38026,-10.70198 -3.50471,-4.165113 -11.3366,-8.027565 -16.27748,-8.027565 -2.18582,0 -4.25234,-0.45 -4.59226,-1 -0.33992,-0.55 -2.78638,-1 -5.43657,-1 -3.0632,0 -5.27204,-0.546435 -6.06343,-1.5 -0.74966,-0.90328 -2.93763,-1.5 -5.5,-1.5 -2.56237,0 -4.75034,0.59672 -5.5,1.5 -0.68469,0.825 -2.65229,1.51603 -4.37244,1.535622 -4.63672,0.05281 -13.351189,2.404807 -19.981639,5.392956 -14.97918,6.750677 -22.39175,14.667277 -33.67367,35.963373 -4.45417,8.40783 -5.97225,12.30165 -5.97225,15.3186 0,2.22485 -0.675,5.66069 -1.5,7.6352 -0.90785,2.17281 -1.5,6.73838 -1.5,11.56542 0,7.10795 0.24174,8.14473 2.22251,9.53212 1.22238,0.85618 2.99205,1.5567 3.93261,1.5567 0.94056,0 2.00121,1.0125 2.35701,2.25 0.35579,1.2375 1.24954,3.6 1.98611,5.25 0.73657,1.65 1.85118,5.925 2.47691,9.5 1.88169,10.75062 7.08613,29.18246 9.69368,34.33076 1.34569,2.65692 2.28409,5.58192 2.08533,6.5 -0.4636,2.14133 -4.20341,-4.95809 -5.10798,-9.69668 -0.3534,-1.85125 -1.99336,-4.90441 -3.64436,-6.78479 -2.51933,-2.86937 -3.00182,-4.26158 -3.00182,-8.66185 0,-4.00547 -0.47205,-5.64714 -2,-6.95541 -1.54594,-1.32368 -2,-2.94994 -2,-7.16323 0,-2.99792 -0.45,-5.72888 -1,-6.0688 -0.55,-0.33992 -1,-1.67967 -1,-2.97723 0,-4.08901 -1.0662,-5.52277 -4.10698,-5.52277 l -2.89302,0 0,7.37788 c 0,4.29588 0.62661,8.87754 1.5,10.96788 0.825,1.9745 1.5,5.12346 1.5,6.99769 0,1.87423 1.125,5.95151 2.5,9.06063 1.375,3.10912 2.5,6.26002 2.5,7.00199 0,0.74197 0.60085,1.8477 1.33522,2.45717 0.73437,0.60947 1.92282,2.88859 2.64101,5.06471 0.71818,2.17612 2.36733,4.87959 3.66478,6.0077 1.43439,1.24719 2.35899,3.15463 2.35899,4.86657 0,1.54849 1.51482,5.33104 3.36626,8.40566 1.85144,3.07462 3.68159,6.84662 4.067,8.38222 0.38541,1.53561 3.62468,6.86854 7.19837,11.85096 3.57368,4.98241 8.42425,11.98394 10.77904,15.55894 2.35479,3.575 5.47572,7.08705 6.93539,7.80457 1.49071,0.73277 2.65394,2.142 2.65394,3.2152 0,1.05085 1.35,3.4482 3,5.32745 1.649999,1.87924 2.999999,3.78407 2.999999,4.23293 0,1.77907 10.51365,19.1702 14.3134,23.67647 5.18665,6.15106 6.20883,5.19077 6.11359,-5.74336 z M 95.959891,254.83744 c -0.78875,-0.95039 -0.86461,-1.52417 -0.20152,-1.52417 1.20856,0 2.6176,1.8972 1.9241,2.5907 -0.2517,0.2517 -1.02686,-0.22824 -1.72258,-1.06653 z m -5.56117,-7.5907 c -0.36254,-0.58659 -0.44469,-1.281 -0.18256,-1.54313 0.26213,-0.26213 0.74307,0.21781 1.06875,1.06653 0.67619,1.76211 0.0999,2.07206 -0.88619,0.4766 z m -9.45889,-14.93347 c -0.5887,-1.1 -0.69453,-2 -0.23518,-2 1.06323,0 3.23518,2.14833 3.23518,3.2 0,1.55216 -1.94304,0.77494 -3,-1.2 z m -4.83158,-8.8897 c -3.31453,-5.11518 -4.40807,-8.84652 -1.78027,-6.07459 1.27354,1.34341 5.8575,10.96429 5.22404,10.96429 -0.15145,0 -1.70114,-2.20036 -3.44377,-4.8897 z m 93.243189,75.59894 c 1.56228,-2.47673 -1.64397,-5.59122 -3.86142,-3.75089 -1.86242,1.54566 -1.97844,3.2134 -0.33769,4.85415 1.47109,1.47109 2.79459,1.12336 4.19911,-1.10326 z m 220.54852,-13.1612 c 3.63514,-4.38007 -3.16933,-7.40654 -7.96013,-3.54047 -2.44622,1.97404 -2.45824,2.04944 -0.55887,3.50493 2.47551,1.897 6.95861,1.9157 8.519,0.0355 z m -103.96013,-2.91174 c 5.46476,0.0838 9.17677,-8.64181 13.008,-9.63265 1.77978,-0.41619 2.58243,-1.35739 2.80842,-3.2932 0.40697,-3.48608 3.18358,-3.64805 3.18358,-0.1857 0,3.38002 3.5183,4.64003 11.91445,4.26696 5.31387,-0.23612 6.62835,-0.62464 6.89797,-2.0388 0.21543,-1.12987 -0.5758,-2.09265 -2.23966,-2.72525 -2.73801,-1.04099 -3.39031,-3.81011 -1.37276,-5.82766 0.71237,-0.71237 4.14244,-1.2 8.44098,-1.2 3.98254,0 7.5191,-0.45 7.85902,-1 1.01632,-1.64443 4.49708,-1.13827 7.65995,1.11389 l 2.96868,2.11389 2.29229,-2.15349 c 2.50642,-2.35466 8.96863,-3.87103 9.92213,-2.32825 0.32851,0.53156 -0.58542,3.26183 -2.03096,6.06726 -3.02439,5.86956 -2.22195,8.1867 2.83511,8.1867 2.17566,0 3.14028,0.62592 3.8528,2.5 0.52277,1.375 1.17278,2.5 1.44446,2.5 1.04847,0 8.59605,-4.25653 9.15702,-5.16419 0.32532,-0.52638 0.0246,-3.80916 -0.6683,-7.29506 -1.01061,-5.08434 -1.01174,-6.93688 -0.006,-9.36566 0.68975,-1.66521 0.98846,-3.84833 0.6638,-4.85137 -0.87777,-2.71187 -12.17097,-8.12515 -19.59128,-9.39089 -3.575,-0.60982 -11.9,-2.16069 -18.5,-3.44639 -8.97763,-1.74887 -18.92627,-2.65627 -39.5,-3.60276 -15.125,-0.69582 -28.85,-1.2571 -30.5,-1.24729 -15.42205,0.0917 -26.49245,0.81028 -29,1.88235 -1.65,0.70543 -9.45942,2.01158 -17.35427,2.90255 -7.89485,0.89097 -15.17776,2.06067 -16.18426,2.59933 -1.00619,0.53866 -2.92917,0.97938 -4.27298,0.97938 -1.34382,0 -2.95849,0.62077 -3.58817,1.37949 -0.62968,0.75871 -2.55439,1.66138 -4.27714,2.00593 -3.94331,0.78867 -5.82288,2.32572 -5.82288,4.76178 0,2.58556 -3.78449,3.8528 -11.50608,3.8528 -3.50674,0 -6.654,0.45 -6.99392,1 -0.33992,0.55 -1.5056,1 -2.5904,1 -2.35646,0 -3.63607,2.67353 -2.04238,4.26722 0.62303,0.62303 1.13278,1.89103 1.13278,2.81777 0,0.92674 1.13934,2.43151 2.53187,3.34393 3.20455,2.09971 2.34306,3.57108 -2.09089,3.57108 -7.60264,0 -1.81441,6.0057 7.55902,7.84301 3.025,0.59294 13.6,1.5822 23.5,2.19836 9.9,0.61616 21.825,1.72745 26.5,2.46953 5.93482,0.94205 16.34642,1.26865 34.5,1.08222 21.98654,-0.22579 26.54027,-0.52786 29.5,-1.95682 z m -164.20397,-5.16219 c 0.27935,-2.83991 -2.1807,-10.47411 -3.37519,-10.47411 -0.30378,0 -1.42274,0.46583 -2.48658,1.03518 -2.30611,1.2342 -2.52424,4.23029 -0.43426,5.96482 0.825,0.68469 1.5,2.23979 1.5,3.45578 0,4.71673 4.33224,4.73329 4.79603,0.0183 z m 233.70397,1.52589 c 0,-1.05758 -1.2936,-1.59265 -4.38586,-1.81414 -4.54866,-0.32579 -6.85283,0.8099 -5.63641,2.7781 1.08666,1.75826 10.02227,0.89882 10.02227,-0.96396 z m 38.3,-6.2 c 1.68015,-1.68015 1.49384,-5.4219 -0.41501,-8.33518 -1.7778,-2.71326 -7.01532,-3.43449 -9.18499,-1.26482 -1.67377,1.67377 -1.49671,5.93137 0.3567,8.57749 1.73569,2.47805 7.18496,3.08085 9.2433,1.02251 z m -3.46151,-29.26423 c -0.0888,-3.71733 -0.65133,-7.24861 -1.25,-7.84728 -0.59867,-0.59867 -1.08849,-2.03748 -1.08849,-3.19736 0,-1.15988 -0.66069,-2.98238 -1.4682,-4.05 -0.8075,-1.06762 -1.4825,-2.89853 -1.5,-4.06869 -0.0175,-1.17015 -0.68937,-2.67329 -1.49307,-3.3403 -0.8037,-0.66701 -1.75426,-2.18461 -2.11235,-3.37245 -0.81547,-2.70504 -5.38012,-7.65969 -7.05677,-7.65969 -1.84051,0 -4.36961,4.05155 -4.36961,7 0,3.5354 -2.66383,7 -5.3821,7 -2.27328,0 -6.78817,-4.97946 -16.32061,-18 -4.55789,-6.2257 -12.36343,-13.77463 -19.9104,-19.25582 -7.06045,-5.12785 -13.81502,-6.00437 -35.88689,-4.6569 -9.35,0.5708 -17.78139,1.45968 -18.73643,1.97527 -2.19775,1.1865 -14.04702,1.23076 -15.31357,0.0572 -0.5225,-0.48413 -6.33457,-1.37657 -12.9157,-1.9832 -12.18969,-1.12361 -20.38212,-3.05685 -35.5343,-8.38536 -4.675,-1.64404 -9.85,-3.04812 -11.5,-3.12018 -2.59397,-0.11328 -3.04419,0.25528 -3.32647,2.72314 -0.21828,1.90827 0.41619,3.64467 1.91447,5.23952 2.02379,2.15422 2.09438,2.55597 0.72847,4.14585 -0.83186,0.96826 -1.77546,2.50555 -2.0969,3.41618 -0.32144,0.91064 -2.06257,1.98036 -3.86918,2.37716 -6.80881,1.49547 -8.57612,4.14498 -4.61533,6.91923 1.91462,1.34105 2.05799,1.84902 1,3.54313 -0.67928,1.0877 -1.23506,2.70324 -1.23506,3.59008 0,0.88684 -0.675,3.14295 -1.5,5.01357 -0.825,1.87062 -2.19611,4.97613 -3.04692,6.90113 -1.24024,2.80612 -2.10563,3.5 -4.36514,3.5 -2.88935,0 -8.08794,3.32864 -8.08794,5.17868 0,1.75619 6.08503,8.82132 7.5976,8.82132 0.78624,0 2.3122,-0.55123 3.39101,-1.22496 1.54779,-0.96661 2.21982,-0.96661 3.18643,0 1.41253,1.41253 6.44438,1.64977 7.25266,0.34194 0.30015,-0.48566 4.26421,-1.40154 8.80902,-2.0353 4.5448,-0.63376 9.16328,-1.53988 10.26328,-2.0136 2.1148,-0.91074 15.04173,-2.76037 43,-6.15256 11.84565,-1.43724 19.42558,-1.86366 25,-1.40641 16.07477,1.31856 44.32614,5.96604 45.95,7.55898 0.5225,0.51255 1.93332,0.93191 3.13517,0.93191 2.29478,0 10.47988,2.26913 16.41483,4.55064 3.51506,1.35125 23.03334,8.50555 30.49212,11.17669 2.19566,0.78631 4.61072,1.94306 5.36681,2.57055 2.07683,1.72363 8.50607,4.56697 9.64107,4.26379 0.56253,-0.15026 0.92935,-3.22387 0.83849,-7.0259 z M 115.08578,232.56327 c 0.60669,-1.5125 1.47826,-3.65 1.93683,-4.75 0.45856,-1.1 1.34105,-4.025 1.96108,-6.5 4.72858,-18.87532 13.46824,-37.71286 22.61741,-48.74976 3.7613,-4.53736 7.87285,-9.58464 9.13677,-11.21616 2.13346,-2.75397 6.86736,-6.55766 13.41529,-10.77921 4.49214,-2.89615 5.12543,-5.06432 3.86049,-13.21703 -1.50473,-9.69825 -4.41924,-14.61205 -11.57999,-19.52362 -6.92683,-4.75113 -11.46078,-11.527 -13.04568,-19.496418 -0.97787,-4.917078 -1.52469,-5.758888 -5.02274,-7.732288 -8.24187,-4.64961 -13.03761,-5.56302 -25.29464,-4.81769 -9.9064,0.6024 -12.28672,1.11422 -18.499999,3.9779 -7.91737,3.64909 -13.61371,8.682088 -18.13077,16.019426 -1.65,2.6802 -3.79187,6.08355 -4.75971,7.563 -3.24661,4.96275 -5.11667,33.73181 -2.72871,41.97845 0.55636,1.92137 1.48142,6.4184 2.05568,9.9934 0.57425,3.575 1.73361,7.85 2.57634,9.5 0.84273,1.65 2.90376,7.275 4.58006,12.5 4.00454,12.48207 14.87237,35.13851 17.63229,36.75847 1.17923,0.69216 2.14405,1.79819 2.14405,2.45784 0,0.65965 1.66633,2.90584 3.702949,4.99153 3.15645,3.23249 4.3403,3.79216 8.02144,3.79216 3.777,0 4.4568,-0.34482 5.42156,-2.75 z m 253.38259,-28.86403 2.82058,-2.61403 -2.42456,-1.87839 c -3.07154,-2.37964 -4.64783,-2.07742 -6.67849,1.28046 -1.34318,2.22108 -1.39554,2.94096 -0.30914,4.25 1.83508,2.21113 3.34171,1.97386 6.59161,-1.03804 z m -188.02854,-9.88597 c 0,-1.45954 -0.77606,-2.08868 -2.87182,-2.32818 -3.35723,-0.38364 -5.15383,1.01598 -4.26784,3.32483 0.96518,2.51521 7.13966,1.65329 7.13966,-0.99665 z m 165.72445,-20.57824 c 0.39845,-4.08197 1.40035,-15.52176 2.22643,-25.42176 0.82609,-9.9 1.95321,-19.35 2.50471,-21 0.55149,-1.65 1.9312,-6.15 3.06601,-10 1.13481,-3.85 3.80426,-10.59508 5.93211,-14.98906 2.12786,-4.393976 3.6572,-8.331476 3.39854,-8.749996 -1.19975,-1.94123 -5.42075,-0.46042 -9.23281,3.23906 -2.26695,2.199998 -4.95147,3.999996 -5.9656,3.999996 -1.01412,0 -2.65835,0.9 -3.65384,2 -0.99549,1.1 -2.52773,2.01404 -3.40499,2.03121 -0.87725,0.0172 -3.39501,1.13986 -5.59501,2.49488 -4.43852,2.73376 -9.81273,3.11241 -15.4178,1.08629 -2.35821,-0.85244 -5.26709,-0.98256 -9.3828,-0.4197 -3.28074,0.44867 -12.31773,1.25119 -20.08219,1.78337 -7.76447,0.53219 -17.04221,1.46819 -20.61721,2.08001 -3.575,0.61182 -7.91509,1.31099 -9.64464,1.55372 -1.72956,0.24272 -4.82893,1.77982 -6.88751,3.41577 -4.4009,3.4974 -10.34195,3.93966 -19.80654,1.47445 -6.09692,-1.58805 -18.20941,-2.04021 -19.03125,-0.71044 -0.26839,0.43426 -0.0743,5.49676 0.43121,11.25 1.14545,13.03523 -0.05,19.95817 -4.68979,27.15993 -3.92362,6.09007 -4.90565,8.68057 -3.72082,9.81514 1.31384,1.25811 12.90891,4.83215 19.72268,6.07929 3.36966,0.61675 6.90805,1.52293 7.86309,2.01372 0.95504,0.4908 5.02754,0.89236 9.05,0.89236 4.15663,0 7.80744,0.49387 8.45771,1.14414 1.38671,1.38671 23.87621,1.32386 42.25586,-0.11809 15.88568,-1.24629 26.54683,-1.28269 28.76357,-0.0982 3.31945,1.77369 12.1333,4.07217 15.61531,4.07217 1.9267,0 3.79588,0.47375 4.15374,1.05279 1.57566,2.54946 3.01904,-0.23854 3.69183,-7.13103 z m -16.02445,-9.12176 c -1.39861,-1.39861 -1.51231,-5.75002 -0.28796,-11.02114 0.50588,-2.17797 0.4411,-8.99452 -0.15623,-16.43714 l -1.02054,-12.71599 3.2137,-2.87144 c 6.20231,-5.54176 12.14741,-1.59565 6.49094,4.30843 -2.16474,2.2595 -2.49976,3.16024 -1.58525,4.26216 0.66715,0.80386 1.1261,4.53497 1.08075,8.78616 -0.0433,4.06393 -0.0585,10.47189 -0.0336,14.23991 0.0663,10.05945 -3.61656,15.53426 -7.70177,11.44905 z m -139.40762,-16.2978 c 0.18568,-5.69989 -0.15363,-9.80869 -0.92979,-11.25895 -0.93895,-1.75445 -0.94878,-2.55706 -0.0424,-3.46346 0.65175,-0.65175 1.17979,-3.94469 1.17979,-7.35735 0,-4.2712 0.46289,-6.56171 1.5,-7.42244 0.825,-0.68469 1.5,-2.70969 1.5,-4.5 0,-1.79031 -0.675,-3.81531 -1.5,-4.5 -0.825,-0.68469 -1.5,-2.67479 -1.5,-4.42244 2e-5,-3.7366 -1.5318,-5.577558 -4.64096,-5.577558 -1.23254,0 -2.5191,-0.45 -2.85902,-1 -0.33992,-0.55 -2.11472,-0.999998 -3.94401,-0.999998 -4.95706,0 -6.96843,3.635006 -6.8389,12.359466 0.056,3.7727 0.59258,7.3502 1.19238,7.95 0.59979,0.59979 1.09053,2.74543 1.09053,4.76809 0,2.04898 0.66426,4.22884 1.5,4.92244 2.02262,1.67862 1.99126,9.3474 -0.0451,11.03746 -1.13217,0.93961 -1.46626,2.7764 -1.25,6.87244 l 0.2951,5.5901 6,3.23521 c 8.62273,4.6494 8.94491,4.4333 9.29238,-6.23301 z M 294.43983,99.781312 c 4.95,-0.79892 10.50456,-1.88671 12.34346,-2.417308 1.83891,-0.5306 7.23891,-1.69339 12,-2.58397 4.7611,-0.89059 9.33154,-2.20305 10.15654,-2.91658 1.79177,-1.54966 6.358,-2.99773 14.5,-4.59832 4.34101,-0.85338 8.28112,-2.67833 14.25,-6.60023 7.62901,-5.012691 9.6178,-7.388241 7.35579,-8.786246 -1.1639,-0.71933 -20.67697,-4.565379 -23.16262,-4.565379 -3.0423,0 -24.0247,-5.880654 -28.68996,-8.040822 -4.36311,-2.020268 -14.729,-3.904284 -21.67447,-3.939369 -2.23339,-0.01128 -4.71474,-0.7379 -5.76468,-1.688078 -1.49779,-1.355485 -4.13742,-1.683594 -14.07874,-1.75 -16.16136,-0.107956 -39.43311,1.187612 -41.54945,2.313112 -0.92723,0.493114 -5.28587,1.221545 -9.68587,1.618734 -4.4,0.397189 -9.35748,1.277276 -11.01661,1.95575 -1.65914,0.678473 -5.13615,1.551432 -7.72669,1.939908 -2.59055,0.388476 -4.97213,1.13032 -5.29241,1.648543 -0.32028,0.518222 -1.87921,0.942222 -3.46429,0.942222 -1.58508,0 -3.16008,0.45 -3.5,1 -0.33992,0.55 -1.73569,1 -3.10172,1 -1.36602,0 -4.94537,1.818555 -7.9541,4.041234 -4.53447,3.349809 -5.30642,4.347662 -4.51189,5.832244 1.93071,3.60756 7.24736,6.913787 26.06771,16.210547 11.90396,5.88025 13.28677,6.30965 29,9.005378 15.41442,2.644458 17.81586,2.797818 36.5,2.330958 11,-0.27487 24.05,-1.15341 29,-1.952328 z"
     id="path2987"
     inkscape:connector-curvature="0"
     sodipodi:nodetypes="ssssssscsssssssssssssssssssssssssssssssssssssssssssssssssssssssssssssssssssssssssssssssscsssscsssssssscssssssscsssssssssssssscssssssssssssssssssssssssssssssssscssssssssssssssscsssscssssssssssssssssssssssssssssssssssssssssssssssssssssssssssssssssssssssccsssssssssssssssssscssscscsssssssssssssssssssssssssssssssssssssssssssssssssssssssssssssssssssssssssssssssscssssssssssssssssssssssssssssssssssssssscssccccssscssssscscsssssscssssssscsssssssssssssssccssssccsssssssssssssssssssssssssssssssssssssssssssssssssssssssssssssssssssssssssssssscsssssssscsssssssscsssssssssssssssssssscccsscsssccccssssssssssssssscscssssssssssssssssssssssssssss" />
</svg>
