<?xml version="1.0" encoding="UTF-8" standalone="no"?>
<!-- Created with Inkscape (http://www.inkscape.org/) -->

<svg
   xmlns:dc="http://purl.org/dc/elements/1.1/"
   xmlns:cc="http://creativecommons.org/ns#"
   xmlns:rdf="http://www.w3.org/1999/02/22-rdf-syntax-ns#"
   xmlns:svg="http://www.w3.org/2000/svg"
   xmlns="http://www.w3.org/2000/svg"
   xmlns:sodipodi="http://sodipodi.sourceforge.net/DTD/sodipodi-0.dtd"
   xmlns:inkscape="http://www.inkscape.org/namespaces/inkscape"
   id="svg2"
   version="1.1"
   inkscape:version="0.48.5 r10040"
   width="842"
   height="321"
   sodipodi:docname="Indian Election Symbol Boat.png">
  <metadata
     id="metadata8">
    <rdf:RDF>
      <cc:Work
         rdf:about="">
        <dc:format>image/svg+xml</dc:format>
        <dc:type
           rdf:resource="http://purl.org/dc/dcmitype/StillImage" />
        <dc:title></dc:title>
      </cc:Work>
    </rdf:RDF>
  </metadata>
  <defs
     id="defs6" />
  <sodipodi:namedview
     pagecolor="#ffffff"
     bordercolor="#666666"
     borderopacity="1"
     objecttolerance="10"
     gridtolerance="10"
     guidetolerance="10"
     inkscape:pageopacity="0"
     inkscape:pageshadow="2"
     inkscape:window-width="1280"
     inkscape:window-height="734"
     id="namedview4"
     showgrid="false"
     inkscape:zoom="1.1679111"
     inkscape:cx="432.4886"
     inkscape:cy="114.95799"
     inkscape:window-x="0"
     inkscape:window-y="27"
     inkscape:window-maximized="1"
     inkscape:current-layer="svg2" />
  <path
     style="fill:#161616"
     d="m 316.91182,269.71889 c -3.60807,-0.65305 -7.4075,-1.93883 -8.44318,-2.85731 -1.09164,-0.9681 -4.44576,-1.66995 -7.98067,-1.66995 -3.3537,0 -6.42935,-0.53674 -6.83479,-1.19275 -0.40544,-0.65601 -4.43098,-1.19275 -8.94564,-1.19275 -4.51465,0 -8.54019,0.53674 -8.94563,1.19275 -0.40544,0.65601 -3.59182,1.19275 -7.08085,1.19275 -4.18374,0 -6.84926,0.60918 -7.82853,1.78913 -1.86346,2.24533 -17.86498,2.53106 -20.03822,0.35782 -1.11323,-1.11323 -1.74937,-1.11323 -2.8626,0 -2.25122,2.25123 -5.54066,1.69346 -9.97941,-1.69214 -7.79202,-5.94326 -4.66953,-8.66499 7.34095,-6.39877 5.52934,1.04331 8.59368,1.11408 10.42356,0.24075 1.42551,-0.68034 3.56514,-1.55023 4.75474,-1.93309 2.65366,-0.85404 1.51892,-3.09846 -1.56653,-3.09846 -1.2346,0 -2.57644,-0.53673 -2.98188,-1.19275 -0.40544,-0.65601 -2.28402,-1.19275 -4.17463,-1.19275 -1.8906,0 -3.76919,-0.53674 -4.17463,-1.19275 -0.40544,-0.65601 -3.01346,-1.19275 -5.7956,-1.19275 -2.78214,0 -5.56833,-0.48942 -6.19154,-1.0876 -2.16578,-2.07877 -23.19901,-2.17411 -23.19901,-0.1052 0,0.65601 1.05907,1.19275 2.35349,1.19275 2.88082,0 12.0948,5.04857 13.61636,7.46073 0.60957,0.96637 0.77102,2.63599 0.35878,3.71028 -0.66228,1.72585 -3.61975,1.94341 -25.40527,1.86887 -20.13025,-0.0688 -25.17228,-0.4228 -27.46994,-1.92829 -3.65943,-2.39775 -3.55754,-4.38642 0.35609,-6.95072 l 3.17028,-2.07725 -2.8721,-2.17468 c -1.57965,-1.19608 -5.01904,-2.50043 -7.6431,-2.89854 -4.37356,-0.66357 -7.7919,-1.79273 -12.52388,-4.13694 -0.98402,-0.48748 -1.78913,-1.90131 -1.78913,-3.14184 0,-1.77901 0.75594,-2.1908 3.57826,-1.94924 1.96803,0.16845 8.40889,0.62797 14.31301,1.02116 5.90411,0.39319 11.24466,1.19466 11.86787,1.78105 1.67537,1.57638 11.87819,1.29439 13.54699,-0.37441 1.00761,-1.00761 6.90464,-1.41492 19.62075,-1.35516 16.27114,0.0765 18.65367,0.35296 22.68928,2.63332 2.48001,1.40135 5.72727,2.54791 7.21615,2.54791 1.48887,0 3.26049,0.55345 3.93693,1.22989 0.75376,0.75376 7.15739,1.10008 16.54131,0.89456 16.33966,-0.35784 19.29872,-1.54821 12.40168,-4.98891 -4.38223,-2.18614 -8.41255,-2.42952 -11.8207,-0.71379 -1.30313,0.65601 -3.43551,1.72948 -4.73863,2.3855 -4.86532,2.44928 -9.5582,0.64265 -9.5582,-3.67963 0,-3.3725 -5.3082,-5.86238 -12.49811,-5.86238 -3.64005,0 -7.55028,-0.48018 -8.6894,-1.06706 -1.13913,-0.58688 -5.72079,-1.61677 -10.18148,-2.28865 -8.15252,-1.22795 -11.57004,-2.86269 -11.57004,-5.53442 0,-2.06316 5.42972,-4.70096 7.2988,-3.54581 0.85938,0.53113 5.87538,1.16425 11.14668,1.40694 5.27129,0.2427 10.09407,0.94492 10.71728,1.5605 1.522,1.50337 22.98086,1.4374 23.91466,-0.0735 1.10058,-1.78079 33.14701,-1.56204 34.9476,0.23855 1.11323,1.11323 1.74937,1.11323 2.8626,0 0.9627,-0.96271 6.3819,-1.4313 16.55247,-1.4313 12.34161,0 15.40935,0.34726 16.68898,1.8891 1.13585,1.36861 1.22336,2.43667 0.31766,3.87644 -1.00244,1.59353 -3.58604,2.05567 -13.03809,2.33216 -6.48336,0.18965 -12.30368,0.86057 -12.93405,1.49094 -0.63036,0.63036 -2.88567,1.14612 -5.0118,1.14612 -4.46182,0 -5.92495,1.49111 -3.46577,3.53204 1.17958,0.97898 6.61261,1.30918 17.57994,1.06848 8.73002,-0.1916 16.54368,0.0685 17.3637,0.57783 1.9487,1.21056 1.90977,4.91671 -0.0688,6.55885 -0.85791,0.712 -7.16458,1.44864 -14.01483,1.63698 l -12.45506,0.34242 -0.3641,3.14205 c -0.28783,2.48394 0.49113,3.6706 3.71905,5.66556 2.24572,1.38794 5.92519,2.52352 8.1766,2.52352 2.25143,0 4.67567,0.58218 5.38722,1.29373 0.71156,0.71156 2.5633,1.11411 4.11499,0.89456 2.03476,-0.28788 2.92313,-1.279 3.1867,-3.55524 0.57689,-4.98203 3.69316,-6.86852 12.21792,-7.3963 4.23137,-0.26198 8.49851,-0.78966 9.48253,-1.17263 0.98402,-0.38298 3.39934,-0.85358 5.36738,-1.04578 3.09065,-0.30185 3.65951,-0.91833 4.17463,-4.5241 l 0.59637,-4.17463 8.05107,0.40423 c 6.15879,0.30924 8.05107,0.0262 8.05107,-1.20402 0,-2.82083 -4.51373,-4.56025 -12.39727,-4.77748 -8.4752,-0.2335 -13.57796,-2.8093 -12.27774,-6.19762 0.58978,-1.53693 2.47894,-1.94175 9.06142,-1.94175 4.57396,0 8.64802,0.53674 9.05346,1.19275 0.40544,0.65602 2.27093,1.19276 4.14554,1.19276 2.3049,0 4.14714,1.01416 5.69027,3.13253 1.90594,2.61644 2.67618,2.92151 4.67517,1.85169 3.58327,-1.91771 11.34473,-10.90881 10.8093,-12.52179 -0.25708,-0.77444 -3.64398,-1.96926 -7.52646,-2.65515 -7.77449,-1.37347 -12.96749,-3.29361 -14.1701,-5.23948 -0.46608,-0.75414 -5.51932,-1.26632 -12.4937,-1.26632 -8.95474,0 -12.06054,0.42109 -13.19591,1.78913 -0.81667,0.98402 -2.46092,1.78913 -3.65391,1.78913 -1.19298,0 -2.50078,0.53673 -2.90622,1.19275 -0.40544,0.65601 -4.96771,1.19275 -10.13838,1.19275 -5.17068,0 -9.73295,-0.53674 -10.13839,-1.19275 -0.40544,-0.65602 -2.78672,-1.19275 -5.29172,-1.19275 -2.59341,0 -5.19393,-0.77039 -6.03941,-1.78913 -0.85433,-1.0294 -3.45563,-1.78913 -6.12598,-1.78913 -2.55263,0 -5.70734,-0.66585 -7.01047,-1.47966 -1.88582,-1.17771 -2.85281,-1.17771 -4.73863,0 -1.30313,0.81381 -3.11599,1.47966 -4.02859,1.47966 -0.91258,0 -2.32744,0.80511 -3.1441,1.78913 -1.00854,1.21521 -3.71105,1.78913 -8.42491,1.78913 -3.81703,0 -7.27179,0.53673 -7.67723,1.19275 -1.02216,1.65389 -8.16243,1.49884 -9.87572,-0.21445 -1.08111,-1.08111 -2.08516,-1.04437 -4.33272,0.15848 -1.64331,0.87948 -3.87563,1.18146 -5.0933,0.68902 -3.63263,-1.46906 -13.30926,-1.90486 -14.09423,-0.63475 -0.40602,0.65695 -4.44579,1.19445 -8.97727,1.19445 -8.07026,0 -8.36243,-0.10962 -14.26245,-5.34963 -3.31286,-2.94231 -7.37053,-5.68774 -9.01703,-6.101 -1.64649,-0.41324 -10.19766,-0.54083 -19.00257,-0.28352 -14.55067,0.42519 -16.26602,0.70931 -18.83112,3.1191 -2.43851,2.29087 -4.13984,2.65129 -12.51509,2.65129 -5.33112,0 -10.02465,-0.53674 -10.43009,-1.19275 -0.40544,-0.65601 -2.82076,-1.19275 -5.36738,-1.19275 -2.54662,0 -4.96194,-0.53674 -5.36738,-1.19275 -0.90321,-1.46143 -15.18375,-1.59583 -16.75815,-0.15773 -1.72283,1.5737 -8.20337,2.50952 -9.941087,1.43556 -1.982078,-1.225 -1.269934,-6.13855 1.055097,-7.27973 0.98402,-0.48298 3.27745,-1.57437 5.09653,-2.42531 1.81906,-0.85094 3.11831,-2.1208 2.88721,-2.82192 -0.62171,-1.88611 -15.132614,-2.27831 -18.457526,-0.49888 -3.786758,2.02661 -6.821104,0.0318 -6.821104,-4.48413 0,-3.2374 0.364684,-3.49656 5.963754,-4.23832 3.280065,-0.43454 10.016126,-0.83709 14.969026,-0.89456 5.38195,-0.0625 9.59314,-0.69237 10.46634,-1.56557 1.10259,-1.10259 1.99142,-1.12986 3.62267,-0.11116 2.03792,1.2727 19.28723,1.9858 41.01608,1.69564 10.35987,-0.13835 12.01798,-1.78294 5.36738,-5.32366 -2.13205,-1.13508 -7.36524,-4.15422 -11.62933,-6.70921 -4.26408,-2.55499 -10.43657,-6.07881 -13.71663,-7.83071 -3.28007,-1.7519 -7.11861,-4.24349 -8.5301,-5.53688 -5.80963,-5.32345 -54.693886,-27.93368 -68.998726,-31.91364 -3.45528,-0.96135 -15.448737,-5.00221 -33.892793,-11.41923 -6.626876,-2.30561 -11.038861,-4.92241 -17.593076,-10.43466 l -8.7480523,-7.357265 0,-10.24642 c 0,-9.86306 0.1391702,-10.38877 3.7197845,-14.0511 3.3334883,-3.40958 4.4172938,-3.79817 10.4365708,-3.74194 3.694236,0.0345 10.74232,0.82178 15.662418,1.74949 8.505375,1.60373 47.306206,8.25402 80.510684,13.79918 3.93608,0.65733 15.47594,1.87342 25.64414,2.70243 10.1682,0.82901 19.35445,1.90779 20.4139,2.39729 1.05944,0.48949 13.67278,0.69298 28.02964,0.4522 29.22782,-0.49018 38.09804,-1.78113 75.13301,-10.93459 41.49157,-10.25494 47.52772,-10.85793 106.028,-10.59183 36.83499,0.16755 55.99401,0.75231 67.9868,2.07507 35.63719,3.93065 77.57491,7.36127 105.53848,8.63332 l 16.54607,0.75268 15.29378,-14.04299 c 8.41158,-7.72365 16.50114,-14.60061 17.97679,-15.28215 3.63224,-1.677554 11.8784,1.08147 14.30608,4.78658 1.00686,1.53666 1.89011,4.74004 1.96279,7.11862 0.12166,3.98174 -0.55357,4.8837 -8.5153,11.37447 -7.51581,6.12725 -10.71036,10.43731 -7.75288,10.46015 1.01354,0.008 11.26031,1.75359 21.46951,3.6578 9.03651,1.68549 37.96574,3.19114 89.15813,4.64033 113.45315,3.21169 123.16136,3.98165 132.15988,10.481645 4.1399,2.99042 5.07276,4.39843 5.38941,8.1344 0.73644,8.68889 -7.27993,19.5962 -14.40231,19.5962 -1.56608,0 -7.90857,1.08906 -14.09442,2.42012 -6.18584,1.33107 -15.00415,3.21091 -19.59624,4.17743 -13.33375,2.80641 -28.10503,6.70981 -49.49916,13.08047 -3.60807,1.07439 -9.51219,2.7317 -13.12026,3.6829 -3.60807,0.95121 -7.49211,2.25659 -8.63119,2.90086 -22.53477,9.19235 -32.67314,10.58804 -56.97011,20.01553 -1.64003,0.65137 -5.3972,1.88432 -8.34926,2.73988 -17.03057,4.93579 -38.87789,18.54815 -39.58238,24.66247 l -0.37477,3.25278 -13.30393,0.33617 c -9.92584,0.25083 -13.67296,0.78083 -14.75725,2.08732 -0.79933,0.96312 -2.89046,1.75114 -4.64696,1.75114 -1.75652,0 -3.84299,0.64932 -4.63659,1.44293 -0.97022,0.97022 -6.35907,1.45865 -16.44947,1.49093 -14.96504,0.0478 -15.01378,0.0389 -17.62625,-3.23205 -2.48884,-3.11621 -3.12695,-3.28007 -12.77293,-3.28007 -5.58427,0 -42.32245,-7.65487 -42.94566,-8.27331 -0.62321,-0.61843 -21.39145,2.79572 -24.93197,2.59414 -7.23928,-0.41217 -24.44581,-3.89496 -21.66008,-7.25156 1.79995,-2.16879 45.89688,-4.79259 47.16613,-2.73889 0.40544,0.65601 37.00716,7.32037 38.89777,7.32037 1.8906,0 3.71837,0.45453 4.06172,1.01007 0.34333,0.55552 5.8419,1.35279 12.21902,1.77168 6.37712,0.4189 12.13935,1.30622 12.80495,1.97182 1.51148,1.51148 12.27762,1.60204 13.19912,0.11105 0.37362,-0.60455 4.13301,-1.46902 8.35419,-1.92107 5.236,-0.56074 8.32297,-1.53804 9.71432,-3.07547 1.1217,-1.23948 2.94655,-2.25359 4.05523,-2.25359 1.10867,0 2.9814,-1.06699 4.1616,-2.37111 1.1802,-1.30411 5.79231,-4.05188 10.24912,-6.10616 4.45679,-2.05427 9.33624,-5.04747 10.84321,-6.65157 2.45839,-2.61683 6.45806,-4.83117 13.51047,-7.47981 1.31203,-0.49275 6.67941,-2.82991 11.92751,-5.19368 5.2481,-2.36377 11.42059,-4.84043 13.71663,-5.5037 2.29605,-0.66325 7.39506,-2.11505 11.33114,-3.22622 3.93608,-1.11117 7.96161,-2.65237 8.94563,-3.4249 0.98402,-0.77253 5.00955,-2.36339 8.94563,-3.53524 3.93608,-1.17186 13.32899,-4.13142 20.87314,-6.57681 7.54415,-2.44538 21.91922,-6.48595 31.94459,-8.97905 11.10121,-2.76062 18.04904,-5.04439 17.77036,-5.84115 -0.53705,-1.53539 -10.38786,-1.06541 -12.08366,0.57649 -1.73345,1.67838 -27.32538,1.38391 -29.04348,-0.33418 -1.11323,-1.11323 -1.74937,-1.11323 -2.8626,0 -0.88166,0.88165 -5.20596,1.4313 -11.26074,1.4313 -5.40619,0 -10.16116,0.53673 -10.5666,1.19275 -0.40544,0.65601 -3.3575,1.19275 -6.56013,1.19275 -3.20264,0 -6.15469,0.53674 -6.56013,1.19275 -0.40544,0.65601 -4.69935,1.19275 -9.54201,1.19275 -4.84267,0 -9.10394,0.48392 -9.46948,1.07538 -0.36554,0.59148 -3.88698,1.4494 -7.82541,1.9065 -3.93843,0.4571 -7.45987,1.31502 -7.82541,1.90649 -0.36554,0.59146 -3.47767,1.07538 -6.91582,1.07538 -3.43815,0 -6.76109,0.5094 -7.3843,1.13201 -0.62321,0.62261 -4.89028,1.29354 -9.48237,1.49094 l -8.34926,0.35893 -0.59637,5.36738 c -0.51619,4.64572 -0.9973,5.41415 -3.57825,5.71519 -1.64004,0.19129 -4.05536,0.82748 -5.36738,1.41374 -1.31203,0.58626 -6.00284,1.41117 -10.42403,1.8331 -4.42118,0.42194 -8.29019,1.17439 -8.5978,1.6721 -0.3076,0.49772 -5.81001,1.01437 -12.22757,1.14812 -6.41756,0.13375 -12.18299,0.75789 -12.81207,1.38697 -0.62908,0.62908 -3.53528,1.14379 -6.45822,1.14379 -3.81614,0 -6.40515,0.83193 -9.18317,2.95083 -3.35235,2.55696 -4.06351,2.71617 -5.32783,1.19275 -1.69515,-2.04252 -16.06542,-2.51296 -17.26912,-0.56533 -0.40781,0.65983 -5.80349,1.19276 -12.07632,1.19276 -6.31361,0 -12.49382,0.61351 -13.94443,1.38427 -2.86332,1.52139 -15.77529,12.54826 -28.99246,24.75969 l -8.4959,7.84944 0.60074,6.95725 c 0.5984,6.9301 0.57974,6.97898 -4.78466,12.52389 -5.95381,6.15416 -8.53467,10.37217 -7.43505,12.15141 0.39707,0.64245 4.34007,1.1681 8.76225,1.1681 4.58673,0 8.64474,0.60443 9.4475,1.40719 1.08111,1.08111 2.12086,1.02527 4.4868,-0.24093 2.4366,-1.30404 3.5589,-1.34881 5.37528,-0.21446 1.26265,0.78854 5.29254,1.4337 8.95532,1.4337 5.40581,0 7.61119,-0.65471 11.7141,-3.4776 2.77998,-1.91267 5.76029,-4.32799 6.6229,-5.36738 2.13875,-2.57703 8.68594,-2.37677 13.66158,0.41788 3.10375,1.74327 7.64293,2.51441 18.55924,3.15292 7.94784,0.46489 14.73478,1.30501 15.08208,1.86695 0.3473,0.56196 3.56868,1.02173 7.15863,1.02173 4.94266,0 6.70893,0.47367 7.27593,1.95124 1.76959,4.61147 -4.54277,8.00239 -9.72946,5.22656 -1.42234,-0.76121 -4.69685,-1.21159 -7.27669,-1.00085 -4.42665,0.36161 -4.69062,0.60311 -4.69062,4.29132 0,2.17084 -0.79533,4.41615 -1.78913,5.05093 -0.98402,0.62853 -5.95613,1.151 -11.04913,1.16105 -5.093,0.01 -10.46037,0.6388 -11.92751,1.39723 -5.74504,2.96991 -6.89337,3.39203 -9.22763,3.39203 -1.32983,0 -3.48406,0.66586 -4.78719,1.47967 -1.88582,1.17771 -2.85281,1.17771 -4.73863,0 -2.85522,-1.78312 -6.75535,-1.92715 -7.76907,-0.28692 -0.91159,1.47499 -8.24169,1.56731 -11.04913,0.13916 -7.75286,-3.9439 -8.77805,-4.19956 -11.09036,-2.76561 -1.27155,0.78854 -3.38724,2.10071 -4.70153,2.91595 -5.15817,3.1995 -8.76636,-2.86961 -5.47627,-9.2113 2.23861,-4.31488 1.57242,-5.39121 -3.33684,-5.39121 -2.14799,0 -4.28382,-0.37837 -4.74629,-0.84084 -1.25192,-1.25192 -10.57422,-1.34635 -12.97518,-0.13144 -1.14802,0.58092 -2.08732,1.66599 -2.08732,2.41126 0,0.74528 -0.87594,2.32297 -1.94654,3.50597 -1.82246,2.01381 -1.74118,2.22898 1.27546,3.37591 2.3977,0.9116 3.12455,1.91108 2.8411,3.90676 -0.32054,2.2568 -1.23109,2.74218 -5.74611,3.06301 -2.95088,0.20967 -6.35239,1.2746 -7.55891,2.36649 -1.79037,1.62025 -4.86088,1.98875 -16.70068,2.00426 -13.93345,0.0183 -14.52139,-0.0822 -14.8718,-2.54012 -0.90722,-6.36394 -9.97651,-8.72892 -10.76912,-2.80825 -0.21955,1.64004 -0.81168,3.41299 -1.31586,3.93991 -0.50416,0.52692 -8.91234,1.17037 -18.68482,1.42991 -9.77248,0.25953 -21.52532,0.71164 -26.11742,1.0047 -4.59209,0.29306 -11.30131,-0.001 -14.90938,-0.65451 z m 24.1532,-8.57313 c 3.27419,-2.48545 2.52445,-3.11063 -3.7304,-3.11063 -5.46383,0 -9.55514,2.12083 -7.68978,3.98618 1.37351,1.3735 9.25325,0.7694 11.42018,-0.87555 z m -53.3756,-6.68889 c 0,-1.39733 -1.93367,-1.86668 -8.83005,-2.14325 -5.05504,-0.20273 -9.3639,0.17971 -10.07875,0.89456 -0.68678,0.68679 -2.21482,1.24869 -3.39564,1.24869 -1.18082,0 -2.14695,0.55552 -2.14695,1.23448 0,0.79262 4.37596,1.11281 12.22569,0.89456 9.92106,-0.27584 12.2257,-0.67717 12.2257,-2.12904 z m 100.80364,1.19275 c 1.30313,-0.65601 3.4355,-1.72948 4.73863,-2.3855 1.30313,-0.65601 4.22351,-1.19275 6.48973,-1.19275 2.26624,0 4.45215,-0.53674 4.85759,-1.19275 0.41876,-0.67758 6.37373,-1.19275 13.78703,-1.19275 7.17743,0 13.04986,-0.47501 13.04986,-1.05557 0,-3.76871 -14.38475,-6.74484 -17.50741,-3.62218 -1.83723,1.83723 -7.66681,0.86944 -9.16338,-1.52125 -1.83398,-2.92972 0.41514,-8.38515 4.20605,-10.20209 1.75699,-0.8421 3.483,-2.92802 3.94458,-4.7671 1.06702,-4.25138 2.80264,-6.26508 5.3999,-6.26508 3.2247,0 5.39911,3.17338 3.63274,5.30173 -0.78669,0.9479 -1.25496,2.96067 -1.0406,4.47282 0.32146,2.26761 1.11503,2.74933 4.52915,2.74933 3.14401,0 4.47279,-0.66872 5.52585,-2.78094 0.76255,-1.52953 3.05953,-4.50713 5.10442,-6.61692 2.04488,-2.10978 3.71796,-4.48862 3.71796,-5.28631 0,-0.79767 0.62145,-2.44542 1.38099,-3.66165 1.94377,-3.11246 0.4327,-6.10557 -3.0824,-6.10557 -2.25769,0 -3.72266,1.28596 -6.11453,5.36738 -1.73001,2.95206 -3.91645,5.36738 -4.85872,5.36738 -3.17261,0 -3.13062,-3.60466 0.0988,-8.48467 3.6523,-5.519 3.2846,-8.21384 -1.12074,-8.21384 -2.36989,0 -8.07469,5.13216 -25.97978,23.37201 -12.61867,12.85461 -23.12797,23.87578 -23.354,24.49149 -1.36296,3.71286 6.5866,6.02829 11.75827,3.42478 z m 116.27703,0 c 0.40544,-0.65601 2.28402,-1.19275 4.17462,-1.19275 1.89061,0 3.76919,-0.53673 4.17463,-1.19275 0.40544,-0.65601 2.20836,-1.19275 4.00648,-1.19275 1.79812,0 3.7792,-0.49129 4.40242,-1.09175 0.62321,-0.60046 2.36202,-1.27139 3.86404,-1.49094 3.53294,-0.51641 3.53294,-2.66746 0,-3.18388 -1.50202,-0.21955 -3.24083,-0.89047 -3.86404,-1.49094 -1.51475,-1.45945 -6.29307,-1.39257 -7.21615,0.10103 -0.40544,0.65601 -3.71061,1.19275 -7.34483,1.19275 -3.63421,0 -8.56736,0.86878 -10.96255,1.93062 -2.39518,1.06185 -6.09928,2.69724 -8.23133,3.63422 -3.82869,1.6826 -4.63237,2.82366 -3.08126,4.37475 1.27279,1.27279 19.26582,0.9165 20.07797,-0.39758 z M 267.41266,234.18011 c 0.40544,-0.65601 2.3157,-1.19275 4.24502,-1.19275 1.92932,0 3.50786,-0.53674 3.50786,-1.19275 0,-0.65602 -1.88587,-1.19275 -4.19082,-1.19275 -2.30494,0 -5.25886,-0.66701 -6.56424,-1.48225 -2.4052,-1.50206 -5.92199,-0.3713 -6.7715,2.17726 -0.8149,2.44469 8.37011,5.15427 9.77368,2.88324 z m 142.86835,-33.3788 7.41826,-7.13828 8.65761,-0.0182 8.6576,-0.0182 10.87106,-9.84019 c 5.97907,-5.41211 13.04468,-11.7544 15.70136,-14.09398 6.69586,-5.89667 5.37713,-7.4551 -5.5474,-6.55575 -4.6868,0.38583 -35.52685,1.53835 -68.53344,2.56114 -54.83921,1.69935 -63.62948,1.69395 -101.98021,-0.0627 -40.29326,-1.84564 -62.01318,-4.05242 -66.94121,-6.80134 -1.27089,-0.70893 -13.34749,-3.08162 -26.83689,-5.27264 -13.4894,-2.19095 -26.94149,-5.01601 -29.89355,-6.27781 -2.95206,-1.26181 -10.73476,-4.27058 -17.29489,-6.68618 -6.56013,-2.41558 -13.35216,-5.15894 -15.09341,-6.09637 -1.74125,-0.93742 -4.57802,-1.7044 -6.30392,-1.7044 -1.7259,0 -4.33155,-0.78205 -5.79036,-1.7379 -2.24173,-1.46883 -25.537345,-7.79784 -28.719449,-7.80257 -2.660968,-0.004 2.297441,3.41449 10.20891,7.03826 4.797629,2.1975 9.528059,4.47377 10.512079,5.05837 0.98402,0.58461 7.69325,4.0515 14.90939,7.70422 24.2123,12.25597 27.61438,14.17394 32.04787,18.06746 2.42772,2.13204 5.18958,3.87644 6.13746,3.87644 0.94788,0 4.5522,2.15854 8.00956,4.79678 3.45738,2.63822 7.62799,5.12925 9.26802,5.53564 1.64004,0.40637 5.75117,3.07846 9.13587,5.93797 3.38469,2.85952 6.54946,5.19912 7.03281,5.19912 0.48336,0 3.41841,2.28114 6.52235,5.06919 3.10393,2.78806 8.06004,6.82686 11.01357,8.97512 l 5.37005,3.90591 23.44527,0.16553 c 16.43564,0.11606 23.86015,-0.24939 24.833,-1.22223 0.76326,-0.76327 3.12731,-1.38776 5.25343,-1.38776 2.12613,0 4.19741,-0.53673 4.60285,-1.19275 0.40544,-0.65601 5.50445,-1.19275 11.33114,-1.19275 5.82668,0 10.92569,0.53674 11.33113,1.19275 0.40544,0.65602 2.47672,1.19275 4.60285,1.19275 2.12613,0 4.53641,0.67093 5.35619,1.49094 1.00131,1.00162 5.56129,1.49094 13.89389,1.49094 8.33148,0 12.89339,-0.48946 13.89598,-1.49094 0.82092,-0.82001 4.30563,-1.49094 7.74378,-1.49094 3.43815,0 6.58291,-0.53673 6.98835,-1.19275 0.40544,-0.65601 2.28402,-1.19275 4.17463,-1.19275 1.8906,0 3.76919,0.53674 4.17463,1.19275 0.40544,0.65602 2.80894,1.19275 5.34111,1.19275 4.03764,0 6.37211,0.79805 14.33928,4.9019 0.98402,0.50687 6.50198,0.95314 12.26213,0.99171 l 10.47301,0.0701 7.41825,-7.13828 z m -252.78018,-0.57318 c 3.87824,-2.93815 1.04019,-4.21605 -9.36326,-4.21605 -5.49868,0 -10.32932,-0.53674 -10.73476,-1.19275 -0.40544,-0.65601 -4.99939,-1.19275 -10.20878,-1.19275 -5.51924,0 -9.47161,0.49772 -9.47161,1.19275 0,0.65601 1.47603,1.19605 3.28006,1.2001 1.80404,0.004 4.81745,0.80915 6.69648,1.78912 1.87902,0.97998 4.93358,1.78178 6.78792,1.78178 1.85433,0 3.70324,0.53674 4.10868,1.19275 1.13786,1.8411 16.33126,1.3951 18.90527,-0.55495 z m 355.02214,-40.59495 c 0,-0.98402 -0.50506,-1.78913 -1.12236,-1.78913 -1.50403,0 -2.58123,1.86259 -1.62831,2.81551 1.34327,1.34326 2.75067,0.8181 2.75067,-1.02638 z m 34.58977,0 c 1.14432,-1.37881 4.30743,-1.78913 13.79229,-1.78913 6.76909,0 12.59724,-0.46889 12.95143,-1.04199 0.35419,-0.57308 5.17728,-1.27991 10.71798,-1.57072 9.52165,-0.49976 14.6218,-2.29217 13.17646,-4.63077 -0.71167,-1.15151 -14.23484,-0.69969 -17.83751,0.59596 -1.31202,0.47185 -3.28581,1.33566 -4.38621,1.9196 -1.10038,0.58393 -9.95656,1.40418 -19.68039,1.82275 -17.58496,0.75698 -24.23981,2.1257 -24.23981,4.98546 0,2.27169 13.59059,2.01649 15.50576,-0.29116 z M 386.08389,153.492 c 2.92618,-0.58523 9.21139,-6.01504 25.79324,-22.28285 12.05835,-11.82998 21.92428,-22.15242 21.92428,-22.93875 0,-0.96932 -4.12871,-1.70536 -12.82208,-2.28581 -13.70328,-0.91497 -55.8049,-4.35661 -55.8049,-9.263055 0,-5.42306 40.13485,-3.54224 73.02379,-2.12822 16.93414,0.72805 38.84041,1.81399 48.6806,2.41318 9.8402,0.59919 19.64154,0.78512 21.78078,0.41316 2.13923,-0.37196 4.55455,-0.14651 5.36738,0.501 0.81282,0.64752 5.79858,1.54098 11.07946,1.98549 8.67725,0.730375 9.91163,0.564305 12.82207,-1.72505 5.55227,-4.36741 4.23859,-5.64852 -6.61972,-6.45559 -46.40756,-3.44933 -64.38937,-4.6396 -77.23062,-5.1121 -8.20016,-0.30175 -15.41929,-1.03716 -16.0425,-1.63426 -1.60501,-1.53778 -127.92503,-1.4328 -128.87673,0.10711 -0.40544,0.65601 -4.43098,1.19275 -8.94563,1.19275 -4.51466,0 -8.49649,0.46603 -8.84852,1.03561 -0.35203,0.5696 -3.62339,1.06244 -7.26969,1.0952 -3.6463,0.0328 -9.42825,0.86714 -12.84879,1.85416 -16.3285,4.71171 -21.3437,5.888 -31.8633,7.47334 -6.23212,0.93921 -12.66185,2.278655 -14.28827,2.976565 -1.62644,0.69791 -9.83062,1.57461 -18.23152,1.94824 -8.40092,0.37363 -15.5555,1.13418 -15.89909,1.69011 -0.89621,1.45009 -33.57523,1.27762 -34.47731,-0.18197 -0.40544,-0.65601 -2.35225,-1.19275 -4.32625,-1.19275 -6.04319,0 -51.39816,-6.550895 -74.693492,-10.788425 -14.843535,-2.70012 -20.636261,-3.32902 -31.537503,-3.42394 -6.35741,-0.0553 -11.890653,-0.63738 -12.296093,-1.29339 -1.046889,-1.69392 -15.323545,-1.49425 -17.056338,0.23855 -3.838368,3.83837 1.111608,9.30345 8.426571,9.30345 2.187922,0 4.567818,0.58978 5.288657,1.31062 0.720839,0.72084 7.741275,2.017845 15.600979,2.882255 7.859704,0.8644 15.294156,2.14677 16.521008,2.84971 1.226863,0.70294 16.454201,4.82925 33.838545,9.16956 17.384346,4.34032 33.186756,8.70762 35.116466,9.7051 1.92972,0.99749 4.88178,2.24319 6.56013,2.76822 1.67836,0.52503 5.86943,2.06829 9.3135,3.42946 15.43272,6.09933 18.97817,7.24585 22.40688,7.24585 2.0101,0 4.28797,0.63325 5.06192,1.4072 1.03268,1.03267 2.1279,1.06504 4.115,0.12161 1.48929,-0.70707 4.58637,-2.10973 6.88242,-3.11704 2.29604,-1.0073 6.84677,-4.62448 10.11271,-8.0382 3.26596,-3.4137 8.67401,-8.22787 12.0179,-10.69814 3.34389,-2.47028 8.12696,-6.42214 10.62907,-8.78194 l 4.54928,-4.29051 13.84798,0.0429 c 12.52559,0.0388 14.14572,0.29507 16.96587,2.68369 1.99788,1.69217 3.3803,4.35138 3.84837,7.40272 0.69275,4.51602 0.41068,5.08575 -5.46265,11.03295 -3.40621,3.449 -6.79991,6.27097 -7.54155,6.27097 -4.66103,0 -19.50432,12.77576 -17.88584,15.3945 0.44326,0.71721 2.35279,1.30401 4.24339,1.30401 1.89061,0 3.76919,0.53674 4.17463,1.19275 0.40939,0.66241 5.87692,1.19275 12.29662,1.19275 l 11.55946,0 4.77047,-4.69972 c 2.62376,-2.58486 5.75813,-5.6711 6.96528,-6.85832 1.20715,-1.18723 11.1368,-11.12262 22.06589,-22.07865 12.05054,-12.08024 21.04465,-20.156775 22.85297,-20.521495 1.64003,-0.33078 15.52568,-0.90593 30.857,-1.27808 29.21405,-0.70915 31.16604,-1.45433 31.16604,3.38682 0,3.515895 -3.86775,9.516755 -17.86348,24.019805 -19.9156,20.6375 -27.46105,29.17051 -27.46105,31.05516 0,1.4764 3.83834,1.74549 24.89867,1.74549 13.69428,0 26.63971,-0.34821 28.76764,-0.7738 z M 264.52361,112.035 c -2.29908,-2.77021 -21.58352,-6.41858 -18.72908,-6.41858 1.97946,0 81.02319,-10.438785 81.02319,-6.562345 0,5.020225 -59.94086,15.816415 -62.29411,12.980925 z m 53.04277,37.90836 c 1.62587,-1.06531 5.14166,-4.68829 7.81285,-8.05106 2.67118,-3.36277 8.43381,-9.98253 12.80584,-14.71056 12.10031,-13.08562 14.85107,-16.8221 14.00583,-19.02478 -0.66896,-1.74328 -2.55567,-1.87044 -16.99879,-1.14559 -8.93547,0.44843 -17.05501,1.26789 -18.04341,1.82104 -4.28476,2.39786 -29.71985,29.03039 -32.33068,33.85274 -4.68846,8.65983 -3.86136,9.19515 14.20707,9.19515 12.37331,0 16.19437,-0.39917 18.54129,-1.93694 z m 97.74739,0.74419 c 0.40544,-0.65602 2.82076,-1.19276 5.36738,-1.19276 2.54662,0 4.96194,0.53674 5.36738,1.19276 0.78869,1.27613 23.23998,1.64487 27.67934,0.4546 1.55571,-0.41712 7.48837,-7.17431 14.5113,-16.52812 6.53385,-8.70239 13.26652,-17.20933 14.96151,-18.90431 5.49781,-5.49782 4.38782,-6.32603 -9.62766,-7.18357 -24.09225,-1.4741 -19.43634,-3.65058 -43.01875,20.10982 -11.40203,11.4881 -20.40323,21.41775 -20.00266,22.06589 0.94324,1.52619 3.8154,1.51757 4.76216,-0.0143 z m 70.69419,-4.03192 c 5.63545,-3.59622 8.9789,-7.32328 11.55195,-12.87736 2.60186,-5.61627 2.08656,-9.92762 -1.18659,-9.92762 -2.69378,0 -22.01838,19.6799 -22.01838,22.4232 0,4.16697 5.44204,4.34527 11.65302,0.38178 z m 64.34301,-2.6105 c 5.37226,-0.84968 5.89725,-2.54478 2.0363,-6.57477 -2.98267,-3.11322 -4.11683,-3.48133 -10.72627,-3.48133 -7.14613,0 -7.53811,0.16292 -11.83443,4.91842 -2.6542,2.93787 -3.93926,5.23003 -3.19129,5.69231 1.33804,0.82695 17.34761,0.45254 23.71569,-0.55463 z m 84.42896,-8.86335 c 0.40544,-0.65601 5.40195,-1.19605 11.10335,-1.20009 6.8628,-0.005 11.52078,-0.60952 13.78258,-1.78913 2.3181,-1.20897 6.99267,-1.78178 14.5408,-1.78178 6.12965,0 11.45538,-0.53553 11.86156,-1.19275 0.40668,-0.65803 5.75389,-1.19275 11.92751,-1.19275 6.17362,0 11.52083,-0.53472 11.92751,-1.19275 0.41886,-0.67772 6.37912,-1.19275 13.80322,-1.19275 8.24195,0 13.92983,-0.53945 15.40559,-1.46108 1.84613,-1.15292 2.64769,-1.15292 3.80062,0 1.68492,1.68492 21.93534,2.07166 22.94488,0.43821 0.34768,-0.56259 11.96143,-1.29488 25.80831,-1.62733 26.69921,-0.64101 29.73296,-1.33868 28.10638,-6.46358 -1.48759,-4.68698 -4.31802,-5.13256 -33.45788,-5.26704 -15.59139,-0.0719 -28.38673,-0.61632 -28.76209,-1.22366 -0.91716,-1.48398 -14.52033,-1.39703 -15.44475,0.0988 -0.40544,0.65602 -3.62587,1.19275 -7.15651,1.19275 -3.53064,0 -6.75107,-0.53673 -7.15651,-1.19275 -0.43201,-0.69902 -7.34422,-1.19275 -16.69851,-1.19275 -10.20714,0 -16.25026,-0.46746 -16.76274,-1.29667 -0.57708,-0.93375 -1.16433,-0.93375 -2.09807,0 -1.51191,1.5119 -13.50874,1.7664 -14.4115,0.30571 -0.33684,-0.54503 -10.16399,-1.08815 -21.8381,-1.20693 -21.29159,-0.21665 -30.93011,-0.95117 -33.15316,-2.5265 -2.59892,-1.84169 -15.15806,-3.53963 -31.78867,-4.297695 l -17.47566,-0.79657 -11.15036,10.870455 c -9.0398,8.81288 -10.81171,11.09327 -9.36123,12.04758 0.98402,0.64741 3.23347,1.18533 4.99879,1.19537 1.76532,0.01 3.5414,0.555 3.94684,1.21101 0.40544,0.65602 2.05461,1.19275 3.66483,1.19275 3.16827,0 6.78433,1.72374 10.81871,5.15717 3.32879,2.83296 24.37127,4.39903 27.22992,2.02658 2.91433,-2.41868 7.38837,-14.14767 3.94641,-16.40292 -3.77172,-2.47134 -147.06848,-12.74041 -143.58693,-15.89118 2.00292,-1.812615 141.6333,8.17066 149.16259,8.74009 4.90535,0.37099 9.47344,1.01732 10.15134,1.43628 1.58172,0.97756 1.61561,12.17095 0.0398,13.14486 -0.65602,0.40544 -1.19275,2.01565 -1.19275,3.57825 0,1.5626 -0.5717,3.19443 -1.27045,3.62627 -0.83165,0.51398 -0.56181,1.56822 0.78123,3.05228 2.23157,2.46585 11.67143,3.2452 13.0131,1.07433 z M 512.75589,122.43475 c 2.48198,-2.37789 3.34533,-4.34104 3.34533,-7.60684 0,-5.25512 -2.62764,-8.16042 -5.34263,-5.90719 -3.30115,2.73972 -5.45463,8.61285 -4.6773,12.75633 0.90058,4.80059 2.29009,4.95832 6.6746,0.7577 z m 30.7786,109.42794 c -6.00019,-3.30132 -9.7959,-3.95692 -26.98159,-4.66031 -18.18593,-0.74432 -18.95385,-0.8771 -19.30462,-3.33799 -0.6089,-4.27172 5.4667,-6.38279 18.36942,-6.38279 6.09839,0 11.40883,0.53611 11.81465,1.19275 0.40544,0.65601 2.28402,1.19275 4.17463,1.19275 1.89061,0 3.76919,0.53674 4.17463,1.19275 0.40544,0.65601 1.76263,1.19275 3.01599,1.19275 1.25335,0 4.19006,1.07348 6.52602,2.3855 3.18483,1.78882 6.45807,2.3855 13.08614,2.3855 4.86143,0 9.17068,-0.53673 9.57612,-1.19275 0.40544,-0.65601 2.82076,-1.19275 5.36738,-1.19275 2.54662,0 4.96194,-0.53674 5.36738,-1.19275 0.40544,-0.65601 2.55239,-1.19275 4.771,-1.19275 2.21862,0 4.36557,-0.53674 4.77101,-1.19275 0.40544,-0.65601 4.93765,-1.19275 10.0716,-1.19275 8.66835,0 9.47543,0.21518 11.31031,3.01557 1.08672,1.65856 1.65352,3.53714 1.25953,4.17463 -0.39398,0.63748 -5.21526,1.15905 -10.71393,1.15905 -5.49868,0 -10.32932,0.53674 -10.73476,1.19275 -0.40544,0.65602 -3.08913,1.19276 -5.96376,1.19276 -2.87462,0 -5.55831,0.53673 -5.96375,1.19275 -0.88967,1.43952 -31.38978,1.5006 -33.9934,0.0681 z m 88.67784,-0.70889 c -1.10211,-2.87206 3.03371,-6.5157 7.39586,-6.5157 6.00246,0 6.46559,3.72157 0.8535,6.85832 -3.63401,2.03113 -7.39846,1.87479 -8.24936,-0.34262 z m -490.63489,-3.77317 c -2.95206,-0.2792 -5.87728,-1.01048 -6.5005,-1.62508 -1.51584,-1.49488 -12.24735,-1.43358 -13.17989,0.0753 -1.20236,1.94543 -6.0392,1.35983 -8.16439,-0.98848 -7.35491,-8.12709 5.06413,-10.7402 31.05255,-6.53383 9.28787,1.50329 13.01618,1.68386 14.58166,0.7062 1.1568,-0.72244 5.14883,-1.69403 8.8712,-2.15911 3.72234,-0.46507 7.06087,-1.31961 7.41892,-1.89894 1.26954,-2.05417 9.59936,-1.14522 11.80115,1.28772 3.68287,4.06952 1.58593,6.00818 -6.49867,6.00818 -3.96557,0 -8.14214,0.47412 -9.28126,1.0536 -5.61577,2.85675 -8.69675,3.62467 -16.38414,4.08361 -4.59209,0.27415 -10.76458,0.27002 -13.71663,-0.01 z M 640.7839,211.56227 c -2.63174,-2.90803 -1.79443,-5.32455 2.567,-7.40856 2.08338,-0.99549 3.513,-2.73067 3.76902,-4.57455 0.65025,-4.68326 2.4511,-5.95258 8.44522,-5.95258 4.81553,0 6.14041,0.57433 9.62994,4.17463 3.79548,3.91593 4.51996,4.17462 11.69112,4.17462 6.41427,0 8.21533,-0.47997 11.18844,-2.98168 2.6487,-2.22873 4.3488,-2.79226 6.73232,-2.23151 8.38496,1.97262 6.02697,6.7227 -3.77856,7.61179 -5.18758,0.47036 -7.14864,1.21899 -8.59227,3.28007 -1.02881,1.46882 -2.5795,2.67059 -3.446,2.67059 -0.8665,0 -2.24363,0.80511 -3.06029,1.78913 -0.81666,0.98402 -3.23199,1.78912 -5.36738,1.78912 -2.13539,0 -4.55071,-0.8051 -5.36738,-1.78912 -0.81666,-0.98402 -3.23198,-1.78913 -5.36738,-1.78913 -2.13539,0 -4.55071,0.80511 -5.36738,1.78913 -2.23858,2.69732 -11.05799,2.34138 -13.67642,-0.55195 z"
     id="path2995"
     inkscape:connector-curvature="0"
     sodipodi:nodetypes="csssssssssssssssssssssssssscsssssssssssssssssssssssscssssssssssccscsssssssssscsssssssssssssssssssssssssssssssssssssssssssssssscscsssssssscsscssssssssscssssscsssssssssccsscssssssssscssssssssssssssssssssssssssssssssssscsssscssssssssccsscsssssssssssssssscssssssssssssssssssssssssccssssssssssscsssssssssssssssssssssssscccssssssssssssccsssssssccccsssssssssssscssssssssssscssssssssssssssssscccssssscsssssssssssssssssssssssssssssssssssssssssssssssssssssssssssssscssssssssscssssssssssssssssssscssssssssssssssssssssssssccsssssssscsssscssssssssscsscssssssssssssccssssscsssssssssssssssssssssccsssscsssssssssssccsssssssssssssssss" />
</svg>
