<?xml version="1.0" encoding="UTF-8" standalone="no"?>
<!-- Created with Inkscape (http://www.inkscape.org/) -->

<svg
   width="183.18777mm"
   height="132.29167mm"
   viewBox="0 0 183.18777 132.29167"
   version="1.1"
   id="svg1"
   inkscape:version="1.3.1 (9b9bdc1480, 2023-11-25, custom)"
   sodipodi:docname="Auto Rickshaw Election Symbol.svg"
   xmlns:inkscape="http://www.inkscape.org/namespaces/inkscape"
   xmlns:sodipodi="http://sodipodi.sourceforge.net/DTD/sodipodi-0.dtd"
   xmlns="http://www.w3.org/2000/svg"
   xmlns:svg="http://www.w3.org/2000/svg">
  <sodipodi:namedview
     id="namedview1"
     pagecolor="#ffffff"
     bordercolor="#000000"
     borderopacity="0.25"
     inkscape:showpageshadow="2"
     inkscape:pageopacity="0.0"
     inkscape:pagecheckerboard="0"
     inkscape:deskcolor="#d1d1d1"
     inkscape:document-units="mm"
     inkscape:zoom="0.74297138"
     inkscape:cx="276.59208"
     inkscape:cy="428.0111"
     inkscape:window-width="1872"
     inkscape:window-height="1016"
     inkscape:window-x="0"
     inkscape:window-y="0"
     inkscape:window-maximized="1"
     inkscape:current-layer="layer1" />
  <defs
     id="defs1" />
  <g
     inkscape:label="Layer 1"
     inkscape:groupmode="layer"
     id="layer1"
     transform="translate(-57.457409,-59.269815)">
    <g
       id="g1">
      <path
         id="path33"
         style="fill:#000000;stroke-width:1.56277"
         d="m 122.15337,59.271483 c -28.362524,0.05375 -37.852131,1.419442 -45.69421,5.762159 -1.910609,1.058018 -5.08424,2.760244 -7.05267,3.78274 -4.795814,2.491134 -7.014055,6.779653 -8.681589,16.78412 -2.203738,13.221574 -2.942042,25.370288 -3.107605,51.165608 l -0.159887,24.91817 1.781538,0.4466 c 2.111676,0.52998 2.055478,0.2057 0.622644,3.63495 -0.636865,1.52424 -1.15727,5.04972 -1.15727,7.83523 0,4.06168 0.445595,5.94874 2.252372,9.52794 2.587104,5.12507 3.823482,6.34062 7.698739,7.57033 8.993379,2.85382 20.073117,-1.61804 24.42796,-9.85903 0.589199,-1.11499 1.866257,-2.20903 2.837868,-2.43165 0.971596,-0.22264 6.23734,-1.99544 11.70114,-3.93944 9.752,-3.4697 10.02838,-3.51974 15.05347,-2.73529 2.81544,0.4395 16.40829,0.99264 30.20706,1.22994 21.14694,0.36368 26.46276,0.22761 33.83073,-0.86896 4.80774,-0.71554 10.16275,-1.80313 11.90063,-2.41629 4.91646,-1.73465 5.81348,-1.07291 5.88974,4.34159 0.0913,6.48577 3.11592,11.41938 8.80354,14.36054 3.81508,1.97288 12.52227,2.34992 15.92484,0.68969 1.52742,-0.7453 3.29769,-1.61019 3.93457,-1.92207 2.40875,-1.17958 6.07967,-7.0491 7.01068,-11.20933 1.13247,-5.06039 0.25581,-8.9583 -3.15847,-14.03508 -1.18675,-1.76462 -2.36521,-3.86023 -2.61821,-4.65737 -0.25299,-0.79715 -1.46915,-2.04603 -2.703,-2.77488 -2.01868,-1.19249 -2.20268,-1.62944 -1.83565,-4.36583 0.99447,-7.4144 -1.41793,-8.78411 -10.39772,-5.90347 -1.53304,0.49178 -1.73631,0.29165 -1.73631,-1.70643 0,-1.24509 -0.66723,-3.11127 -1.48193,-4.14698 -1.40386,-1.78473 -1.42049,-2.16352 -0.3295,-7.24489 0.63313,-2.94887 1.21262,-9.70341 1.28811,-15.01064 l 0.13736,-9.64989 -3.03251,-5.7896 c -1.66763,-3.18434 -4.09868,-7.35326 -5.40276,-9.263852 -1.30407,-1.910608 -4.36214,-6.947418 -6.79506,-11.193194 -3.75672,-6.55602 -4.25111,-7.84872 -3.28123,-8.576601 1.69011,-1.268369 1.40286,-2.04965 -1.42782,-3.882071 -3.44612,-2.230839 -12.71985,-4.697624 -24.83498,-6.606076 -8.41632,-1.325784 -14.39442,-1.617524 -37.0538,-1.808199 -4.87235,-0.04095 -9.30897,-0.06017 -13.36074,-0.05251 z m 19.0292,1.406831 c 1.64995,0.03688 3.80424,0.123296 6.65778,0.240652 11.30865,0.465255 31.65891,2.749197 36.30759,4.075091 2.25476,0.643083 2.12359,0.757667 -4.96506,4.319805 -4.00445,2.012251 -7.99029,4.155418 -8.85682,4.762354 -1.45689,1.020433 -4.40427,1.486454 -5.15566,0.815662 -0.706,-0.630269 -11.76082,-1.230376 -22.9016,-1.242879 -11.21308,-0.01246 -11.77223,-0.08595 -11.77223,-1.541698 0,-2.299772 2.34106,-7.888899 4.14454,-9.893774 1.17597,-1.307281 1.59166,-1.645639 6.54146,-1.535213 z m -15.26341,0.05658 c 3.65874,-0.04579 6.10428,0.0175 6.32099,0.234197 0.3024,0.302398 -3.79001,11.402326 -4.66221,12.645237 -0.14096,0.20091 -2.48247,0.276581 -5.20329,0.167968 -9.09653,-0.36291 -24.896643,2.846744 -32.269653,6.555206 -2.750461,1.38342 -4.07051,2.647866 -5.05228,4.84068 l -1.328488,2.968704 -6.147368,-5.133028 c -3.381106,-2.82303 -7.361257,-6.09907 -8.843899,-7.280423 l -2.694921,-2.148197 2.093267,-1.716934 c 3.793508,-3.112026 14.793637,-8.162057 19.521046,-8.96181 5.395046,-0.912711 27.290556,-2.034052 38.266806,-2.171607 z m 67.26488,7.496843 c 4.30514,0 3.47897,1.418255 -2.53178,4.346452 -6.16279,3.002242 -7.19977,3.239487 -11.52268,2.637582 l -3.47344,-0.483743 4.24549,-2.01333 c 7.6664,-3.63609 10.18475,-4.486961 13.28241,-4.486961 z m 2.29358,5.411658 c 0.7119,-0.0047 1.77628,0.947499 2.36542,2.115083 2.40707,4.770449 6.41495,11.634898 9.12656,15.631694 3.88175,5.721526 6.89842,11.243378 6.89842,12.626658 0,1.18888 -11.29191,7.21723 -12.06699,6.44212 -0.76646,-0.76645 0.276,-1.7064 3.90471,-3.51866 3.31522,-1.65572 5.14643,-4.02003 2.17967,-2.81444 -0.74302,0.30193 -2.33897,0.84504 -3.54694,1.20734 -1.20798,0.3623 -3.69806,1.88942 -5.5336,3.3935 -3.202,2.6238 -4.98581,3.3894 -5.02644,2.15626 -0.0111,-0.31843 -1.05722,-4.40048 -2.32585,-9.07085 -5.21372,-19.193798 -6.11602,-22.970522 -5.662,-23.705154 0.63936,-1.034499 8.0609,-4.454174 9.68704,-4.463551 z m -60.93745,0.994944 c 1.00463,0.160217 1.25799,1.605741 1.20654,5.235611 -0.0704,4.957279 0.65759,6.424669 2.96706,5.98423 1.59443,-0.304071 2.35065,-3.301232 1.19605,-4.738929 -0.40747,-0.507355 -0.5685,-2.050773 -0.35775,-3.430646 l 0.3836,-2.509169 h 6.76356 6.76356 l 0.48213,2.412262 c 0.26537,1.326816 0.4754,5.235126 0.46759,8.684807 l -0.0156,6.27175 -8.66947,3.60749 c -4.76818,1.983918 -9.57021,3.831297 -10.67148,4.105785 l -2.00201,0.49909 -0.50717,-8.278596 c -0.82703,-13.516673 -0.6814,-17.070452 0.72117,-17.608673 0.51827,-0.19888 0.93708,-0.288411 1.27196,-0.235012 z m -16.96422,0.95053 c 3.33957,-0.07736 9.07979,0.125332 9.35107,0.433687 0.15238,0.17325 0.69009,9.346943 1.19523,20.385969 1.20635,26.363065 1.55415,33.067385 1.98909,38.404905 0.61766,7.57934 -0.86548,5.83149 -5.07488,-5.98262 -3.11896,-8.75369 -5.82356,-12.29494 -10.72075,-14.03429 l -3.71976,-1.3204 -0.31415,-7.19159 c -0.45587,-10.423337 0.0859,-17.209727 1.37372,-17.209727 2.24267,0 3.63282,-3.677706 3.19885,-8.463533 -0.27886,-3.075395 -0.12486,-4.648567 0.47406,-4.844728 0.28828,-0.0944 1.13432,-0.151903 2.24752,-0.177673 z m 12.04762,0.362612 c 0.57879,0 0.90619,2.404072 0.97152,7.140702 0.0543,3.927345 0.1789,7.834859 0.27781,8.684011 0.0989,0.849153 0.41241,6.060509 0.69614,11.580016 0.28373,5.5195 0.67418,12.11917 0.86816,14.66663 0.19398,2.54748 0.5421,8.45295 0.77287,13.12332 0.23078,4.67038 0.56717,10.40212 0.74782,12.73731 0.18068,2.33516 0.55124,9.36997 0.82293,15.63248 0.43878,10.11383 0.35619,11.3862 -0.73731,11.3862 -1.01047,0 -1.25285,-1.07213 -1.35272,-5.98262 -0.0669,-3.29046 -0.0849,-6.50381 -0.0403,-7.14071 0.0446,-0.63686 -0.24222,-5.49991 -0.6372,-10.80715 -0.39496,-5.30721 -1.07784,-18.68186 -1.51663,-29.72088 -0.43881,-11.03904 -1.01047,-24.847218 -1.27115,-30.685155 -0.34193,-7.657265 -0.23135,-10.614154 0.39815,-10.614154 z m 44.48847,0 c 0.90576,0 0.90669,0.30729 0.004,2.045633 -0.58368,1.125014 -1.51848,2.335528 -2.07712,2.690076 -1.64658,1.043952 -2.02253,0.795611 -2.57137,-1.703212 -0.61047,-2.779389 -0.0811,-3.619649 1.46902,-2.333122 0.75513,0.626707 1.26694,0.661541 1.60792,0.109865 0.27516,-0.445205 0.98008,-0.809208 1.5667,-0.809208 z m -108.773374,0.25117 c 0.585448,-0.224665 4.048069,2.1068 7.825529,5.269507 3.726448,3.119967 7.729104,6.417011 8.894797,7.327268 1.898935,1.482828 2.126226,2.165481 2.184517,6.561661 0.0358,2.69864 0.33817,6.990953 0.671918,9.538433 0.333732,2.54747 0.391851,4.8162 0.128461,5.04096 -0.60442,0.51569 -23.990426,-0.50412 -24.557168,-1.07086 -0.67781,-0.67779 1.233955,-20.455044 2.572164,-26.608444 0.67648,-3.110636 1.702289,-5.836907 2.27983,-6.058525 z m 94.942584,0.231777 c 0.52509,-0.01984 1.22444,0.0032 2.15305,0.03625 2.0687,0.07314 4.04867,0.419872 4.39974,0.771247 0.79216,0.792831 3.61454,22.508958 3.94587,30.359695 0.22371,5.30023 0.11397,5.80754 -1.29941,6.00039 -1.19643,0.16323 -7.34232,-3.43601 -9.42698,-5.52068 -0.1801,-0.18011 -0.51966,-6.3542 -0.75428,-13.720132 -0.23464,-7.365899 -0.47154,-14.434682 -0.52655,-15.70841 -0.0741,-1.715293 -0.0666,-2.159043 1.50856,-2.218445 z m -52.40364,0.286691 c 1.13426,-0.08533 1.06942,0.280847 0.61215,1.6184 -0.76648,2.242262 -0.77193,4.907849 -0.0413,22.121481 0.39958,9.41267 0.31962,13.31634 -0.27295,13.31634 -0.46107,0 -0.86002,-0.78183 -0.88674,-1.73712 -0.16645,-5.95243 -1.41058,-14.599525 -2.24509,-15.60505 -0.75435,-0.908944 -2.64665,-1.184728 -8.125972,-1.184728 H 89.775446 L 89.292499,92.838166 C 88.596734,89.359323 88.69905,85.60851 89.550123,83.37 c 0.607438,-1.597662 1.921127,-2.305523 7.346646,-3.960414 3.633671,-1.108339 7.871411,-2.221164 9.417301,-2.472037 0.6746,-0.109546 1.1854,-0.187971 1.56348,-0.21643 z m 70.77712,0.728443 c 2.22181,0.243764 3.97721,5.231392 8.14049,20.969855 1.30347,4.927523 2.37028,9.329403 2.37028,9.781523 0,0.45211 -0.95558,1.01138 -2.12316,1.24288 -8.13736,1.61344 -7.76548,1.68388 -8.31817,-1.57238 -0.58049,-3.42014 -2.15782,-12.200891 -3.55258,-19.775437 -1.04339,-5.666251 -0.49992,-8.665179 1.83565,-10.131192 0.59774,-0.375208 1.13475,-0.571509 1.64749,-0.515249 z m -22.13926,0.668683 c 0.38523,0.112523 0.94657,6.509261 1.42782,17.711239 0.51918,12.084866 0.45433,13.316336 -0.70017,13.316336 -1.07477,0 -1.27197,-0.95145 -1.27197,-6.13041 0,-3.371554 -0.2963,-6.312973 -0.65818,-6.536623 -0.36188,-0.223649 -2.5328,0.30293 -4.82453,1.170194 -2.29173,0.867281 -5.03505,1.861881 -6.0965,2.210366 -1.06143,0.348483 -3.49377,1.356933 -5.40438,2.241053 -1.9106,0.88412 -4.1684,1.60453 -5.01756,1.59984 -1.52335,-0.008 -1.52371,-0.0228 -0.0451,-1.14111 0.82416,-0.62336 2.09828,-1.13305 2.83141,-1.13305 0.73314,0 4.78968,-1.563655 9.0143,-3.474247 4.22463,-1.910593 8.24792,-3.473451 8.94082,-3.473451 1.09129,0 1.27314,-1.265321 1.35675,-9.456868 0.0487,-4.776185 0.21628,-6.970766 0.4474,-6.903269 z m -45.71923,1.905107 c 0.47562,-0.01094 0.97875,1.358681 0.80274,1.855833 -0.2012,0.568196 -1.01272,0.898848 -1.01272,0.898848 -0.43023,-0.755541 -0.50795,-2.144619 0.009,-2.659382 0.0647,-0.06439 0.13237,-0.09376 0.20029,-0.09533 z m 59.74464,2.102158 c 0.12975,-0.0062 0.28089,0.0015 0.45386,0.0015 1.57053,0 2.07464,2.185596 6.38157,27.67447 0.2978,1.76248 0.0929,2.80372 -0.64205,3.26911 -2.75128,1.74205 -3.77681,0.85308 -3.86027,-3.34583 -0.11424,-5.75097 -0.37239,-8.35344 -1.77105,-17.889727 -1.31074,-8.937259 -1.46968,-9.666829 -0.56206,-9.709632 z m -32.32457,0.0015 c 0.42458,0 0.77125,0.347485 0.77125,0.77206 0,0.424576 -0.34667,0.772044 -0.77125,0.772044 -0.42457,0 -0.77205,-0.347468 -0.77205,-0.772044 0,-0.424575 0.34748,-0.77206 0.77205,-0.77206 z m -29.11681,1.82031 c 0.16922,-0.08017 0.45896,0.09658 0.94003,0.495856 0.9238,0.766699 1.39153,0.766699 2.31535,0 1.22756,-1.018792 1.50699,-0.263501 0.68968,1.866334 -0.47214,1.230424 -2.69445,1.660876 -3.64868,0.706643 -0.28305,-0.283051 -0.51444,-1.194245 -0.51444,-2.02463 0,-0.627252 0.0488,-0.964016 0.21806,-1.044203 z m -22.986422,1.891372 c 0.454723,-0.277269 1.315158,4.293097 2.185345,13.128979 1.174273,11.923549 2.020863,18.300899 3.259429,24.564439 0.230995,1.16811 1.10287,1.79613 2.988082,2.14979 3.131937,0.58756 5.257022,3.54941 7.397516,10.31373 6.17134,19.5026 8.96518,23.31025 17.12814,23.33932 1.82556,0.007 3.8404,0.34837 4.47728,0.75993 2.16815,1.40118 -7.83836,0.72567 -12.92143,-0.87218 -2.11286,-0.66418 -2.97906,-1.76681 -5.59658,-7.12456 -1.70329,-3.48639 -3.0971,-6.78266 -3.0971,-7.32483 0,-1.29451 -2.130945,-8.24326 -3.627698,-11.82876 -1.360541,-3.25916 -3.994638,-5.79608 -6.729645,-6.48251 -2.104111,-0.52811 -2.990832,-3.38304 -3.940221,-12.6848 -0.281676,-2.75976 -0.662635,-5.88623 -0.847152,-6.94769 -0.184518,-1.06144 -0.550818,-6.13355 -0.813256,-11.271522 -0.324604,-6.355312 -0.216366,-9.503688 0.137365,-9.719336 z m 10.95495,11.169753 c 3.314652,0.0047 6.605062,0.261734 7.010682,0.764792 0.42176,0.523079 0.94312,4.163873 1.15889,8.091233 0.30134,5.48444 0.16384,7.14071 -0.59357,7.14071 -1.13597,0 -1.9121,-2.38975 -1.92772,-5.93255 -0.006,-1.35225 -0.3491,-3.34943 -0.76317,-4.4385 -0.70997,-1.86734 -1.06311,-1.98022 -6.199864,-1.98022 -4.197378,0 -5.552026,-0.27326 -5.904277,-1.191197 -0.25142,-0.655181 -0.222775,-1.425522 0.06377,-1.712088 0.501622,-0.501638 3.840596,-0.747448 7.155237,-0.74218 z m 56.543352,1.3293 c 0.44862,0 0.81567,0.984161 0.81567,2.186145 0,2.23215 -0.97764,3.05245 -5.65313,4.74782 -2.51263,0.91107 -2.60364,3.48722 -0.12365,3.48878 1.2716,8.5e-4 1.5312,0.52486 1.5312,3.08823 0,2.97225 -0.12933,3.12972 -3.47425,4.24469 -4.46983,1.48994 -7.08041,2.97643 -8.33757,4.74781 -1.22736,1.72943 -3.80567,3.18918 -4.22932,2.3945 -0.17038,-0.31958 -0.40106,-3.53341 -0.51202,-7.14231 -0.11092,-3.60892 -0.2528,-7.40901 -0.31577,-8.44416 -0.095,-1.56378 0.40799,-2.03818 2.97354,-2.80394 1.6983,-0.50692 6.10744,-2.17799 9.79848,-3.71411 3.69102,-1.536104 7.07813,-2.793455 7.52674,-2.793455 z m -63.256837,3.860275 h 5.041778 c 5.623729,0 5.415659,-0.21781 6.094059,6.36866 l 0.4571,4.4385 -2.515638,-0.12924 c -8.793983,-0.45364 -9.045075,-0.65917 -9.066797,-7.39751 z m 63.127617,3.19724 c 0.83101,0.0342 0.93224,1.08426 0.86412,5.61598 l -0.0879,5.83967 -2.91861,0.78581 c -3.77315,1.01599 -10.04333,4.5247 -10.57862,5.91962 -0.22903,0.59685 -0.0216,5.50153 0.46034,10.89921 0.48195,5.39771 1.02854,14.10588 1.21461,19.35146 0.37883,10.68042 0.50414,10.92644 6.35007,12.41263 6.6826,1.69892 13.93457,0.69602 18.66338,-2.58105 1.58711,-1.09986 3.04986,-1.99958 3.25055,-1.99958 0.39724,0 0.0778,5.56574 -0.47002,8.19216 h 8.1e-4 c -0.32673,1.56627 -0.7464,1.62758 -10.58103,1.54413 -16.54784,-0.1405 -17.57448,-0.27248 -17.56667,-2.25237 0.004,-0.93205 -0.73197,-11.92305 -1.63538,-24.42472 l -1.64263,-22.7304 1.64909,-1.33495 c 0.90667,-0.73418 3.93342,-2.09496 6.72642,-3.02442 l 5.07812,-1.69028 -0.26652,-5.10882 c -0.22866,-4.38127 -0.0737,-5.14662 1.08782,-5.37369 0.15018,-0.0294 0.28348,-0.0453 0.40219,-0.0403 z m 61.0279,1.51182 c 0.51811,0.0566 0.5957,0.54125 0.35372,1.46658 -0.25277,0.96659 -0.0233,1.5441 0.61297,1.5441 0.7905,0 0.81012,0.20581 0.0897,0.92631 -1.0912,1.09118 -1.24721,2.45073 -0.20755,1.8082 0.39524,-0.24428 0.91225,-0.13065 1.14918,0.25276 0.62129,1.00525 -1.63043,2.65424 -2.71187,1.98587 -0.52749,-0.32599 -1.44869,0.14815 -2.18614,1.12578 -1.69806,2.25118 -2.37351,1.36317 -2.37351,-3.12052 0,-3.32904 0.23447,-3.83191 2.27739,-4.88835 1.51937,-0.78569 2.47806,-1.15736 2.99617,-1.10073 z m -3.34342,3.01068 c -0.68695,0 -1.03446,0.34749 -0.77205,0.77206 0.2624,0.42459 0.60988,0.77125 0.77205,0.77125 0.16218,0 0.50886,-0.34666 0.77125,-0.77125 0.26241,-0.42457 -0.0842,-0.77206 -0.77125,-0.77206 z m -150.245484,0.5807 c 0.486446,0.10736 6.005373,0.40911 12.264042,0.66948 8.013953,0.33339 11.622256,0.77437 12.200251,1.49163 1.036561,1.28635 3.007852,15.3589 2.30971,16.48853 -0.342358,0.55398 -5.079754,0.84071 -13.888928,0.84071 -10.646878,0 -13.555539,-0.22464 -14.284639,-1.10317 -0.58398,-0.70366 -0.856904,-3.56423 -0.752667,-7.89822 0.182627,-7.59314 0.836494,-10.77954 2.152231,-10.48896 z m 124.983294,0.32626 c 0.75135,-0.047 0.94488,0.30837 0.94488,1.27922 0,0.87014 -0.31952,1.78046 -0.71068,2.0222 -0.99012,0.6113 -4.87968,1.00982 -6.044,0.61861 -2.43439,-0.81797 -0.3222,-2.44593 4.85927,-3.7464 0.38781,-0.0974 0.70007,-0.15795 0.95053,-0.17363 z m 21.41484,0.0125 c 0.12809,0.13127 0.34557,1.80188 0.48294,3.71249 l 0.24955,3.47343 -3.83042,0.94893 c -2.10644,0.52162 -6.4419,1.3339 -9.63533,1.80496 -3.19342,0.47107 -7.28334,1.04425 -9.0878,1.27436 l -3.28043,0.41833 v -3.18756 -3.18834 h 3.7771 c 2.6454,0 3.91008,-0.34711 4.22127,-1.15809 0.30108,-0.78464 1.53112,-1.15808 3.81505,-1.15808 1.8538,0 5.54998,-0.71505 8.21317,-1.58933 2.66323,-0.8743 4.94674,-1.48238 5.0749,-1.3511 z m -48.60557,0.008 c 3.57786,-0.35 8.40312,4.10135 5.94224,5.48191 -1.58854,0.89121 -4.66924,1.06827 -6.60526,0.37957 -1.83769,-0.65373 -2.12959,-1.13855 -1.92934,-3.20047 0.20223,-2.08211 0.57298,-2.46347 2.59236,-2.66101 z m 53.90982,0.87785 c -0.0922,0.0178 -0.19348,0.0588 -0.29963,0.1244 -0.42457,0.26241 -0.77205,0.82477 -0.77205,1.24935 0,0.42457 0.34748,0.55716 0.77205,0.29477 0.42459,-0.26241 0.77207,-0.82396 0.77207,-1.24854 0,-0.31843 -0.19563,-0.47342 -0.47244,-0.41995 z m -23.86992,0.0953 c 0.0465,0.0174 0.0975,0.0894 0.15097,0.22209 0.21414,0.53072 0.21414,1.39942 0,1.93014 -0.21415,0.53072 -0.38925,0.0964 -0.38925,-0.96508 0,-0.79602 0.0986,-1.23916 0.23824,-1.18715 z m -94.838423,2.02624 c 1.265211,-0.008 3.144438,0.21135 5.31636,0.6606 2.961643,0.61261 2.892773,0.64248 -1.691085,0.72765 -2.628566,0.0487 -4.993379,-0.25864 -5.255786,-0.68322 -0.285082,-0.46125 0.365315,-0.69697 1.630511,-0.70503 z m 9.902663,0.70503 c 0.6118,0 1.32774,0.34747 1.59015,0.77205 0.2624,0.42457 -0.23864,0.77205 -1.11286,0.77205 -0.8742,0 -1.58935,-0.34748 -1.58935,-0.77205 0,-0.42458 0.50025,-0.77205 1.11206,-0.77205 z m 4.54512,0.93679 c 0.45473,-0.005 1.18465,0.0361 2.18453,0.11549 6.64973,0.52839 10.3883,4.83345 14.06659,16.20023 1.07844,3.33269 2.6571,7.241 3.50897,8.68482 1.96441,3.32943 1.46175,3.3946 -0.89724,0.11632 -1.83728,-2.5533 -3.34579,-6.06283 -4.3965,-10.22812 -1.7174,-6.808 -6.14487,-12.25704 -10.96707,-13.49803 -3.74869,-0.9653 -4.86353,-1.37854 -3.49928,-1.39067 z m 67.638,1.08378 c 1.27621,0.11784 2.48593,1.66317 2.23703,3.4266 -0.19785,1.40167 -0.8117,1.94895 -2.38885,2.13043 -1.89048,0.21753 -2.12317,-0.004 -2.12317,-2.02786 0,-1.24995 0.46252,-2.6568 1.02807,-3.12617 0.38864,-0.32253 0.82152,-0.44228 1.24692,-0.403 z m -83.716294,0.0251 4.376316,0.18817 c 2.407322,0.10357 7.430348,0.63952 11.161688,1.19118 6.19735,0.91631 6.97055,1.22676 8.93921,3.5849 1.18532,1.41982 2.15465,3.02844 2.15465,3.57519 0,0.94235 -5.41876,1.4934 -6.27417,0.63801 -0.19609,-0.19609 -4.45936,-0.68471 -9.47382,-1.0854 -5.014463,-0.40072 -9.473496,-1.08429 -9.908308,-1.5191 -0.434797,-0.43479 -0.8324,-2.09151 -0.883503,-3.68178 z m 76.899424,0.6695 c 0.5325,0.15174 0.68242,0.84367 0.68242,2.50675 0,1.51898 0.49291,3.3103 1.0951,3.98062 0.60219,0.67028 1.18893,3.03423 1.30426,5.25336 0.11549,2.21911 0.0568,4.14399 -0.13002,4.27698 -0.35225,0.25069 -2.4027,0.0544 -6.70866,-0.64203 l -2.50838,-0.4054 v -6.89844 -6.89761 l 2.12316,-0.44739 c 1.16759,-0.24596 2.73042,-0.56782 3.47345,-0.71473 0.27116,-0.0536 0.49119,-0.0626 0.66867,-0.0125 z m -11.10999,1.20492 c 0.2523,-0.0483 0.59864,-0.001 1.05955,0.0637 1.77714,0.25118 1.86426,0.54523 2.07792,7.01636 0.20988,6.35593 0.13086,6.75465 -1.35027,6.75465 -1.11601,0 -1.57653,-0.50479 -1.57966,-1.73631 -0.003,-0.95531 -0.22971,-4.1132 -0.50393,-7.01714 -0.37164,-3.93564 -0.4605,-4.93663 0.29639,-5.08135 z m -3.38541,0.5233 c 0.89898,0.20533 1.04493,1.32245 1.51181,5.54813 0.80874,7.32004 0.3923,8.86697 -2.72884,10.13687 -1.38528,0.56364 -4.18012,1.99524 -6.21118,3.18108 -4.22901,2.46915 -4.08866,2.62872 -4.74216,-5.38823 -0.66488,-8.15618 -0.23196,-9.20079 4.71874,-11.39022 2.30744,-1.02046 5.12522,-1.95251 6.26206,-2.07065 0.50671,-0.0526 0.8899,-0.0853 1.18957,-0.017 z m 53.94774,4.37715 c 0.24387,-0.0229 0.40796,-0.007 0.46841,0.0541 0.24182,0.2418 0.007,2.42545 -0.52332,4.8528 -1.61868,7.41991 -3.97655,21.75184 -3.97655,24.16871 0,1.68592 -0.47494,2.46429 -1.81223,2.97273 -1.71165,0.65076 -3.88699,4.15863 -4.48051,7.22469 -0.19176,0.99062 -2.47064,2.1565 -7.92487,4.0533 -4.2106,1.46428 -8.39624,2.66264 -9.30182,2.66264 -0.90557,0 -2,0.35252 -2.43165,0.78417 -2.02419,2.02418 -2.37438,-3.23803 -1.0644,-16.00078 0.4266,-4.15627 0.86099,-11.36689 0.96507,-16.02417 l 0.18896,-8.46837 5.4044,-0.88108 c 14.7841,-2.41237 17.25942,-2.92552 20.7502,-4.30042 1.55396,-0.61206 3.00676,-1.02993 3.73831,-1.09832 z m -71.43448,1.54167 c 0.0411,0.007 0.086,0.0364 0.1357,0.0904 0.37429,0.40742 0.89582,4.99633 1.15888,10.19742 0.54776,10.83042 0.0935,12.83553 -0.61215,2.70139 -0.25865,-3.71505 -0.64065,-8.30318 -0.84878,-10.19663 -0.19329,-1.75857 -0.12075,-2.83964 0.16636,-2.79263 z m -38.410539,1.08943 7.939409,0.55482 c 10.01113,0.69944 9.9549,0.69088 9.69833,1.52069 -0.11784,0.38107 -2.95989,2.53013 -6.31535,4.77608 -3.35548,2.24595 -6.2078,4.08399 -6.33876,4.08399 -0.13097,0 -0.59395,-1.30303 -1.02967,-2.8952 -0.43575,-1.59218 -1.50407,-4.05242 -2.37352,-5.46738 z m -7.714102,1.61599 c 1.968305,0.29935 5.362274,4.06779 6.92993,8.70985 0.885799,2.623 1.610336,5.0232 1.610336,5.33413 0,0.76645 -10.747162,1.10896 -26.825686,0.85443 L 59.47638,142.30463 v -5.38663 -5.38581 h 15.052652 15.05345 v -1.92931 c 0,-1.54131 0.600171,-2.12193 1.494847,-1.98588 z m 114.303741,0.143 c -0.225,0.0251 -0.53897,0.1076 -0.95297,0.22611 -0.96453,0.27644 -6.30279,1.42054 -11.86346,2.54229 l -10.11101,2.03998 -0.91097,12.02663 c -0.50137,6.61456 -1.12077,14.37091 -1.37613,17.23716 l -0.46437,5.21219 2.60851,-0.50959 c 1.43478,-0.27991 5.08099,-1.62897 8.10255,-2.99777 5.02216,-2.2751 5.53831,-2.72435 6.00927,-5.23479 0.31976,-1.70443 1.42422,-3.511 2.91134,-4.76235 2.11563,-1.78018 2.4667,-2.66617 3.00425,-7.57277 0.80568,-7.35397 1.94299,-13.53839 2.9913,-16.26565 0.60359,-1.57025 0.72669,-2.01663 0.0518,-1.94144 z m -85.22488,0.3198 c 0.23661,0.0544 0.41659,0.31449 0.60085,0.79467 0.82704,2.15526 0.57504,2.48626 -4.00403,5.26792 -2.46386,1.49669 -5.81148,3.77947 -7.4395,5.07326 -3.39632,2.69904 -3.94403,2.82939 -4.60891,1.09669 -0.7293,-1.90052 0.95717,-3.43841 3.16332,-2.8847 1.55746,0.39088 1.85366,0.21654 1.64909,-0.97233 -0.19071,-1.10818 0.16669,-1.40422 1.52069,-1.25904 1.30938,0.14035 1.71055,-0.16112 1.54331,-1.15808 -0.1661,-0.99011 0.23494,-1.2989 1.51099,-1.16373 1.15221,0.122 1.73713,-0.23055 1.73713,-1.04745 0,-0.7777 0.42703,-1.06793 1.15808,-0.78739 0.67588,0.25936 1.15808,0.0125 1.15808,-0.59438 0,-0.57156 0.48037,-1.43869 1.06764,-1.9261 0.41323,-0.34296 0.70667,-0.49369 0.94326,-0.43934 z m 78.30304,5.13223 c 0.21924,-0.0141 0.36836,0.007 0.42639,0.0637 0.23217,0.23215 -1.9e-4,3.90453 -0.51603,8.16069 -0.92821,7.65852 -0.96627,7.75653 -3.71976,9.53278 -2.227,1.43662 -2.8288,2.35158 -3.01555,4.58305 -0.17565,2.09905 -0.70942,3.00417 -2.15948,3.66486 -3.82922,1.74469 -4.39543,1.27885 -3.85544,-3.17462 0.27027,-2.22905 0.80414,-7.42953 1.18635,-11.55579 0.78401,-8.46402 1.01553,-9.09427 3.34423,-9.09427 0.91604,0 3.16116,-0.57136 4.98928,-1.26953 1.3711,-0.52366 2.66227,-0.86894 3.32001,-0.91097 z m -77.49948,0.0897 c 0.38153,-0.0368 0.80766,0.14925 1.1193,0.64123 1.28317,2.02587 0.68252,3.39813 -2.58347,5.90347 -12.14711,9.31754 -11.26363,8.7961 -12.13402,7.16978 -0.55777,-1.04206 -0.54974,-1.64901 0.0267,-2.00525 0.45463,-0.28098 0.64213,-0.99218 0.41671,-1.57964 -0.45981,-1.19824 1.71567,-2.61246 3.19967,-2.08035 0.53074,0.1903 0.96508,-0.16555 0.96508,-0.79063 0,-0.62506 0.60728,-1.08859 1.35029,-1.02967 0.74302,0.0589 1.26888,-0.31395 1.16777,-0.82939 -0.10892,-0.55561 0.30274,-0.75073 1.0111,-0.47891 0.80152,0.30758 1.34111,-0.10413 1.64102,-1.25095 0.30201,-1.15485 0.63478,-1.40608 1.02564,-0.77367 0.75711,1.22502 2.52109,0.12504 1.99555,-1.2445 -0.34913,-0.90979 0.16279,-1.58993 0.79871,-1.65152 z m 42.60275,1.15565 c 7.28576,0.14862 8.61939,0.58689 8.61939,2.8306 0,1.36997 -1.19484,2.54125 -5.07732,4.97558 -6.18323,3.8768 -9.14385,4.56748 -16.15098,3.76903 -6.95001,-0.79197 -7.4916,-1.02435 -7.1948,-3.08904 0.18759,-1.30481 1.91509,-2.54822 7.16816,-5.16048 6.45141,-3.20814 7.30892,-3.43428 12.63555,-3.32569 z m -40.06693,4.48941 c 0.39831,-0.0125 1.01397,0.49154 1.48436,1.52391 0.48666,1.0681 0.88431,2.06318 0.88431,2.21118 0,0.14799 -3.31,2.91067 -7.35634,6.13928 -4.04633,3.22863 -7.53164,5.87037 -7.74478,5.87037 -0.21313,0 -0.67557,-0.77942 -1.02806,-1.73228 -0.74605,-2.01675 1.23837,-5.39017 2.83787,-4.82372 0.54851,0.19425 1.3288,-0.54033 1.75005,-1.64829 0.64155,-1.68742 0.94425,-1.84636 1.94387,-1.01675 0.99491,0.82571 1.25505,0.71402 1.62486,-0.70019 0.26101,-0.9981 0.95186,-1.59961 1.69756,-1.47789 0.84523,0.13792 1.17802,-0.2596 1.01513,-1.21299 -0.19574,-1.14575 0.0863,-1.31461 1.4674,-0.87623 1.35933,0.43142 1.61409,0.2924 1.24127,-0.67918 -0.39706,-1.03474 -0.2158,-1.56451 0.1825,-1.57722 z m 91.33269,0.45708 c 0.50153,0.12075 1.04567,1.2706 1.21864,3.3507 0.1811,2.17756 -0.12269,3.27013 -1.11205,3.99352 -0.74895,0.54766 -1.64243,0.99576 -1.98587,0.99576 -0.8812,0 -0.7779,-1.35853 0.14705,-1.93015 0.4246,-0.2624 0.77206,-1.87461 0.77206,-3.58327 0,-2.03844 0.45868,-2.94733 0.96022,-2.82656 z m -43.17695,2.21522 c 0.37123,-0.0263 0.53058,0.19329 0.53058,0.6388 0,0.37931 -2.86585,2.32543 -6.36864,4.32464 -6.26617,3.57642 -9.50917,4.43694 -14.08759,3.73753 -4.48509,-0.68513 -8.10577,-1.87225 -8.10577,-2.65777 0,-0.43765 0.67911,-0.57894 1.51342,-0.31416 0.83268,0.26429 4.34642,0.62345 7.80777,0.7979 6.98075,0.35181 9.59989,-0.39926 14.84752,-4.25842 2.03717,-1.49814 3.24401,-2.22466 3.86271,-2.26852 z m -34.53413,2.56249 c 0.0363,0.0521 0.0755,0.26903 0.11701,0.66708 0.16654,1.59217 0.16654,4.19741 0,5.78958 -0.16652,1.59216 -0.30284,0.28995 -0.30284,-2.89439 0,-2.38825 0.0773,-3.71833 0.18574,-3.56228 z m -9.90186,0.0662 c 0.51026,-0.13002 0.99536,0.0111 1.66446,0.36907 1.38346,0.74042 1.63319,1.64107 1.73226,6.24185 0.0637,2.95711 0.15049,5.81047 0.19302,6.34119 0.0892,1.11606 -4.40537,1.37423 -11.50169,0.65981 -3.93864,-0.39654 -4.63919,-0.69721 -4.67998,-2.01008 -0.0709,-2.28159 1.18409,-3.68116 2.39774,-2.67392 1.10673,0.91853 2.31405,-0.27072 1.5425,-1.51909 -0.24428,-0.39524 -0.0907,-0.93663 0.3408,-1.20331 0.45336,-0.2802 0.78417,0.34927 0.78417,1.49082 0,2.43172 1.49897,2.64656 1.66202,0.23824 0.0647,-0.95529 0.19776,-2.08379 0.29638,-2.50837 0.0986,-0.42457 0.22476,-1.11954 0.28023,-1.54411 0.0555,-0.42459 0.40469,-0.29358 0.77528,0.29154 0.37622,0.59389 1.08919,0.80754 1.61439,0.48294 0.67859,-0.41944 0.69989,-0.72984 0.0775,-1.11447 -0.5677,-0.35087 -0.22453,-1.13304 1.00303,-2.28628 0.77198,-0.72524 1.30762,-1.12582 1.81787,-1.25581 z m 98.23192,0.4466 v 3.84089 3.84008 h -6.94768 c -5.31087,0 -6.9477,-0.24518 -6.9477,-1.04016 0,-1.23468 7.81131,-5.45421 11.387,-6.15142 z m -98.81095,0.73329 c -0.42458,0 -0.77205,0.34748 -0.77205,0.77206 0,0.42458 0.34747,0.77205 0.77205,0.77205 0.42457,0 0.77205,-0.34747 0.77205,-0.77205 0,-0.42458 -0.34748,-0.77206 -0.77205,-0.77206 z m 101.12711,0 c 0.42458,0 0.77206,1.3899 0.77206,3.08823 0,1.69831 -0.34748,3.08741 -0.77206,3.08741 -0.42457,0 -0.77205,-1.3891 -0.77205,-3.08741 0,-1.69833 0.34748,-3.08823 0.77205,-3.08823 z m -56.72506,0.17928 c 1.19847,-0.32892 1.25393,1.23783 0.86171,6.18936 -0.48658,6.14258 -0.60704,6.45805 -3.39188,8.87945 -1.58803,1.38078 -4.13946,2.85638 -5.66926,3.27962 v 8e-4 c -5.88787,1.62894 -10.50062,1.60405 -15.8764,-0.0839 -2.38256,-0.74813 -2.46026,-0.91716 -2.9792,-6.45506 -0.29305,-3.12781 -0.32822,-6.01874 -0.0776,-6.42436 0.28228,-0.45673 2.15118,-0.33809 4.90933,0.31093 2.44955,0.57642 5.62725,1.05329 7.06075,1.05955 2.37234,0.0111 9.70863,-3.15465 13.55701,-5.85018 0.67924,-0.47573 1.206,-0.79646 1.60548,-0.90611 z m -32.74208,0.69535 c 0.0665,-0.0872 0.26857,0.041 0.62022,0.36421 0.58945,0.54176 0.82444,2.51111 0.64529,5.40358 l -0.28187,4.55076 -0.14611,-3.98949 c -0.0803,-2.19428 -0.37049,-4.62582 -0.64526,-5.40358 -0.18944,-0.53615 -0.25862,-0.83832 -0.1922,-0.92548 z M 82.915037,152.458 c 12.529637,0.23506 15.395573,1.40334 17.04254,6.94931 0.894383,3.01169 0.982063,4.73738 0.382803,7.53156 -0.427514,1.99348 -1.412347,4.59143 -2.187751,5.77346 l -1.409253,2.14899 -0.499886,-3.12697 c -0.970894,-6.07165 -5.411986,-12.06701 -10.910536,-14.72883 -4.035442,-1.95351 -11.566589,-2.07348 -15.399918,-0.24548 -3.031386,1.44554 -4.293317,0.96492 -2.654537,-1.01111 2.241573,-2.70288 5.902855,-3.47355 15.636538,-3.29093 z m 54.966123,3.77791 c 0.0373,0.045 0.0782,0.23325 0.12117,0.57823 0.17123,1.37987 0.17123,3.63847 0,5.01835 -0.17117,1.37988 -0.31093,0.25058 -0.31093,-2.50917 0,-2.06982 0.0781,-3.22266 0.18978,-3.08741 z m 2.07147,1.27436 c 0.31843,0.19802 0.57904,3.29277 0.57904,6.87664 v 6.51562 h -2.08439 c -1.62112,0 -1.87857,-0.20581 -1.15809,-0.92631 0.5095,-0.50949 0.92712,-1.74584 0.92712,-2.74741 0,-1.12254 0.32379,-1.62056 0.84474,-1.2986 0.58679,0.36266 0.76381,-0.89899 0.57904,-4.12839 -0.14644,-2.55808 -0.007,-4.48956 0.31254,-4.29155 z m -12.63635,2.68363 c 0.41975,0.004 0.81034,0.0615 1.07168,0.16718 0.52264,0.21144 -0.0919,0.37112 -1.36564,0.35533 -1.27373,-0.0158 -1.70083,-0.18868 -0.94973,-0.38441 0.37555,-0.0979 0.82394,-0.14331 1.24369,-0.1382 z m -51.026713,2.61578 c 0.475664,-0.028 0.980051,-0.003 1.550575,0.0655 5.512035,0.65487 9.700646,5.27474 9.620007,10.61011 -0.06877,4.54561 -1.140627,6.33683 -5.417315,9.04904 -4.15859,2.63729 -4.922149,2.70668 -9.057921,0.82535 -3.865085,-1.7582 -4.707986,-2.77988 -5.848549,-7.08338 -1.206827,-4.55339 0.316634,-8.29159 4.662211,-11.43949 1.898543,-1.37532 3.064034,-1.94331 4.490992,-2.02704 z m 150.182493,1.21623 c 0.40689,-0.0141 0.97622,0.0702 1.70725,0.25358 8.23416,2.06665 7.57671,15.03763 -0.94245,18.59717 -8.21454,3.43225 -15.685,-1.27572 -15.685,-9.8857 0,-4.11221 2.16931,-6.82705 3.84331,-4.81 0.77548,0.93446 0.78342,1.64399 0.0364,3.44758 -1.17589,2.83888 -0.0557,6.73757 2.67392,9.30183 1.50433,1.4132 2.43337,1.6734 4.67837,1.3091 3.3077,-0.53678 4.66318,-1.53873 6.26043,-4.6275 1.64063,-3.17261 0.78524,-8.29204 -1.82112,-10.8984 -1.72987,-1.72989 -1.97167,-2.64692 -0.75106,-2.68766 z m -3.44597,1.47303 c 0.36667,0 1.55542,0.88916 2.64163,1.97538 2.57199,2.57202 3.41501,7.27938 1.7565,9.81058 -0.6745,1.02941 -2.17696,2.29593 -3.33858,2.81446 -1.94769,0.86937 -1.90921,0.77118 0.49424,-1.26064 2.26044,-1.91094 2.53679,-2.52008 2.08278,-4.58712 -0.28791,-1.31081 -1.37365,-3.18178 -2.41307,-4.15826 -1.82413,-1.71369 -2.59139,-4.5944 -1.2235,-4.5944 z m -3.11811,0.77207 c 0.4001,0 0.92844,0.76644 1.17343,1.70321 0.56013,2.14192 -0.0486,2.88246 -0.75267,0.9158 -0.28773,-0.80376 -0.66398,-1.72154 -0.83585,-2.03998 -0.17187,-0.31843 0.0157,-0.57903 0.41509,-0.57903 z m -2.48333,0.80031 c 0.45602,-0.10856 1.12964,0.47174 1.4795,1.57401 0.27964,0.88113 0.36704,1.74317 0.19383,1.9164 -0.5053,0.50529 -2.14173,-1.4161 -2.14173,-2.51484 0,-0.59686 0.19478,-0.9104 0.4684,-0.97557 z m -139.659616,0.0161 c -0.93762,0.0162 -1.977791,0.24932 -3.148782,0.69453 -2.220007,0.84406 -4.368971,4.45762 -3.957194,6.65453 0.152996,0.81602 0.305071,1.74413 0.337576,2.06258 0.0325,0.31843 0.7539,1.274 1.603069,2.12314 2.425637,2.42567 6.382081,2.05247 8.80836,-0.831 2.487087,-2.95574 2.61411,-6.51962 0.319808,-8.96181 -1.122639,-1.19499 -2.400134,-1.76911 -3.962837,-1.74197 z m -0.489399,1.80738 c 0.905443,-0.007 1.842752,0.24515 2.73935,0.83262 2.398993,1.57189 2.476398,5.16113 0.158279,7.3208 -2.098033,1.95462 -5.377824,2.02996 -7.068017,0.16232 -3.08657,-3.41062 0.246825,-8.28736 4.170388,-8.31574 z m 144.913785,2.9049 c 1.58722,-0.14127 2.48575,0.86776 2.48575,2.91136 0,3.02173 -2.17452,4.31034 -4.51199,2.67311 -2.2228,-1.5569 -2.11827,-3.99137 0.21725,-5.05549 0.67421,-0.30721 1.27993,-0.48186 1.80899,-0.52898 z"
         sodipodi:nodetypes="sssssccsssssssssssssssssssssssssccssssssssssssscsssssscsccccccsssssccssssssssssssssssssccccccccsccssssssscccsssssscsssssssssssssscsssssssssssssssssssssssssssssccsssssssssssssssssssscsssssssscssssssssssssssssssssssssssssssssssssssssscsssssssssssssssssscssccscsccsssssssccsssccccsssssssssssssssssssssssssssssssssscccsscccsssssssssssssssssssssssssssssssscsssscssssssscsssssssccsscsscccsssssssscsssssssssssssscsssssccssssssssscsssssccsssscccccssssccssccsssssssssssssssssssssssssssssssssscssssssssssssssssssssssssssssssssssssssssssssssssssssssssssssssssssssssssscccssccsssssssssssssccsssscsssssccsscssccsssssssssssscssssssssssssssssssssssssssssssssssssssssssssssssssssssssssssssssssssssssssssssssssssssssssscssscsssss" />
      <path
         style="fill:#000000;stroke:none;stroke-width:0.390641;stroke-linecap:square;stroke-dasharray:none;paint-order:stroke fill markers"
         d="m 74.810711,174.1866 c 0,0 1.839837,-1.22268 1.73281,-2.00186 -0.107042,-0.77918 0.02303,-0.64054 0.02303,-0.64054 0,0 0.679045,0.8322 1.402132,0.86545 0.723072,0.0332 0.793705,0.94489 0.50295,0.97569 -0.290756,0.0309 -0.500499,0.9042 -0.434783,1.43756 0.0657,0.53335 0.03322,0.89997 0.03322,0.89997 0,0 -0.450683,-0.69484 -0.698829,-0.76018 -0.248086,-0.0654 -2.237782,-0.0182 -2.470381,-0.0182 -0.232583,0 -0.487063,-0.87133 -0.09036,-0.75799 z"
         id="path34"
         sodipodi:nodetypes="cscssscsssc" />
    </g>
  </g>
</svg>
